<svg width="30" height="30" viewBox="0 0 30 30" fill="none" xmlns="http://www.w3.org/2000/svg">
<path fill-rule="evenodd" clip-rule="evenodd" d="M15 15C12.4111 15 10.3125 12.9013 10.3125 10.3125C10.3125 7.72367 12.4111 5.625 15 5.625C17.5888 5.625 19.6875 7.72367 19.6875 10.3125C19.6875 12.9013 17.5888 15 15 15ZM15 13.125C16.5533 13.125 17.8125 11.8658 17.8125 10.3125C17.8125 8.7592 16.5533 7.5 15 7.5C13.4467 7.5 12.1875 8.7592 12.1875 10.3125C12.1875 11.8658 13.4467 13.125 15 13.125ZM6.49709 23.904C7.01359 23.9401 7.46158 23.5506 7.49769 23.0341C7.69677 20.1871 10.0444 18.75 14.9858 18.75C19.9287 18.75 22.2869 20.189 22.5008 23.0389C22.5396 23.5552 22.9896 23.9424 23.5059 23.9036C24.0222 23.8649 24.4093 23.4149 24.3706 22.8986C24.0684 18.8735 20.7934 16.875 14.9858 16.875C9.17683 16.875 5.9089 18.8754 5.62726 22.9034C5.59115 23.4199 5.98058 23.8678 6.49709 23.904Z" fill="#CFAD71"/>
</svg>
