<svg width="26" height="30" viewBox="0 0 26 30" fill="none" xmlns="http://www.w3.org/2000/svg">
<path d="M19.3958 4.43789C19.3779 4.41721 19.36 4.39752 19.3407 4.37859C18.4179 3.4558 17.1817 2.94738 15.8596 2.94738C14.8533 2.94738 13.8673 3.25863 13.0526 3.81861C12.4737 3.42141 11.8091 3.15158 11.0982 3.02596C10.3393 1.21266 8.56699 0 6.56139 0C4.12348 0 2.08559 1.76912 1.70701 4.11545C1.60559 4.20422 1.51576 4.29369 1.43121 4.37859C0.521719 5.28809 0 6.55682 0 7.85965C0 9.84738 1.23896 11.6783 3.0958 12.4211C3.93299 12.7431 4.82385 12.8379 5.64914 12.7246V14.7018C5.64914 16.2495 6.90844 17.5088 8.45613 17.5088C10.0038 17.5088 11.2631 16.2498 11.2628 14.7018V12.6582C11.8845 12.5224 12.4761 12.2691 12.9993 11.9133C13.8101 12.4948 14.7845 12.807 15.8242 12.807C17.1466 12.807 18.3828 12.2986 19.3056 11.3758C20.2284 10.4534 20.7364 9.21686 20.7364 7.89475C20.7365 6.67477 20.2603 5.44664 19.3958 4.43789ZM17.8172 9.88734C17.2842 10.42 16.5951 10.7017 15.8242 10.7017C15.0228 10.7017 14.3214 10.3961 13.7961 9.8182C13.6024 9.60486 13.3295 9.48064 13.041 9.47396C12.7537 9.46869 12.4747 9.57955 12.2712 9.78381L12.2031 9.85225C11.6856 10.3698 10.9593 10.6666 10.2105 10.6666C9.62906 10.6666 9.15785 11.1379 9.15785 11.7193V14.7018C9.15785 15.0821 8.83646 15.4035 8.45607 15.4035C8.07568 15.4035 7.7543 15.0821 7.7543 14.7018V11.2982C7.7543 10.9287 7.56023 10.586 7.24307 10.3958C7.07672 10.2957 6.88939 10.2456 6.70166 10.2456C6.53186 10.2456 6.36164 10.2867 6.20625 10.3702C5.54379 10.7235 4.66799 10.7705 3.86449 10.4617C2.81221 10.0407 2.10521 8.99508 2.10521 7.86C2.10521 7.11123 2.40205 6.38525 2.91961 5.86734C3.04805 5.73891 3.11713 5.67088 3.17262 5.64311C3.51158 5.4733 3.7333 5.13469 3.75299 4.75611C3.8298 3.26947 5.0635 2.10521 6.56139 2.10521C7.85437 2.10521 8.9782 2.98945 9.29367 4.25537C9.40805 4.71117 9.81017 5.03643 10.28 5.05219C11.0421 5.07744 11.7375 5.36725 12.2358 5.86553L12.3115 5.94094C12.7228 6.34828 13.3873 6.34687 13.7965 5.93707L13.8667 5.86687C14.3846 5.34932 15.1106 5.05248 15.8593 5.05248C16.6165 5.05248 17.2944 5.32441 17.8236 5.83916C18.3373 6.45182 18.6313 7.19883 18.6313 7.89457C18.6312 8.66561 18.3498 9.35438 17.8172 9.88734Z" fill="black"/>
<path d="M23.0175 13.5789H17.7192V15.6842H23.0175V22.9474H17.7192V25.0526H23.0175C24.1978 25.0526 25.1227 24.1281 25.1227 22.9474V15.6842C25.1227 14.5039 24.1978 13.5789 23.0175 13.5789Z" fill="black"/>
<path d="M16.6666 11.2281V27.8947H4.4912V11.4737H2.38593V28.2456C2.38593 29.213 3.17296 30 4.14034 30H17.0175C17.9849 30 18.772 29.213 18.772 28.2456V11.2281H16.6666Z" fill="black"/>
</svg>
