<svg width="22" height="22" viewBox="0 0 22 22" fill="none" xmlns="http://www.w3.org/2000/svg">
<path d="M5.50003 0C5.06607 0 4.71429 0.351776 4.71429 0.785729V2.35714H6.28571V0.785729C6.28571 0.351776 5.93393 0 5.50003 0Z" fill="#D6B67B"/>
<path d="M16.5 0C16.066 0 15.7142 0.351776 15.7142 0.785729V2.35714H17.2856V0.785729C17.2857 0.351776 16.9339 0 16.5 0Z" fill="#D6B67B"/>
<path d="M19.6429 2.35712H17.2857V5.49999C17.2857 5.93394 16.9339 6.28572 16.5 6.28572C16.066 6.28572 15.7143 5.93394 15.7143 5.49999V2.35712H6.28569V5.49999C6.28569 5.93394 5.93392 6.28572 5.49997 6.28572C5.06601 6.28572 4.71424 5.93394 4.71424 5.49999V2.35712H2.35714C1.05533 2.35712 0 3.41244 0 4.71426V19.6428C0 20.9446 1.05533 22 2.35714 22H19.6429C20.9447 22 22 20.9446 22 19.6428V4.71426C22 3.41244 20.9447 2.35712 19.6429 2.35712ZM20.4285 19.6428C20.4285 20.0768 20.0768 20.4286 19.6428 20.4286H2.35714C1.92319 20.4286 1.57141 20.0768 1.57141 19.6428V9.42854H20.4285V19.6428Z" fill="#D6B67B"/>
<path d="M16.2702 11.2306C15.9634 10.9236 15.4658 10.9235 15.1588 11.2302L9.42857 16.9604L6.84119 14.3731C6.53417 14.0663 6.03659 14.0665 5.72979 14.3735C5.423 14.6805 5.42318 15.1781 5.73021 15.4849L8.87308 18.6277C9.17992 18.9345 9.67726 18.9345 9.98406 18.6277L16.2698 12.342C16.5768 12.0352 16.577 11.5376 16.2702 11.2306Z" fill="#D6B67B"/>
</svg>
