<svg width="23" height="23" viewBox="0 0 23 23" fill="none" xmlns="http://www.w3.org/2000/svg">
<path fill-rule="evenodd" clip-rule="evenodd" d="M11.4 21.7561C5.56787 21.7561 0.839996 17.0114 0.839996 11.1585C0.839996 5.30566 5.56787 0.560974 11.4 0.560974C17.2321 0.560974 21.96 5.30566 21.96 11.1585C21.96 17.0114 17.2321 21.7561 11.4 21.7561ZM11.4 20.7468C16.6767 20.7468 20.9543 16.454 20.9543 11.1585C20.9543 5.86308 16.6767 1.57027 11.4 1.57027C6.12331 1.57027 1.84571 5.86308 1.84571 11.1585C1.84571 16.454 6.12331 20.7468 11.4 20.7468ZM9.60049 9.35999L14.8944 6.54864C15.8246 6.05465 16.4885 6.71522 15.9944 7.65193L13.1937 12.9607L7.90442 15.7706C6.97464 16.2646 6.31083 15.6041 6.80422 14.6676L9.60049 9.35999Z" fill="#D3B172"/>
<path d="M14.8944 6.54864L15.0351 6.8136H15.0351L14.8944 6.54864ZM9.60049 9.35999L9.45979 9.09503L9.37816 9.13839L9.33507 9.22016L9.60049 9.35999ZM15.9944 7.65193L16.2597 7.79192H16.2597L15.9944 7.65193ZM13.1937 12.9607L13.3344 13.2256L13.4159 13.1823L13.459 13.1006L13.1937 12.9607ZM7.90442 15.7706L8.04516 16.0356L7.90442 15.7706ZM6.80422 14.6676L7.06963 14.8075L6.80422 14.6676ZM0.539996 11.1585C0.539996 17.1761 5.40118 22.0561 11.4 22.0561V21.4561C5.73456 21.4561 1.14 16.8467 1.14 11.1585H0.539996ZM11.4 0.260974C5.40118 0.260974 0.539996 5.14098 0.539996 11.1585H1.14C1.14 5.47034 5.73456 0.860974 11.4 0.860974V0.260974ZM22.26 11.1585C22.26 5.14098 17.3988 0.260974 11.4 0.260974V0.860974C17.0654 0.860974 21.66 5.47034 21.66 11.1585H22.26ZM11.4 22.0561C17.3988 22.0561 22.26 17.1761 22.26 11.1585H21.66C21.66 16.8467 17.0654 21.4561 11.4 21.4561V22.0561ZM20.6543 11.1585C20.6543 16.2893 16.51 20.4468 11.4 20.4468V21.0468C16.8434 21.0468 21.2543 16.6187 21.2543 11.1585H20.6543ZM11.4 1.87027C16.51 1.87027 20.6543 6.02776 20.6543 11.1585H21.2543C21.2543 5.6984 16.8434 1.27027 11.4 1.27027V1.87027ZM2.14571 11.1585C2.14571 6.02776 6.28999 1.87027 11.4 1.87027V1.27027C5.95662 1.27027 1.54571 5.6984 1.54571 11.1585H2.14571ZM11.4 20.4468C6.28999 20.4468 2.14571 16.2893 2.14571 11.1585H1.54571C1.54571 16.6187 5.95662 21.0468 11.4 21.0468V20.4468ZM14.7537 6.28369L9.45979 9.09503L9.7412 9.62495L15.0351 6.8136L14.7537 6.28369ZM16.2597 7.79192C16.5406 7.25948 16.5401 6.70107 16.1906 6.35164C15.8411 6.00209 15.2832 6.00246 14.7537 6.28369L15.0351 6.8136C15.4357 6.60083 15.675 6.68449 15.7664 6.77591C15.8579 6.86744 15.9423 7.10767 15.729 7.51195L16.2597 7.79192ZM13.459 13.1006L16.2597 7.79192L15.729 7.51195L12.9283 12.8207L13.459 13.1006ZM8.04516 16.0356L13.3344 13.2256L13.0529 12.6957L7.76367 15.5057L8.04516 16.0356ZM6.5388 14.5278C6.25832 15.0602 6.25913 15.6184 6.60853 15.9677C6.95809 16.3172 7.51577 16.3168 8.04516 16.0356L7.76367 15.5057C7.36328 15.7184 7.12417 15.6348 7.03273 15.5434C6.94112 15.4518 6.85673 15.2116 7.06963 14.8075L6.5388 14.5278ZM9.33507 9.22016L6.5388 14.5278L7.06963 14.8075L9.86591 9.49982L9.33507 9.22016Z" fill="#D3B172"/>
</svg>
