<svg width="27" height="20" viewBox="0 0 27 20" fill="none" xmlns="http://www.w3.org/2000/svg">
<path fill-rule="evenodd" clip-rule="evenodd" d="M2.21314 8.40979H25.2296C25.9628 8.40979 26.5573 9.00442 26.5573 9.73772C26.5573 10.4713 25.9628 11.0657 25.2296 11.0657H2.21314C1.47971 11.0657 0.885222 10.4713 0.885222 9.73772C0.885222 9.00442 1.47971 8.40979 2.21314 8.40979Z" fill="white" fill-opacity="0.5"/>
<path fill-rule="evenodd" clip-rule="evenodd" d="M2.21314 16.3773H14.6065C15.34 16.3773 15.9345 16.9717 15.9345 17.7047C15.9345 18.4383 15.34 19.0327 14.6065 19.0327H2.21314C1.47971 19.0327 0.885222 18.4383 0.885222 17.7047C0.885222 16.9717 1.47971 16.3773 2.21314 16.3773Z" fill="white" fill-opacity="0.5"/>
<path fill-rule="evenodd" clip-rule="evenodd" d="M2.21314 0.884904H20.8032C21.5367 0.884904 22.1311 1.48005 22.1311 2.21309C22.1311 2.94642 21.5367 3.54102 20.8032 3.54102H2.21314C1.47971 3.54102 0.885222 2.94642 0.885222 2.21309C0.885222 1.48005 1.47971 0.884904 2.21314 0.884904Z" fill="white" fill-opacity="0.5"/>
</svg>
