<svg width="20" height="22" viewBox="0 0 20 22" fill="none" xmlns="http://www.w3.org/2000/svg">
<path fill-rule="evenodd" clip-rule="evenodd" d="M18.8619 7.69876L11.8013 1.43373C10.8723 0.592158 9.44775 0.592158 8.51872 1.43373L1.45808 7.69876C0.931626 8.1663 0.621948 8.85202 0.621948 9.56892V17.7664C0.621948 19.8236 2.29421 21.5068 4.33808 21.5068H15.9819C18.0258 21.5068 19.6981 19.8236 19.6981 17.7664V9.56892C19.6981 8.85202 19.3884 8.1663 18.8619 7.69876ZM8.05421 20.26V16.395C8.05421 15.2106 9.01421 14.2755 10.16 14.2755C11.3058 14.2755 12.2658 15.2417 12.2658 16.395V20.26H8.05421ZM15.9819 20.26C17.3445 20.26 18.4594 19.1379 18.4594 17.7664V9.56892C18.4903 9.22605 18.3355 8.88319 18.0568 8.63384L10.9961 2.36881C10.5316 1.96361 9.81937 1.96361 9.35485 2.36881L2.29421 8.63384C2.0155 8.88319 1.86066 9.22605 1.86066 9.56892V17.7664C1.86066 19.1379 2.9755 20.26 4.33808 20.26H6.8155V16.395C6.8155 14.556 8.30195 13.0287 10.16 13.0287C11.9871 13.0287 13.5045 14.5248 13.5045 16.395V20.26H15.9819Z" fill="#955F2A"/>
<path d="M11.8013 1.43373L11.667 1.58196L11.6686 1.58333L11.8013 1.43373ZM18.8619 7.69876L18.9948 7.54922L18.9947 7.54916L18.8619 7.69876ZM8.51872 1.43373L8.65147 1.58334L8.65299 1.58196L8.51872 1.43373ZM1.45808 7.69876L1.32534 7.54916L1.32527 7.54922L1.45808 7.69876ZM8.05421 20.26H7.85421V20.46H8.05421V20.26ZM12.2658 20.26V20.46H12.4658V20.26H12.2658ZM18.4594 9.56892L18.2602 9.55092L18.2594 9.5599V9.56892H18.4594ZM18.0568 8.63384L18.1901 8.48478L18.1895 8.48424L18.0568 8.63384ZM10.9961 2.36881L11.1289 2.2192L11.1276 2.21809L10.9961 2.36881ZM9.35485 2.36881L9.22338 2.21809L9.22211 2.21921L9.35485 2.36881ZM2.29421 8.63384L2.16146 8.48424L2.16085 8.48478L2.29421 8.63384ZM6.8155 20.26V20.46H7.0155V20.26H6.8155ZM13.5045 20.26H13.3045V20.46H13.5045V20.26ZM11.6686 1.58333L18.7292 7.84836L18.9947 7.54916L11.934 1.28413L11.6686 1.58333ZM8.65299 1.58196C9.50582 0.809416 10.8142 0.809416 11.667 1.58196L11.9356 1.2855C10.9303 0.374901 9.38969 0.374901 8.38445 1.2855L8.65299 1.58196ZM1.59082 7.84836L8.65146 1.58333L8.38598 1.28413L1.32534 7.54916L1.59082 7.84836ZM0.821948 9.56892C0.821948 8.90893 1.10736 8.27772 1.59088 7.8483L1.32527 7.54922C0.755894 8.05488 0.421948 8.79512 0.421948 9.56892H0.821948ZM0.821948 17.7664V9.56892H0.421948V17.7664H0.821948ZM4.33808 21.3068C2.40588 21.3068 0.821948 19.7144 0.821948 17.7664H0.421948C0.421948 19.9328 2.18253 21.7068 4.33808 21.7068V21.3068ZM15.9819 21.3068H4.33808V21.7068H15.9819V21.3068ZM19.4981 17.7664C19.4981 19.7144 17.9141 21.3068 15.9819 21.3068V21.7068C18.1375 21.7068 19.8981 19.9328 19.8981 17.7664H19.4981ZM19.4981 9.56892V17.7664H19.8981V9.56892H19.4981ZM18.7291 7.8483C19.2127 8.27772 19.4981 8.90893 19.4981 9.56892H19.8981C19.8981 8.79512 19.5641 8.05488 18.9948 7.54922L18.7291 7.8483ZM7.85421 16.395V20.26H8.25421V16.395H7.85421ZM10.16 14.0755C8.90444 14.0755 7.85421 15.0994 7.85421 16.395H8.25421C8.25421 15.3217 9.12397 14.4755 10.16 14.4755V14.0755ZM12.4658 16.395C12.4658 15.1325 11.4175 14.0755 10.16 14.0755V14.4755C11.1941 14.4755 12.0658 15.351 12.0658 16.395H12.4658ZM12.4658 20.26V16.395H12.0658V20.26H12.4658ZM8.05421 20.46H12.2658V20.06H8.05421V20.46ZM18.2594 17.7664C18.2594 19.0287 17.2329 20.06 15.9819 20.06V20.46C17.4562 20.46 18.6594 19.2471 18.6594 17.7664H18.2594ZM18.2594 9.56892V17.7664H18.6594V9.56892H18.2594ZM17.9234 8.78289C18.1633 8.99749 18.2845 9.2813 18.2602 9.55092L18.6586 9.58691C18.6961 9.17081 18.5077 8.76889 18.1901 8.48478L17.9234 8.78289ZM10.8634 2.51841L17.924 8.78344L18.1895 8.48424L11.1289 2.21921L10.8634 2.51841ZM9.48632 2.51953C9.87551 2.18004 10.4755 2.18004 10.8647 2.51953L11.1276 2.21809C10.5878 1.74718 9.76323 1.74718 9.22338 2.21809L9.48632 2.51953ZM2.42695 8.78344L9.48759 2.51841L9.22211 2.21921L2.16146 8.48424L2.42695 8.78344ZM2.06066 9.56892C2.06066 9.28613 2.18883 8.99648 2.42756 8.78289L2.16085 8.48478C1.84216 8.76991 1.66066 9.16597 1.66066 9.56892H2.06066ZM2.06066 17.7664V9.56892H1.66066V17.7664H2.06066ZM4.33808 20.06C3.08717 20.06 2.06066 19.0287 2.06066 17.7664H1.66066C1.66066 19.2471 2.86382 20.46 4.33808 20.46V20.06ZM6.8155 20.06H4.33808V20.46H6.8155V20.06ZM6.6155 16.395V20.26H7.0155V16.395H6.6155ZM10.16 12.8287C8.18907 12.8287 6.6155 14.448 6.6155 16.395H7.0155C7.0155 14.664 8.41482 13.2287 10.16 13.2287V12.8287ZM13.7045 16.395C13.7045 14.4144 12.0976 12.8287 10.16 12.8287V13.2287C11.8766 13.2287 13.3045 14.6353 13.3045 16.395H13.7045ZM13.7045 20.26V16.395H13.3045V20.26H13.7045ZM15.9819 20.06H13.5045V20.46H15.9819V20.06Z" fill="#955F2A"/>
<path fill-rule="evenodd" clip-rule="evenodd" d="M7.54501 20.7927V15.9756L8.05422 14.7021L9.5917 13.7605H10.9633L11.9287 14.2755L12.5099 15.65L12.8726 16.3544V17.5295V20.7468L7.54501 20.7927Z" fill="#955F2A"/>
</svg>
