<svg width="22" height="22" viewBox="0 0 22 22" fill="none" xmlns="http://www.w3.org/2000/svg">
<path fill-rule="evenodd" clip-rule="evenodd" d="M19.0816 9.69729C19.0816 12.4095 17.6581 15.0676 15.3111 17.5909C14.5063 18.4561 13.6464 19.2443 12.7863 19.9419C12.4848 20.1865 12.2042 20.4026 11.9515 20.5885C11.7975 20.7018 11.6853 20.781 11.6218 20.8241C11.3565 21.0042 11.0109 21.0042 10.7456 20.8241C10.682 20.781 10.5698 20.7018 10.4158 20.5885C10.1631 20.4026 9.88256 20.1865 9.58103 19.9419C8.72088 19.2443 7.86099 18.4561 7.05623 17.5909C4.70924 15.0676 3.28571 12.4095 3.28571 9.69729C3.28571 5.2546 6.82174 1.65308 11.1837 1.65308C15.5456 1.65308 19.0816 5.2546 19.0816 9.69729ZM11.8024 18.6834C12.6083 18.0298 13.4144 17.2909 14.1645 16.4844C16.2601 14.2314 17.5021 11.9122 17.5021 9.69732C17.5021 6.14316 14.6733 3.26194 11.1838 3.26194C7.69424 3.26194 4.86541 6.14316 4.86541 9.69732C4.86541 11.9122 6.10744 14.2314 8.20305 16.4844C8.9532 17.2909 9.75928 18.0298 10.5651 18.6834C10.7851 18.8618 10.9924 19.0235 11.1838 19.1675C11.3752 19.0235 11.5825 18.8618 11.8024 18.6834ZM11.1836 12.915C12.9284 12.915 14.3428 11.4744 14.3428 9.69728C14.3428 7.9202 12.9284 6.47959 11.1836 6.47959C9.43888 6.47959 8.02447 7.9202 8.02447 9.69728C8.02447 11.4744 9.43888 12.915 11.1836 12.915ZM11.1837 11.3061C10.3113 11.3061 9.60409 10.5858 9.60409 9.69729C9.60409 8.80875 10.3113 8.08845 11.1837 8.08845C12.0561 8.08845 12.7633 8.80875 12.7633 9.69729C12.7633 10.5858 12.0561 11.3061 11.1837 11.3061Z" fill="#7F7F7F"/>
</svg>
