<svg width="3" height="11" viewBox="0 0 3 11" fill="none" xmlns="http://www.w3.org/2000/svg">
<path d="M1.39903 0.363586H1.60749C2.06799 0.363586 2.44139 0.737037 2.44139 1.19739V1.40588C2.44139 1.86648 2.06799 2.23981 1.60749 2.23981H1.39903C0.938462 2.23981 0.565125 1.86648 0.565125 1.40588V1.19739C0.565125 0.737037 0.938462 0.363586 1.39903 0.363586Z" fill="#AAAAAA"/>
<path d="M1.39903 4.32451H1.60749C2.06799 4.32451 2.44139 4.69797 2.44139 5.15857V5.36705C2.44139 5.82765 2.06799 6.20099 1.60749 6.20099H1.39903C0.938462 6.20099 0.565125 5.82765 0.565125 5.36705V5.15857C0.565125 4.69797 0.938462 4.32451 1.39903 4.32451Z" fill="#AAAAAA"/>
<path d="M1.60749 8.28569H1.39903C0.938462 8.28569 0.565125 8.65902 0.565125 9.1195V9.32798C0.565125 9.78859 0.938462 10.1619 1.39903 10.1619H1.60749C2.06799 10.1619 2.44139 9.78859 2.44139 9.32798V9.1195C2.44139 8.65902 2.06799 8.28569 1.60749 8.28569Z" fill="#AAAAAA"/>
</svg>
