<svg width="22" height="22" viewBox="0 0 22 22" fill="none" xmlns="http://www.w3.org/2000/svg">
<path fill-rule="evenodd" clip-rule="evenodd" d="M16.1926 14.9531C17.1653 13.7371 17.747 12.1946 17.747 10.5163C17.747 6.59058 14.5645 3.40814 10.6388 3.40814C6.71307 3.40814 3.53064 6.59058 3.53064 10.5163C3.53064 14.442 6.71307 17.6245 10.6388 17.6245C12.3171 17.6245 13.8596 17.0428 15.0756 16.0701L17.9783 18.9727C18.2867 19.2812 18.7868 19.2812 19.0953 18.9727C19.4037 18.6643 19.4037 18.1642 19.0953 17.8558L16.1926 14.9531ZM14.621 14.3515C15.5786 13.3574 16.1675 12.0056 16.1675 10.5163C16.1675 7.46296 13.6923 4.98774 10.6389 4.98774C7.58559 4.98774 5.11037 7.46296 5.11037 10.5163C5.11037 13.5697 7.58559 16.0449 10.6389 16.0449C12.1282 16.0449 13.4799 15.456 14.474 14.4985C14.4949 14.4712 14.5178 14.4451 14.5427 14.4202C14.5676 14.3953 14.5938 14.3724 14.621 14.3515Z" fill="#7F7F7F"/>
</svg>
