<svg width="19" height="19" viewBox="0 0 19 19" fill="none" xmlns="http://www.w3.org/2000/svg">
<path d="M15.3485 7.44445H7.82994V2.25741C8.01708 2.23882 8.16327 2.08093 8.16327 1.88889V0.407412C8.16327 0.202856 7.99742 0.0370411 7.7929 0.0370411H2.90401C2.69949 0.0370411 2.53364 0.202856 2.53364 0.407412V1.88889C2.53364 2.08093 2.67983 2.23878 2.86697 2.25741V10.2899C2.86697 11.2241 3.10931 12.1481 3.56779 12.962C3.99171 13.7146 4.59179 14.3579 5.31142 14.8334V18.6296C5.31142 18.8342 5.47727 19 5.68179 19H11.1262C11.3308 19 11.4966 18.8342 11.4966 18.6296V15.5926C11.4966 15.2659 11.7625 15 12.0892 15C15.0709 15 17.4966 12.5743 17.4966 9.5926C17.4966 8.40812 16.533 7.44445 15.3485 7.44445ZM3.60771 2.25926H7.0892V9.22223H3.60771V2.25926ZM3.27438 0.777782H7.42253V1.51852H3.27438V0.777782ZM12.0892 14.2593C11.354 14.2593 10.7559 14.8574 10.7559 15.5926V18.2593H6.05216V14.6296C6.05216 14.5001 5.98453 14.38 5.87375 14.3129C4.47605 13.4657 3.60771 11.9242 3.60771 10.2898V9.96297H10.6262C10.8308 9.96297 10.9966 9.79712 10.9966 9.5926C10.9966 9.38804 10.8308 9.22223 10.6262 9.22223H7.82994V8.18519H15.3485C15.9963 8.18519 16.543 8.62534 16.706 9.22223H13.9596C13.755 9.22223 13.5892 9.38804 13.5892 9.5926C13.5892 9.79712 13.755 9.96297 13.9596 9.96297H16.7412C16.5518 12.3637 14.5378 14.2593 12.0892 14.2593Z" fill="#7F7F7F"/>
<path d="M12.2929 9.22222C12.1955 9.22222 12.1003 9.26181 12.0311 9.33074C11.9622 9.39962 11.9225 9.49518 11.9225 9.59258C11.9225 9.68999 11.9621 9.78554 12.0311 9.85439C12.1003 9.92328 12.1955 9.96294 12.2929 9.96294C12.3903 9.96294 12.4859 9.92332 12.5547 9.85439C12.624 9.78554 12.6636 9.68999 12.6636 9.59258C12.6636 9.49518 12.624 9.39962 12.5547 9.33074C12.4859 9.26181 12.3903 9.22222 12.2929 9.22222Z" fill="#7F7F7F"/>
<path d="M17.0925 14.3584C16.888 14.3584 16.7221 14.5243 16.7221 14.7288V15.2103C16.7221 15.4148 16.888 15.5807 17.0925 15.5807C17.297 15.5807 17.4629 15.4148 17.4629 15.2103V14.7288C17.4629 14.5243 17.297 14.3584 17.0925 14.3584Z" fill="#7F7F7F"/>
<path d="M17.0925 16.9272C16.888 16.9272 16.7221 17.093 16.7221 17.2976V17.7658C16.7221 17.9703 16.888 18.1362 17.0925 18.1362C17.297 18.1362 17.4629 17.9703 17.4629 17.7658V17.2976C17.4629 17.093 17.297 16.9272 17.0925 16.9272Z" fill="#7F7F7F"/>
<path d="M18.6109 15.877H18.1294C17.9249 15.877 17.759 16.0428 17.759 16.2473C17.759 16.4518 17.9249 16.6177 18.1294 16.6177H18.6109C18.8154 16.6177 18.9813 16.4518 18.9813 16.2473C18.9813 16.0428 18.8154 15.877 18.6109 15.877Z" fill="#7F7F7F"/>
<path d="M16.0556 15.877H15.5741C15.3696 15.877 15.2037 16.0428 15.2037 16.2473C15.2037 16.4518 15.3696 16.6177 15.5741 16.6177H16.0556C16.2601 16.6177 16.4259 16.4518 16.4259 16.2473C16.4259 16.0428 16.2601 15.877 16.0556 15.877Z" fill="#7F7F7F"/>
<path d="M1.90723 14.3584C1.70271 14.3584 1.53686 14.5243 1.53686 14.7288V15.2103C1.53686 15.4148 1.70271 15.5807 1.90723 15.5807C2.11175 15.5807 2.2776 15.4148 2.2776 15.2103V14.7288C2.2776 14.5243 2.11175 14.3584 1.90723 14.3584Z" fill="#7F7F7F"/>
<path d="M1.90723 16.9272C1.70271 16.9272 1.53686 17.093 1.53686 17.2976V17.7658C1.53686 17.9703 1.70271 18.1362 1.90723 18.1362C2.11175 18.1362 2.2776 17.9703 2.2776 17.7658V17.2976C2.2776 17.093 2.11175 16.9272 1.90723 16.9272Z" fill="#7F7F7F"/>
<path d="M3.42586 15.877H2.94438C2.73986 15.877 2.57401 16.0428 2.57401 16.2473C2.57401 16.4518 2.73986 16.6177 2.94438 16.6177H3.42586C3.63038 16.6177 3.79623 16.4518 3.79623 16.2473C3.79623 16.0428 3.63038 15.877 3.42586 15.877Z" fill="#7F7F7F"/>
<path d="M0.870284 15.877H0.388803C0.184247 15.877 0.0184326 16.0428 0.0184326 16.2473C0.0184326 16.4518 0.184247 16.6177 0.388803 16.6177H0.870284C1.0748 16.6177 1.24065 16.4518 1.24065 16.2473C1.24065 16.0428 1.0748 15.877 0.870284 15.877Z" fill="#7F7F7F"/>
<path d="M14.2406 1.22222C14.4452 1.22222 14.611 1.05637 14.611 0.851852V0.37037C14.611 0.165815 14.4452 0 14.2406 0C14.0361 0 13.8703 0.165815 13.8703 0.37037V0.851852C13.8703 1.05637 14.0361 1.22222 14.2406 1.22222Z" fill="#7F7F7F"/>
<path d="M14.2406 3.7778C14.4452 3.7778 14.611 3.61195 14.611 3.40743V2.9391C14.611 2.73458 14.4452 2.56873 14.2406 2.56873C14.0361 2.56873 13.8703 2.73458 13.8703 2.9391V3.40743C13.8703 3.61195 14.0361 3.7778 14.2406 3.7778Z" fill="#7F7F7F"/>
<path d="M15.2777 2.25929H15.7592C15.9638 2.25929 16.1296 2.09344 16.1296 1.88892C16.1296 1.6844 15.9638 1.51855 15.7592 1.51855H15.2777C15.0732 1.51855 14.9074 1.6844 14.9074 1.88892C14.9074 2.09344 15.0732 2.25929 15.2777 2.25929Z" fill="#7F7F7F"/>
<path d="M12.7222 2.25929H13.2037C13.4082 2.25929 13.5741 2.09344 13.5741 1.88892C13.5741 1.6844 13.4082 1.51855 13.2037 1.51855H12.7222C12.5177 1.51855 12.3518 1.6844 12.3518 1.88892C12.3518 2.09344 12.5177 2.25929 12.7222 2.25929Z" fill="#7F7F7F"/>
</svg>
