<svg width="20" height="20" viewBox="0 0 20 20" fill="none" xmlns="http://www.w3.org/2000/svg">
<path d="M6.87148 9.37506C8.25 9.37506 9.37148 8.46385 9.37148 7.34381C9.37148 7.26093 9.33856 7.18144 9.27995 7.12284C9.22135 7.06423 9.14186 7.03131 9.05898 7.03131C8.9761 7.03131 8.89662 7.06423 8.83801 7.12284C8.77941 7.18144 8.74648 7.26093 8.74648 7.34381C8.74648 8.03935 8.06957 8.61822 7.18398 8.73013V7.73834C7.21704 7.72185 7.24875 7.70279 7.27883 7.68135L7.80918 7.30287C7.9065 7.23224 7.98559 7.13943 8.0399 7.03214C8.0942 6.92485 8.12215 6.80616 8.12144 6.68592C8.12144 6.27334 7.79863 5.93767 7.40183 5.93767H6.34109C5.94429 5.93767 5.62148 6.27334 5.62148 6.68592C5.62077 6.80616 5.64872 6.92485 5.70303 7.03214C5.75733 7.13943 5.83642 7.23224 5.93375 7.30287L6.4641 7.68135C6.49418 7.70281 6.5259 7.72187 6.55898 7.73834V8.73013C5.6734 8.61822 4.99648 8.03935 4.99648 7.34381C4.99648 7.26093 4.96356 7.18144 4.90495 7.12284C4.84635 7.06423 4.76686 7.03131 4.68398 7.03131C4.6011 7.03131 4.52162 7.06423 4.46301 7.12284C4.40441 7.18144 4.37148 7.26093 4.37148 7.34381C4.37148 8.46385 5.49297 9.37506 6.87148 9.37506ZM6.29687 6.79404C6.28064 6.78116 6.26764 6.76467 6.2589 6.74588C6.25017 6.72708 6.24594 6.70651 6.24656 6.6858C6.24656 6.619 6.28992 6.56256 6.34117 6.56256H7.40195C7.45324 6.56256 7.49656 6.619 7.49656 6.6858C7.49717 6.70652 7.49294 6.72709 7.4842 6.74588C7.47546 6.76467 7.46245 6.78116 7.44621 6.79404L6.91586 7.17248C6.90316 7.18226 6.88757 7.18757 6.87154 7.18757C6.85551 7.18757 6.83992 7.18226 6.82722 7.17248L6.29687 6.79404Z" fill="#7F7F7F"/>
<path d="M8.74648 5.93754C8.91907 5.93754 9.05898 5.79763 9.05898 5.62504C9.05898 5.45245 8.91907 5.31254 8.74648 5.31254C8.57389 5.31254 8.43398 5.45245 8.43398 5.62504C8.43398 5.79763 8.57389 5.93754 8.74648 5.93754Z" fill="#7F7F7F"/>
<path d="M4.99648 5.93754C5.16907 5.93754 5.30898 5.79763 5.30898 5.62504C5.30898 5.45245 5.16907 5.31254 4.99648 5.31254C4.82389 5.31254 4.68398 5.45245 4.68398 5.62504C4.68398 5.79763 4.82389 5.93754 4.99648 5.93754Z" fill="#7F7F7F"/>
<path d="M14.9999 12.1875C15.2471 12.1875 15.4888 12.1142 15.6944 11.9769C15.8999 11.8395 16.0602 11.6443 16.1548 11.4159C16.2494 11.1875 16.2741 10.9361 16.2259 10.6937C16.1777 10.4512 16.0586 10.2285 15.8838 10.0536C15.709 9.87883 15.4863 9.75978 15.2438 9.71155C15.0013 9.66331 14.75 9.68807 14.5216 9.78268C14.2931 9.87729 14.0979 10.0375 13.9606 10.2431C13.8232 10.4486 13.7499 10.6903 13.7499 10.9375C13.7503 11.2689 13.8821 11.5867 14.1164 11.821C14.3508 12.0554 14.6685 12.1872 14.9999 12.1875ZM14.9999 10.3125C15.1235 10.3125 15.2444 10.3492 15.3472 10.4179C15.4499 10.4865 15.53 10.5842 15.5773 10.6984C15.6247 10.8126 15.637 10.9382 15.6129 11.0595C15.5888 11.1807 15.5293 11.2921 15.4419 11.3795C15.3545 11.4669 15.2431 11.5264 15.1218 11.5505C15.0006 11.5746 14.8749 11.5623 14.7607 11.515C14.6465 11.4677 14.5489 11.3875 14.4802 11.2848C14.4116 11.182 14.3749 11.0611 14.3749 10.9375C14.3751 10.7718 14.441 10.613 14.5582 10.4958C14.6754 10.3786 14.8342 10.3127 14.9999 10.3125Z" fill="#7F7F7F"/>
<path d="M19.3748 12.8126H17.4998V8.75006C17.4999 8.68595 17.4801 8.62339 17.4432 8.57096L15.2557 5.44596C15.2269 5.40479 15.1885 5.37118 15.144 5.34798C15.0994 5.32477 15.0499 5.31266 14.9997 5.31266C14.9494 5.31266 14.8999 5.32477 14.8553 5.34798C14.8108 5.37118 14.7725 5.40479 14.7436 5.44596L12.5561 8.57096C12.5194 8.62343 12.4997 8.68598 12.4998 8.75006V10.7056C12.0719 10.1303 11.5009 9.65299 10.796 9.28479C11.492 8.46666 11.8713 7.40361 11.8713 6.25006C11.8729 5.74035 11.7956 5.23345 11.6421 4.7474C11.9465 4.58674 12.2087 4.35652 12.4073 4.07546C12.606 3.7944 12.7355 3.47044 12.7854 3.12989C12.8353 2.78935 12.8041 2.44184 12.6944 2.11562C12.5847 1.78939 12.3995 1.49365 12.154 1.25245C11.9085 1.01124 11.6096 0.831368 11.2814 0.727453C10.9533 0.623537 10.6053 0.598511 10.2657 0.654409C9.9261 0.710306 9.60448 0.845549 9.32698 1.04915C9.04948 1.25274 8.82393 1.51894 8.66868 1.82612C8.08658 1.64676 7.48039 1.55787 6.8713 1.56256C6.26225 1.55787 5.65609 1.64677 5.07403 1.82615C4.91878 1.51898 4.69324 1.25278 4.41574 1.04918C4.13825 0.845576 3.81662 0.710329 3.47702 0.654427C3.13741 0.598525 2.7894 0.623547 2.46129 0.727458C2.13317 0.831369 1.8342 1.01124 1.58869 1.25244C1.34317 1.49365 1.15803 1.78938 1.04833 2.1156C0.938617 2.44183 0.907433 2.78933 0.957309 3.12988C1.00718 3.47042 1.13671 3.79439 1.33536 4.07545C1.53401 4.35651 1.79618 4.58674 2.10056 4.7474C1.94702 5.23345 1.86968 5.74034 1.8713 6.25006C1.8713 7.40361 2.25075 8.4667 2.94665 9.28479C1.42524 10.0794 0.528212 11.3826 0.344188 13.0793C0.343798 13.0832 0.343407 13.0871 0.343133 13.091L0.313094 13.52C0.312098 13.5341 0.312098 13.5482 0.313094 13.5623C0.338081 13.9281 0.469542 14.2786 0.691278 14.5706C0.913014 14.8626 1.21534 15.0833 1.56099 15.2056C1.3548 15.6282 1.24835 16.0924 1.24981 16.5626C1.24981 18.1133 2.3713 19.3751 3.74981 19.3751C4.492 19.3751 5.15931 19.009 5.61759 18.4293C6.0032 18.6398 6.43549 18.7501 6.87481 18.7501C7.31413 18.7501 7.74642 18.6398 8.13204 18.4293C8.59032 19.009 9.25763 19.3751 9.99981 19.3751C10.9793 19.3751 11.8286 18.7377 12.2384 17.8126H19.3748C19.4577 17.8126 19.5372 17.7796 19.5958 17.721C19.6544 17.6624 19.6873 17.5829 19.6873 17.5001V13.1251C19.6873 13.0422 19.6544 12.9627 19.5958 12.9041C19.5372 12.8455 19.4577 12.8126 19.3748 12.8126ZM14.9998 6.16998L16.5871 8.43756H13.4125L14.9998 6.16998ZM13.1248 9.06256H16.8748V12.8126H13.3624C13.3132 12.4932 13.2336 12.1793 13.1248 11.8751V9.06256ZM12.1876 15.2034C12.4821 15.0977 12.7456 14.9204 12.9545 14.6876H13.4373V15.9376H12.4368C12.3857 15.6831 12.3019 15.4364 12.1876 15.2034ZM12.7764 13.1409L12.8045 13.5414C12.782 13.8059 12.6761 14.0565 12.5019 14.2569C12.3278 14.4572 12.0945 14.5971 11.8358 14.6563C11.444 14.1792 10.9076 13.8551 10.3057 13.772C10.2488 12.501 9.82036 11.3281 9.12036 10.5071C9.5617 10.3206 9.97096 10.0659 10.3331 9.75221C11.7646 10.4379 12.608 11.6055 12.7764 13.1409ZM10.6213 1.25006C10.9647 1.24995 11.2985 1.36294 11.5712 1.57157C11.8439 1.7802 12.0403 2.07284 12.13 2.40427C12.2197 2.7357 12.1978 3.08745 12.0676 3.40515C11.9373 3.72286 11.7061 3.98882 11.4096 4.16194C11.1914 3.70481 10.8953 3.28918 10.5346 2.93365C10.1623 2.56852 9.72966 2.27056 9.25579 2.05295C9.39147 1.80981 9.58952 1.60724 9.82954 1.46612C10.0696 1.32499 10.3429 1.25041 10.6213 1.25006ZM1.5588 2.81256C1.5587 2.46639 1.67357 2.13 1.88536 1.85618C2.09715 1.58236 2.39387 1.38663 2.72895 1.2997C3.06402 1.21278 3.41848 1.23959 3.73667 1.37592C4.05486 1.51225 4.31877 1.75039 4.48696 2.05295C4.01308 2.27054 3.58043 2.5685 3.20817 2.93365C2.84739 3.28915 2.5513 3.70478 2.33317 4.1619C2.09772 4.02395 1.9024 3.82687 1.76657 3.59019C1.63075 3.35351 1.55912 3.08545 1.5588 2.81256ZM3.64641 3.37928C4.43923 2.59967 5.5545 2.18756 6.8713 2.18756C8.18809 2.18756 9.30337 2.59967 10.0962 3.37932C10.8379 4.10862 11.2463 5.12811 11.2463 6.25006C11.2463 7.37201 10.8379 8.39151 10.0962 9.1208C9.30337 9.90045 8.18821 10.3126 6.8713 10.3126C5.55438 10.3126 4.43923 9.90045 3.64641 9.12084C2.90473 8.39151 2.4963 7.37201 2.4963 6.25006C2.4963 5.12811 2.90473 4.10862 3.64641 3.37928ZM0.938134 13.5413L0.96618 13.1408C1.13458 11.6052 1.9779 10.4379 3.40942 9.75209C3.7732 10.0671 4.18445 10.3227 4.62798 10.5094C3.93005 11.3307 3.50114 12.5069 3.44391 13.7719C2.84145 13.855 2.3045 14.1797 1.91274 14.6575C1.65268 14.5993 1.41795 14.4597 1.24268 14.259C1.0674 14.0583 0.960716 13.8069 0.938134 13.5413ZM3.74981 18.7501C2.71591 18.7501 1.87481 17.7688 1.87481 16.5626C1.87481 15.3563 2.71591 14.3751 3.74981 14.3751C4.78372 14.3751 5.62481 15.3563 5.62481 16.5626C5.62481 17.7688 4.78372 18.7501 3.74981 18.7501ZM6.87481 18.1251C6.55273 18.124 6.23558 18.0459 5.94981 17.8973C6.14875 17.4806 6.25129 17.0244 6.24981 16.5626C6.24981 15.1337 5.29759 13.9512 4.06966 13.7739C4.12974 12.5551 4.56759 11.4411 5.27067 10.7319C5.79264 10.8716 6.33097 10.9408 6.8713 10.9376C7.41346 10.9408 7.95359 10.8712 8.4772 10.7305C9.18251 11.4396 9.62036 12.5492 9.68009 13.774C8.45212 13.9511 7.49981 15.1337 7.49981 16.5626C7.49834 17.0244 7.60087 17.4806 7.79981 17.8973C7.51405 18.0459 7.1969 18.124 6.87481 18.1251ZM9.99981 18.7501C8.96591 18.7501 8.12481 17.7688 8.12481 16.5626C8.12481 15.3563 8.96591 14.3751 9.99981 14.3751C11.0337 14.3751 11.8748 15.3563 11.8748 16.5626C11.8748 17.7688 11.0337 18.7501 9.99981 18.7501ZM12.4998 16.5626H13.7498C13.8327 16.5626 13.9122 16.5296 13.9708 16.471C14.0294 16.4124 14.0623 16.3329 14.0623 16.2501V14.3751C14.0623 14.2922 14.0294 14.2127 13.9708 14.1541C13.9122 14.0955 13.8327 14.0626 13.7498 14.0626H13.3263C13.3836 13.9014 13.4183 13.733 13.4296 13.5623C13.4306 13.5482 13.4306 13.5341 13.4296 13.52L13.4238 13.4376H14.6873V17.1876H12.4368C12.4786 16.9819 12.4997 16.7725 12.4998 16.5626ZM19.0623 17.1876H15.3123V13.4376H19.0623V17.1876Z" fill="#7F7F7F"/>
<path d="M16.2499 16.5625H18.1249C18.1782 16.5625 18.2306 16.5489 18.2771 16.523C18.3236 16.497 18.3627 16.4596 18.3907 16.4143C18.4187 16.369 18.4347 16.3173 18.4371 16.2641C18.4395 16.2109 18.4282 16.1579 18.4044 16.1103L17.4669 14.2353C17.4409 14.1834 17.401 14.1397 17.3517 14.1092C17.3023 14.0787 17.2454 14.0626 17.1874 14.0626C17.1294 14.0626 17.0725 14.0787 17.0231 14.1092C16.9738 14.1397 16.9339 14.1834 16.9079 14.2353L15.9704 16.1103C15.9466 16.1579 15.9353 16.2109 15.9377 16.2641C15.9401 16.3173 15.9561 16.369 15.9841 16.4143C16.0121 16.4596 16.0512 16.497 16.0977 16.523C16.1443 16.5489 16.1966 16.5625 16.2499 16.5625ZM17.1874 15.0738L17.6193 15.9375H16.7555L17.1874 15.0738Z" fill="#7F7F7F"/>
</svg>
