<svg width="19" height="19" viewBox="0 0 19 19" fill="none" xmlns="http://www.w3.org/2000/svg">
<path d="M7.25573 9.86143L5.35618 11.761C4.91046 12.2068 4.91046 12.9321 5.35618 13.3778C5.57183 13.5935 5.85898 13.7122 6.16494 13.7122C6.47072 13.7119 6.75843 13.593 6.97289 13.3779L7.9181 12.4332C7.91999 12.4314 7.92203 12.4298 7.92392 12.4279C7.92574 12.4261 7.9273 12.4241 7.92905 12.4222L8.87359 11.4782C9.08864 11.2631 9.20709 10.976 9.20709 10.6698C9.20709 10.3636 9.08864 10.0765 8.87359 9.86143C8.65798 9.64582 8.37072 9.52707 8.06464 9.52707C7.7586 9.52707 7.47134 9.64582 7.25573 9.86143ZM6.57905 12.9846C6.46928 13.0947 6.3224 13.1554 6.1655 13.1555C6.16569 13.1555 6.16531 13.1555 6.1655 13.1555C6.00823 13.1555 5.86028 13.0947 5.7498 12.9842C5.5211 12.7555 5.5211 12.3833 5.7498 12.1546L6.50286 11.4015L7.333 12.231L6.57905 12.9846ZM8.48001 10.255C8.70871 10.4838 8.70871 10.8559 8.48004 11.0846L7.72673 11.8375L6.89648 11.0079L7.64935 10.255C7.75983 10.1446 7.90734 10.0838 8.06468 10.0838C8.22202 10.0838 8.36953 10.1446 8.48001 10.255Z" fill="#7F7F7F"/>
<path d="M18.7065 4.45816C18.5868 3.32947 18.0778 2.26484 17.2734 1.46039C16.469 0.656041 15.4044 0.147234 14.2756 0.0276305C13.237 -0.082473 12.1817 0.138699 11.2791 0.651476C11.0958 0.488789 10.8619 0.399689 10.6137 0.399689C10.3452 0.399689 10.0932 0.503818 9.90416 0.692853C9.55158 1.04543 9.51755 1.59869 9.80226 1.9912L8.20173 4.454C7.85309 4.9919 8.11103 5.44486 8.33907 5.71605L2.17676 13.42C1.5177 14.2439 1.40967 15.282 1.84845 16.0746L0.70901 17.2616C0.165618 17.8265 0.237981 18.2715 0.329456 18.4864C0.460229 18.7936 0.785122 19 1.13796 19H13.3038C13.4576 19 13.5821 18.8754 13.5821 18.7217C13.5821 18.568 13.4576 18.4434 13.3038 18.4434H1.13796C1.02771 18.4434 0.890512 18.3833 0.841676 18.2684C0.777551 18.1179 0.875446 17.8916 1.11039 17.6473L2.18633 16.5265C2.19008 16.5302 2.19353 16.5342 2.19732 16.538C2.60593 16.9466 3.14194 17.1512 3.70092 17.1512C4.24973 17.1512 4.82066 16.9538 5.31414 16.5585L8.75418 13.8057C8.87419 13.7097 8.89363 13.5346 8.79759 13.4145C8.70155 13.2945 8.52636 13.2751 8.40639 13.3711L5.93245 15.3508L3.38389 12.8022L7.75126 7.34222L11.3919 10.983L9.59006 12.4246C9.47005 12.5206 9.45061 12.6958 9.54661 12.8158C9.64265 12.9358 9.8178 12.9553 9.93782 12.8593L13.0176 10.3951C13.193 10.543 13.4443 10.7034 13.7461 10.7034C13.9106 10.7034 14.0901 10.6557 14.2801 10.5321L16.7429 8.93225C16.9179 9.05953 17.1252 9.12329 17.3325 9.12329C17.5894 9.12329 17.8464 9.02547 18.0421 8.82983C18.2314 8.64053 18.3354 8.38822 18.3352 8.1194C18.335 7.87114 18.2455 7.63735 18.0825 7.45474C18.5954 6.55227 18.8166 5.49692 18.7065 4.45816ZM5.49508 15.7007L4.96616 16.124C4.18293 16.7513 3.20621 16.7597 2.59086 16.1444C1.9757 15.5292 1.98413 14.5519 2.61142 13.7678L3.03399 13.2395L5.49508 15.7007ZM11.8292 10.633L8.10105 6.90481L8.72957 6.11902L12.6148 10.0044L11.8292 10.633ZM13.9768 10.0653C13.8063 10.1761 13.6325 10.2348 13.2283 9.8307L8.90361 5.50583C8.49998 5.10096 8.5585 4.92707 8.66868 4.75707L10.1976 2.40445L16.3298 8.53674L13.9768 10.0653ZM14.942 5.10549L17.6487 7.80572C17.7323 7.88895 17.7783 8.00054 17.7784 8.11992C17.7786 8.23982 17.7324 8.35215 17.6483 8.43621C17.5644 8.52011 17.4522 8.56631 17.3323 8.56631C17.2125 8.56631 17.1003 8.52011 17.0164 8.43621L10.2981 1.71774C10.1243 1.54325 10.1241 1.26007 10.2977 1.08651C10.3816 1.00261 10.4938 0.956367 10.6137 0.956367C10.7336 0.956367 10.8457 1.00257 10.9296 1.08647L13.9964 4.15327C14.1051 4.26196 14.2813 4.262 14.3901 4.15327C14.4987 4.04457 14.4987 3.86834 14.3901 3.75965L11.6911 1.06064C13.4022 0.160334 15.4906 0.464816 16.8797 1.85401C18.2697 3.24401 18.5741 5.33282 17.6729 7.04353L15.3351 4.71143C15.2263 4.60288 15.0501 4.60307 14.9415 4.71191C14.833 4.82071 14.8332 4.99695 14.942 5.10549Z" fill="#7F7F7F"/>
</svg>
