<svg width="19" height="19" viewBox="0 0 19 19" fill="none" xmlns="http://www.w3.org/2000/svg">
<path d="M8.82672 13.2355C9.17039 12.8918 9.17039 12.3325 8.82665 11.9887L7.35088 10.514C7.18489 10.348 6.96376 10.2566 6.72819 10.2566C6.49258 10.2566 6.27141 10.348 6.10538 10.5141C5.76167 10.8578 5.76167 11.417 6.10538 11.7607L7.58007 13.2355C7.75192 13.4073 7.97766 13.4932 8.20339 13.4932C8.42913 13.4932 8.65487 13.4073 8.82672 13.2355ZM6.49896 11.3672C6.43807 11.3063 6.40456 11.2247 6.40456 11.1374C6.40456 11.0501 6.43807 10.9685 6.49896 10.9076C6.55986 10.8467 6.64124 10.8132 6.72819 10.8132C6.8151 10.8132 6.89651 10.8467 6.95737 10.9076L8.43314 12.3824C8.55983 12.5091 8.55979 12.7152 8.43314 12.8419C8.30645 12.9686 8.10034 12.9686 7.97365 12.8419L6.49896 11.3672Z" fill="#7F7F7F"/>
<path d="M6.90259 13.9126L5.42689 12.438C5.2609 12.2719 5.03973 12.1805 4.80412 12.1805C4.56852 12.1805 4.34734 12.2719 4.18131 12.438C3.83764 12.7817 3.83764 13.3409 4.18131 13.6846L5.65601 15.1594C5.822 15.3254 6.04339 15.4168 6.27934 15.4168C6.51528 15.4168 6.73664 15.3254 6.90266 15.1594C7.24634 14.8157 7.24633 14.2564 6.90259 13.9126ZM6.50908 14.7658C6.44822 14.8267 6.36662 14.8602 6.27937 14.8602C6.19209 14.8602 6.11052 14.8267 6.04963 14.7658L4.57494 13.291C4.44824 13.1643 4.44828 12.9582 4.57494 12.8315C4.63813 12.7683 4.72115 12.7367 4.80412 12.7367C4.88714 12.7367 4.97015 12.7683 5.03335 12.8315L6.50908 14.3063C6.63577 14.433 6.63574 14.6391 6.50908 14.7658Z" fill="#7F7F7F"/>
<path d="M6.33665 16.2705C6.18295 16.2705 6.05889 16.3951 6.05889 16.5488C6.05889 16.7025 6.18402 16.8271 6.33773 16.8271C6.49144 16.8271 6.61605 16.7025 6.61605 16.5488C6.61605 16.3951 6.49144 16.2705 6.33773 16.2705H6.33665Z" fill="#7F7F7F"/>
<path d="M7.55278 15.8192C7.39907 15.8192 7.27501 15.9439 7.27501 16.0976C7.27501 16.2513 7.40015 16.3759 7.55385 16.3759C7.70756 16.3759 7.83217 16.2513 7.83217 16.0976C7.83217 15.9439 7.70756 15.8192 7.55385 15.8192H7.55278Z" fill="#7F7F7F"/>
<path d="M18.8125 0.302854C18.7478 0.221102 18.6532 0.18132 18.5301 0.18299H17.6558C17.4684 0.18299 17.3207 0.242551 17.1897 0.37184L17.1114 0.450066L16.7428 0.081459C16.6341 -0.0272344 16.4579 -0.0272344 16.3492 0.081459C16.2405 0.190152 16.2405 0.366348 16.3492 0.475041L16.7179 0.843723L16.1344 1.42745L15.7656 1.05866C15.6569 0.949967 15.4807 0.949967 15.372 1.05866C15.2633 1.16735 15.2633 1.34355 15.372 1.45224L15.7409 1.82115L15.1578 2.40451L14.7883 2.03571C14.6795 1.92709 14.5033 1.92728 14.3947 2.03608C14.2861 2.14485 14.2863 2.32108 14.3951 2.42967L14.7643 2.7982L10.1234 7.43932C9.90895 6.87095 9.7911 6.02508 10.2637 4.74162C10.3678 4.45818 10.4754 4.16505 10.2858 3.97074C10.1005 3.78082 9.8255 3.8743 9.55931 3.96466C8.05627 4.47677 7.40088 5.06781 6.87927 5.79768C6.78991 5.92273 6.81882 6.09656 6.94388 6.18591C7.06894 6.27524 7.24272 6.24633 7.33212 6.12131C7.80441 5.46046 8.37174 4.9573 9.73859 4.49161C9.74786 4.48846 9.75681 4.48545 9.76549 4.48256C9.75825 4.50312 9.75024 4.52538 9.74137 4.5495C9.27015 5.82914 9.25538 6.88869 9.69862 7.86419L8.22916 9.33368C8.13527 9.42642 8.08336 9.55036 8.08295 9.6827C8.08254 9.81569 8.13405 9.94064 8.22786 10.0345L9.30507 11.1127C9.40167 11.2093 9.52855 11.2576 9.65539 11.2576C9.7823 11.2576 9.90914 11.2093 10.0058 11.1127L11.1336 9.98491C11.252 10.2893 11.2785 10.6586 11.2171 11.1203C11.1556 11.585 11.1849 12.0577 11.8104 12.3666C12.0003 12.4606 12.2572 12.476 12.5293 12.4922C12.6765 12.501 12.936 12.5164 13.0406 12.5567C13.0192 12.6164 12.9447 12.7606 12.6857 13.0366C12.2525 13.4991 11.7769 13.6561 10.8746 13.8332C9.8082 14.0423 9.45043 14.6879 9.22273 15.3542C9.10042 15.7115 8.91045 16.2358 8.69978 16.7043C8.28854 17.6231 7.55403 18.2419 6.68463 18.4021C6.53727 18.4293 6.38965 18.4427 6.24233 18.4427C5.52415 18.4427 4.8158 18.1233 4.21003 17.5174L1.69609 15.0034C0.924998 14.2323 0.588972 13.4186 0.697406 12.585C0.834005 11.5347 1.65446 10.7131 2.31545 10.3287C2.70332 10.1033 3.10618 10.0224 3.53264 9.93682C4.05068 9.83284 4.58632 9.7253 5.08722 9.34619C5.73489 8.85415 6.16273 8.09556 6.54017 7.42633C6.57022 7.37304 6.59987 7.32042 6.62926 7.26865C6.70515 7.13502 6.65832 6.96514 6.52465 6.88925C6.39099 6.81336 6.2211 6.86019 6.14525 6.99386C6.1156 7.04607 6.08565 7.09918 6.05533 7.15291C5.70439 7.7752 5.30661 8.48054 4.7509 8.90269C4.35194 9.20465 3.90076 9.29524 3.42309 9.39113C2.97095 9.4819 2.50341 9.57578 2.03572 9.84753C1.22844 10.317 0.307943 11.2639 0.145441 12.5133C0.0547828 13.2103 0.18192 14.2765 1.30251 15.3971L3.81645 17.9111C4.52958 18.6243 5.373 19 6.23739 19C6.41949 19 6.60258 18.9833 6.7855 18.9496C7.83773 18.7556 8.72064 18.0202 9.20762 16.9322C9.42687 16.4446 9.62325 15.9029 9.74938 15.5343C9.96128 14.9144 10.2308 14.5267 10.9817 14.3794C11.9853 14.1825 12.557 13.9882 13.0918 13.4173C13.4072 13.0811 13.7109 12.6902 13.5715 12.3401C13.4316 11.9884 12.9897 11.9621 12.5625 11.9366C12.3769 11.9255 12.146 11.9117 12.057 11.8677C11.7723 11.7271 11.7157 11.5948 11.7689 11.1936C11.8562 10.537 11.7851 10.0021 11.5522 9.56636L16.1965 4.92193H17.248C17.416 4.92193 17.7205 4.91755 17.8238 4.52779L18.1425 3.32653C18.1819 3.17794 18.0935 3.02557 17.9449 2.98616C17.7963 2.94671 17.6439 3.03525 17.6045 3.18377L17.2911 4.36507C17.2749 4.36529 17.2575 4.36522 17.2424 4.36529H16.1965L15.0905 3.25928L16.3257 2.02358C16.3277 2.02172 16.3297 2.02009 16.3317 2.0182C16.3336 2.01627 16.3353 2.01415 16.3371 2.01215L17.2988 1.05005C17.3021 1.04701 17.3056 1.04422 17.3089 1.041C17.3121 1.03773 17.315 1.03424 17.318 1.03083L17.5821 0.766684C17.6031 0.745865 17.6095 0.739594 17.6559 0.739594H18.2518L17.9286 1.9583C17.8892 2.10689 17.9777 2.25922 18.1263 2.29863C18.2749 2.33797 18.4272 2.24954 18.4666 2.10095L18.857 0.628859C18.8742 0.56325 18.9104 0.426688 18.8125 0.302854ZM9.65539 10.6759L8.6652 9.68474L9.34192 9.00801L10.3326 9.99872L9.65539 10.6759ZM10.7262 9.60514L9.73551 8.61443L10.4132 7.93666L11.4039 8.92737L10.7262 9.60514ZM11.7975 8.53379L10.8068 7.54308L11.4841 6.8658L12.4751 7.8561L11.7975 8.53379ZM12.8688 7.46251L11.8777 6.47218L12.5553 5.79449L13.546 6.78519L12.8688 7.46251ZM13.9396 6.39165L12.9489 5.40094L13.6261 4.72373L14.6168 5.71444L13.9396 6.39165ZM15.6876 4.64357L15.0104 5.32082L14.0197 4.33011L14.6969 3.6529L15.6876 4.64357Z" fill="#7F7F7F"/>
<path d="M16.4168 2.7212C16.2631 2.7212 16.1395 2.84581 16.1395 2.99952C16.1395 3.15323 16.2652 3.27784 16.4189 3.27784C16.5726 3.27784 16.6972 3.15323 16.6972 2.99952C16.6972 2.84581 16.5726 2.7212 16.4189 2.7212H16.4168Z" fill="#7F7F7F"/>
<path d="M17.0352 1.92907H17.033C16.8793 1.92907 16.7558 2.05368 16.7558 2.20739C16.7558 2.3611 16.8814 2.48571 17.0352 2.48571C17.1889 2.48571 17.3135 2.3611 17.3135 2.20739C17.3135 2.05368 17.1889 1.92907 17.0352 1.92907Z" fill="#7F7F7F"/>
</svg>
