<svg width="25" height="19" viewBox="0 0 25 19" fill="none" xmlns="http://www.w3.org/2000/svg">
<path d="M6.95822 10.7313C8.75201 11.2921 10.6205 11.5777 12.4999 11.5784C14.3793 11.5777 16.2478 11.2921 18.0416 10.7313C18.1837 10.6871 18.2915 10.5704 18.3243 10.4252C18.3571 10.2799 18.3099 10.1283 18.2005 10.0272C18.0912 9.92624 17.9362 9.89125 17.7941 9.93546C14.348 11.0146 10.6543 11.0146 7.20822 9.93546C6.98845 9.86712 6.75489 9.98986 6.68655 10.2096C6.6182 10.4294 6.74095 10.663 6.96071 10.7313H6.95822Z" fill="#7F7F7F"/>
<path d="M7.01914 8.24506C8.83258 8.5255 10.665 8.66564 12.5 8.66423C14.335 8.66564 16.1673 8.5255 17.9808 8.24506C18.1293 8.22371 18.2549 8.12416 18.3095 7.98444C18.3642 7.84471 18.3395 7.68639 18.2449 7.56993C18.1503 7.45347 18.0004 7.39686 17.8525 7.42172C14.305 7.96756 10.6949 7.96756 7.14747 7.42172C6.9216 7.38925 6.71163 7.54451 6.67648 7.76998C6.64134 7.99545 6.7941 8.20725 7.01914 8.24506Z" fill="#7F7F7F"/>
<path d="M17.7369 12.8751C14.4321 14.4897 10.5674 14.4897 7.26269 12.8751C7.12725 12.799 6.96073 12.8046 6.83069 12.8896C6.70066 12.9745 6.62869 13.1248 6.644 13.2794C6.65931 13.434 6.75935 13.5672 6.90352 13.6251C10.4349 15.3501 14.5646 15.3501 18.096 13.6251C18.2402 13.5672 18.3402 13.434 18.3555 13.2794C18.3709 13.1248 18.2989 12.9745 18.1689 12.8896C18.0388 12.8046 17.8723 12.799 17.7369 12.8751Z" fill="#7F7F7F"/>
<path d="M23.3332 4.50004H21.1732C20.9973 4.0024 20.5277 3.6689 19.9999 3.66671H19.3707C17.8233 3.6465 16.3673 2.93023 15.407 1.71671C14.6955 0.841934 13.6279 0.334106 12.5003 0.334106C11.3727 0.334106 10.3051 0.841934 9.59363 1.71671C8.63305 2.9304 7.17674 3.64669 5.62904 3.66671H4.99988C4.47205 3.6689 4.00248 4.0024 3.82654 4.50004H1.66654C0.74607 4.50004 -0.00012207 5.24623 -0.00012207 6.16671V8.25004C-0.00012207 10.44 1.96071 12.4555 4.34071 12.7838C5.51574 15.9955 8.41263 18.2612 11.8128 18.628C12.2697 18.6797 12.7309 18.6797 13.1878 18.628C16.5876 18.2609 19.4841 15.9952 20.659 12.7838C23.039 12.4555 24.9999 10.44 24.9999 8.25004V6.16671C24.9999 5.24623 24.2537 4.50004 23.3332 4.50004ZM4.99988 4.50004H5.62904C7.42776 4.47999 9.12166 3.65041 10.2403 2.24171C10.7934 1.56119 11.6236 1.16609 12.5005 1.16609C13.3774 1.16609 14.2077 1.56119 14.7607 2.24171C15.8789 3.65026 17.5724 4.47985 19.3707 4.50004H19.9999C20.23 4.50004 20.4165 4.68659 20.4165 4.91671V5.33338L19.1665 5.33129H19.1582C17.1764 5.27799 15.3236 4.33629 14.1124 2.76671C13.7171 2.28089 13.1238 1.9992 12.4975 1.99992C11.8712 2.00065 11.2786 2.28373 10.8845 2.77046C9.67379 4.33781 7.82258 5.2778 5.84279 5.33046H5.83321L4.58321 5.33338V4.91671C4.58321 4.68659 4.76976 4.50004 4.99988 4.50004ZM0.833211 8.25004V6.16671C0.833211 5.70647 1.20631 5.33338 1.66654 5.33338H3.74988V9.50004C3.7512 10.3049 3.85552 11.1063 4.06029 11.8846C2.40488 11.4859 0.833211 10.0717 0.833211 8.25004ZM13.1007 17.7992C12.7014 17.8442 12.2983 17.8442 11.899 17.7992C8.73312 17.4536 6.0582 15.2963 5.04988 12.2755V12.2713C4.74239 11.3796 4.5847 10.4432 4.58321 9.50004V6.16671L5.83321 6.16463C8.06877 6.12105 10.1641 5.06656 11.5311 3.29713C11.7672 3.00497 12.1224 2.8349 12.498 2.83425C12.8736 2.83361 13.2295 3.00245 13.4665 3.29379C14.8354 5.05739 16.9251 6.11162 19.157 6.16463H19.1665L20.4165 6.16671V9.50004C20.4154 10.4429 20.2581 11.379 19.9511 12.2705V12.2746C18.9429 15.2962 16.2673 17.454 13.1007 17.7992ZM24.1665 8.25004C24.1665 10.0717 22.5949 11.4859 20.9395 11.8855C21.1443 11.1068 21.2486 10.3052 21.2499 9.50004V5.33338H23.3332C23.7934 5.33338 24.1665 5.70647 24.1665 6.16671V8.25004Z" fill="#7F7F7F"/>
</svg>
