<svg width="25" height="19" viewBox="0 0 25 19" fill="none" xmlns="http://www.w3.org/2000/svg">
<path d="M8.55865 8.70464C7.72237 8.70464 7.042 9.38501 7.042 10.2213C7.042 11.0576 7.72237 11.738 8.55865 11.738C9.39493 11.738 10.0753 11.0576 10.0753 10.2213C10.0753 9.38501 9.39493 8.70464 8.55865 8.70464ZM8.55865 11.0042C8.12701 11.0042 7.77579 10.653 7.77579 10.2213C7.77579 9.78969 8.12696 9.43852 8.55865 9.43852C8.99034 9.43852 9.34151 9.78969 9.34151 10.2213C9.34151 10.653 8.99029 11.0042 8.55865 11.0042Z" fill="#7F7F7F"/>
<path d="M14.9246 10.2213C14.9246 11.0576 15.605 11.738 16.4412 11.738C17.2775 11.738 17.9579 11.0576 17.9579 10.2213C17.9579 9.38501 17.2775 8.70464 16.4412 8.70464C15.605 8.70464 14.9246 9.38501 14.9246 10.2213ZM16.4412 9.43847C16.8729 9.43847 17.2241 9.78964 17.2241 10.2213C17.2241 10.653 16.8729 11.0041 16.4412 11.0041C16.0096 11.0041 15.6584 10.653 15.6584 10.2213C15.6584 9.78964 16.0096 9.43847 16.4412 9.43847Z" fill="#7F7F7F"/>
<path d="M24.9579 15.3823L23.3038 5.53198C23.3027 5.52568 23.3015 5.51943 23.3002 5.51323C23.0673 3.87988 21.9682 2.54355 20.5099 1.94409V1.26309C20.5099 0.656152 20.0162 0.162354 19.4092 0.162354H18.0255C17.4186 0.162354 16.9248 0.656152 16.9248 1.26309V1.99971C16.4367 2.2189 15.9866 2.525 15.594 2.91226H9.40553C9.01285 2.525 8.5628 2.2189 8.07467 1.99971V1.26309C8.07467 0.656152 7.58092 0.162354 6.97394 0.162354H5.59029C4.98336 0.162354 4.48956 0.656152 4.48956 1.26309V1.94414C3.03141 2.54355 1.93238 3.87974 1.69942 5.51289C1.69801 5.51919 1.69679 5.52554 1.69571 5.53198L1.163 8.70415C1.12945 8.904 1.26422 9.09321 1.46407 9.12676C1.66393 9.16016 1.85314 9.02554 1.88668 8.82568L2.41427 5.68369C2.41764 5.67031 2.42032 5.65664 2.42218 5.64277C2.67755 3.75806 4.30611 2.33682 6.21051 2.33682C7.22223 2.33682 8.16588 2.72461 8.88453 3.43042V3.93154C8.88453 4.67334 9.48805 5.27686 10.2298 5.27686H11.7659C11.9686 5.27686 12.1328 5.1126 12.1328 4.90996C12.1328 4.70728 11.9686 4.54307 11.7659 4.54307H10.2298C9.89264 4.54307 9.61832 4.26875 9.61832 3.93154V3.64595H15.3811V3.93154C15.3811 4.26875 15.1068 4.54307 14.7696 4.54307H13.2335C13.0309 4.54307 12.8666 4.70732 12.8666 4.90996C12.8666 5.1126 13.0309 5.27686 13.2335 5.27686H14.7696C15.5114 5.27686 16.1149 4.67334 16.1149 3.93154V3.43042C16.8336 2.72456 17.7772 2.33682 18.7889 2.33682C20.6933 2.33682 22.3219 3.75806 22.5773 5.64277C22.5791 5.65649 22.5817 5.66997 22.5851 5.6832L24.2342 15.5038C24.4072 16.5343 23.8541 17.5337 22.889 17.9343C22.3113 18.1742 21.6795 18.1636 21.1101 17.9047C20.5406 17.6458 20.1174 17.1767 19.9183 16.5837L19.5805 15.578C19.516 15.3859 19.308 15.2823 19.1159 15.347C18.9238 15.4115 18.8204 15.6195 18.8849 15.8116L19.2226 16.8173C19.4834 17.5938 20.0607 18.2337 20.8064 18.5727C21.1946 18.7492 21.6141 18.8376 22.034 18.8376C22.4207 18.8376 22.8076 18.7626 23.1703 18.612C24.4528 18.0798 25.1879 16.7517 24.9579 15.3823ZM5.2234 1.7127V1.26309C5.2234 1.06074 5.388 0.896191 5.59029 0.896191H6.97394C7.17628 0.896191 7.34083 1.06079 7.34083 1.26309V1.74355C6.97648 1.65117 6.59776 1.60308 6.21056 1.60308C5.87272 1.60308 5.54239 1.64136 5.2234 1.7127ZM17.6587 1.74355V1.26309C17.6587 1.06074 17.8233 0.896191 18.0256 0.896191H19.4092C19.6116 0.896191 19.7761 1.06079 19.7761 1.26309V1.7127C19.4571 1.64136 19.1268 1.60308 18.789 1.60308C18.4018 1.60308 18.0231 1.65117 17.6587 1.74355Z" fill="#7F7F7F"/>
<path d="M19.1131 14.186L18.461 12.2443C18.4238 12.1334 18.336 12.047 18.2246 12.0115C18.1132 11.976 17.9916 11.9957 17.897 12.0646C17.4986 12.355 17.0272 12.5084 16.5336 12.5084C15.8979 12.5084 15.3047 12.2557 14.8631 11.7967C14.794 11.7248 14.6985 11.6841 14.5987 11.6841H10.401C10.3013 11.6841 10.2058 11.7248 10.1366 11.7967C9.69508 12.2557 9.10182 12.5084 8.46618 12.5084C7.97257 12.5084 7.50104 12.3549 7.1027 12.0646C7.00827 11.9958 6.88664 11.976 6.77521 12.0115C6.66379 12.047 6.57599 12.1334 6.53879 12.2443L5.08136 16.5838C4.88224 17.1768 4.459 17.6458 3.88957 17.9047C3.32008 18.1636 2.68835 18.1741 2.11061 17.9344C1.14552 17.5338 0.592399 16.5343 0.765445 15.5039L1.64362 10.2744C1.67716 10.0745 1.5424 9.8853 1.34255 9.85176C1.14245 9.81851 0.953483 9.95298 0.919938 10.1528L0.0417639 15.3823C-0.188168 16.7517 0.546891 18.0798 1.82936 18.6121C2.19215 18.7627 2.57897 18.8378 2.96569 18.8377C3.38547 18.8377 3.80514 18.7493 4.19333 18.5728C4.93903 18.2338 5.51628 17.5939 5.77707 16.8174L7.08805 12.9139C7.51271 13.1298 7.98141 13.2423 8.46628 13.2423C9.24977 13.2423 9.98424 12.9508 10.5517 12.418H14.4483C15.0157 12.9507 15.7502 13.2423 16.5337 13.2423C17.0185 13.2423 17.4872 13.1298 17.9119 12.9139L18.4175 14.4196C18.482 14.6117 18.69 14.7153 18.8822 14.6506C19.0742 14.5861 19.1776 14.3781 19.1131 14.186Z" fill="#7F7F7F"/>
<path d="M6.24015 3.88327C5.60861 3.88327 5.09479 4.39709 5.09479 5.02864V5.11169H5.01173C4.38019 5.11169 3.86637 5.62551 3.86637 6.25705C3.86637 6.8886 4.38014 7.40241 5.01173 7.40241H5.09479V7.48547C5.09479 8.11701 5.60861 8.63083 6.24015 8.63083C6.87169 8.63083 7.38551 8.11701 7.38551 7.48547V7.40241H7.46857C8.10011 7.40241 8.61393 6.8886 8.61393 6.25705C8.61393 5.62551 8.10016 5.11169 7.46857 5.11169H7.38551V5.02864C7.38546 4.39709 6.87169 3.88327 6.24015 3.88327ZM7.46857 5.84553C7.69547 5.84553 7.88009 6.03015 7.88009 6.25705C7.88009 6.48396 7.69547 6.66858 7.46857 6.66858H7.01857C6.81593 6.66858 6.65167 6.83283 6.65167 7.03547V7.48547C6.65167 7.71242 6.46705 7.89699 6.24015 7.89699C6.01325 7.89699 5.82858 7.71238 5.82858 7.48547V7.03547C5.82858 6.83283 5.66432 6.66858 5.46168 6.66858H5.01173C4.78483 6.66858 4.60021 6.48396 4.60021 6.25705C4.60021 6.0301 4.78483 5.84553 5.01173 5.84553H5.46168C5.66432 5.84553 5.82858 5.68127 5.82858 5.47864V5.02864C5.82858 4.80168 6.0132 4.61711 6.24015 4.61711C6.46705 4.61711 6.65167 4.80173 6.65167 5.02864V5.47864C6.65167 5.68127 6.81593 5.84553 7.01857 5.84553H7.46857Z" fill="#7F7F7F"/>
<path d="M19.0108 3.38216C18.42 3.38216 17.9394 3.86282 17.9394 4.45364C17.9394 5.04446 18.42 5.52512 19.0108 5.52512C19.6017 5.52512 20.0823 5.04446 20.0823 4.45364C20.0823 3.86282 19.6017 3.38216 19.0108 3.38216ZM19.0108 4.79134C18.8247 4.79134 18.6732 4.63982 18.6732 4.45369C18.6732 4.26756 18.8247 4.11604 19.0108 4.11604C19.197 4.11604 19.3485 4.26756 19.3485 4.45369C19.3485 4.63982 19.197 4.79134 19.0108 4.79134Z" fill="#7F7F7F"/>
<path d="M19.0108 6.98892C18.42 6.98892 17.9394 7.46958 17.9394 8.0604C17.9394 8.65117 18.42 9.13184 19.0108 9.13184C19.6017 9.13184 20.0823 8.65117 20.0823 8.06035C20.0823 7.46958 19.6017 6.98892 19.0108 6.98892ZM19.0108 8.39805C18.8247 8.39805 18.6732 8.24653 18.6732 8.0604C18.6732 7.87422 18.8247 7.72275 19.0108 7.72275C19.197 7.72275 19.3485 7.87427 19.3485 8.0604C19.3485 8.24653 19.197 8.39805 19.0108 8.39805Z" fill="#7F7F7F"/>
<path d="M21.8858 6.25704C21.8858 5.66622 21.4052 5.18555 20.8143 5.18555C20.2235 5.18555 19.7428 5.66622 19.7428 6.25704C19.7428 6.84786 20.2235 7.32852 20.8143 7.32852C21.4052 7.32852 21.8858 6.84786 21.8858 6.25704ZM20.4767 6.25704C20.4767 6.07086 20.6282 5.91939 20.8143 5.91939C21.0005 5.91939 21.152 6.07091 21.152 6.25704C21.152 6.44317 21.0005 6.59469 20.8143 6.59469C20.6282 6.59469 20.4767 6.44322 20.4767 6.25704Z" fill="#7F7F7F"/>
<path d="M16.1361 6.25704C16.1361 6.84786 16.6167 7.32852 17.2076 7.32852C17.7984 7.32852 18.279 6.84786 18.279 6.25704C18.279 5.66622 17.7983 5.18555 17.2076 5.18555C16.6167 5.18555 16.1361 5.66622 16.1361 6.25704ZM17.5452 6.25704C17.5452 6.44322 17.3937 6.59469 17.2076 6.59469C17.0214 6.59469 16.8699 6.44317 16.8699 6.25704C16.8699 6.07091 17.0214 5.91939 17.2076 5.91939C17.3937 5.91934 17.5452 6.07086 17.5452 6.25704Z" fill="#7F7F7F"/>
<path d="M11.4164 7.67783C11.619 7.67783 11.7833 7.51357 11.7833 7.31094C11.7833 7.1083 11.619 6.94404 11.4164 6.94404H10.3182C10.1156 6.94404 9.95131 7.1083 9.95131 7.31094C9.95131 7.51357 10.1156 7.67783 10.3182 7.67783H11.4164Z" fill="#7F7F7F"/>
<path d="M14.6814 6.94404H13.5832C13.3806 6.94404 13.2163 7.1083 13.2163 7.31094C13.2163 7.51357 13.3806 7.67783 13.5832 7.67783H14.6814C14.8841 7.67783 15.0483 7.51357 15.0483 7.31094C15.0483 7.10825 14.8841 6.94404 14.6814 6.94404Z" fill="#7F7F7F"/>
</svg>
