<?xml version="1.0" encoding="utf-8"?>
<!-- Generator: Adobe Illustrator 22.1.0, SVG Export Plug-In . SVG Version: 6.00 Build 0)  -->
<svg version="1.1" id="Layer_1" xmlns="http://www.w3.org/2000/svg" xmlns:xlink="http://www.w3.org/1999/xlink" x="0px" y="0px"
	 viewBox="0 0 134 134" style="enable-background:new 0 0 134 134;" xml:space="preserve">
<style type="text/css">
	.st0{fill:none;stroke:#000000;stroke-miterlimit:10;}
</style>
<circle class="st0" cx="67" cy="67" r="66"/>
<g>
	<path d="M45.9,62.3h-3.5l-0.6-4h-4.3l-0.6,4h-3.2L37.2,40h5.1L45.9,62.3z M38,55.3h3.3L39.6,44L38,55.3z"/>
	<path d="M55,55.7L57.4,40h4.9v22.3H59v-16l-2.4,16h-3.3l-2.5-15.7v15.7h-3V40h4.8L55,55.7z"/>
	<path d="M75.2,45.1v0.8c0,2.2-0.6,3.8-2.2,4.5c1.9,0.8,2.5,2.4,2.5,4.8v1.7c0,3.5-1.7,5.2-5.2,5.2h-5.6V39.8h5.2
		C73.6,40,75.2,41.7,75.2,45.1z M68.2,43.2v5.9h1.4c1.3,0,2.1-0.6,2.1-2.4v-1.3c0-1.6-0.5-2.2-1.7-2.2H68.2z M68.2,52.2V59h2.1
		c1.1,0,1.7-0.5,1.7-2.2v-1.9c0-2.1-0.6-2.7-2.2-2.7C69.8,52.2,68.2,52.2,68.2,52.2z"/>
	<path d="M81.1,49.4h4.8v3.2h-4.8v6.5h6v3.2h-9.5V40h9.5v3.2h-6V49.4z"/>
	<path d="M96.7,62.3c-0.2-0.6-0.3-1-0.3-2.7V56c0-2.1-0.6-2.9-2.2-2.9h-1.3v9.1h-3.5V40h5.2c3.7,0,5.2,1.7,5.2,5.1v1.7
		c0,2.2-0.8,3.8-2.2,4.5c1.7,0.8,2.4,2.4,2.4,4.8v3.5c0,1.1,0,1.9,0.3,2.7H96.7z M92.9,43.2V50h1.4c1.3,0,2.1-0.6,2.1-2.4v-2.2
		c0-1.6-0.5-2.2-1.7-2.2C94.7,43.2,92.9,43.2,92.9,43.2z"/>
	<path d="M38,71.8h3.5v19.1h5.7v3.2H38V71.8z"/>
	<path d="M60.1,94.1h-3.5l-0.6-4h-4.3l-0.5,4H48l3.5-22.3h5.1L60.1,94.1z M52.2,87.1h3.3l-1.7-11.3L52.2,87.1z"/>
	<path d="M67.1,81.7h4.8v7c0,3.5-1.7,5.6-5.2,5.6s-5.2-2.1-5.2-5.6V77c0-3.5,1.7-5.6,5.2-5.6s5.2,2.1,5.2,5.6v2.2h-3.2v-2.4
		c0-1.6-0.6-2.2-1.7-2.2s-1.7,0.6-1.7,2.2V89c0,1.6,0.6,2.2,1.7,2.2s1.7-0.6,1.7-2.2v-4.1h-1.6C67.1,84.9,67.1,81.7,67.1,81.7z"/>
	<path d="M77.8,81.2h4.8v3.2h-4.8v6.5h6V94h-9.5V71.8h9.5V75h-6V81.2z"/>
	<path d="M93.2,94.1c-0.2-0.6-0.3-1-0.3-2.7v-3.5c0-2.1-0.6-2.9-2.2-2.9h-1.3v9.1h-3.5V71.8h5.2c3.7,0,5.2,1.7,5.2,5.1v1.7
		c0,2.2-0.8,3.8-2.2,4.5c1.7,0.8,2.4,2.4,2.4,4.8v3.5c0,1.1,0,1.9,0.3,2.7H93.2z M89.4,75v6.8h1.4c1.3,0,2.1-0.6,2.1-2.4v-2.2
		c0-1.6-0.5-2.2-1.7-2.2C91.1,75,89.4,75,89.4,75z"/>
</g>
</svg>
