<?xml version="1.0" encoding="utf-8"?>
<!-- Generator: Adobe Illustrator 22.1.0, SVG Export Plug-In . SVG Version: 6.00 Build 0)  -->
<svg version="1.1" id="Layer_1" xmlns="http://www.w3.org/2000/svg" xmlns:xlink="http://www.w3.org/1999/xlink" x="0px" y="0px"
	 viewBox="0 0 134 134" style="enable-background:new 0 0 134 134;" xml:space="preserve">
<style type="text/css">
	.st0{fill:none;stroke:#000000;stroke-miterlimit:10;}
</style>
<circle class="st0" cx="67" cy="67" r="66"/>
<g>
	<path d="M30.7,62.2h-3.5l-0.6-3.9h-4.2l-0.6,3.9h-3.2l3.6-22h5L30.7,62.2z M22.8,55.4h3.3l-1.7-11.1L22.8,55.4z"/>
	<path d="M39.5,56l2.4-15.8h4.9v22h-3.3V46.5l-2.3,15.8h-3.3l-2.6-15.5v15.5h-2.9V40.2h4.7L39.5,56z"/>
	<path d="M52.7,49.7h4.9v3.2h-4.9v6.2h5.9v3.2h-9.4V40.2h9.4v3.2h-5.9C52.7,43.4,52.7,49.7,52.7,49.7z"/>
	<path d="M68,62.2c-0.1-0.6-0.1-0.9-0.1-2.7V56c0-2.1-0.6-2.7-2.3-2.7h-1.2v9h-3.3v-22h5.3c3.5,0,5,1.7,5,5V47
		c0,2.3-0.6,3.8-2.3,4.4c1.7,0.6,2.3,2.3,2.3,4.6v3.3c0,1.1,0,1.8,0.5,2.7h-3.5v0.3L68,62.2L68,62.2z M64.2,43.4v6.7h1.2
		c1.2,0,2.1-0.6,2.1-2.3v-2.1c0-1.7-0.6-2.3-1.7-2.3C65.8,43.4,64.2,43.4,64.2,43.4z"/>
	<path d="M73.5,40.2H77v22h-3.5V40.2z"/>
	<path d="M89.4,54V57c0,3.5-1.7,5.5-5.3,5.5c-3.5,0-5.3-2.1-5.3-5.5V45.5c0-3.5,1.7-5.5,5.3-5.5c3.5,0,5.3,2.1,5.3,5.5v2.1h-3.2
		v-2.3c0-1.7-0.6-2.1-1.8-2.1c-1.1,0-1.8,0.6-1.8,2.1v12c0,1.7,0.6,2.1,1.8,2.1c1.1,0,1.8-0.6,1.8-2.1V54H89.4z"/>
	<path d="M102.8,62.2h-3.5l-0.6-3.9h-4.2l-0.6,3.9h-3.2l3.6-22h5L102.8,62.2z M94.9,55.4h3.3l-1.7-11.1L94.9,55.4z"/>
	<path d="M107.5,46.4v15.9h-3.2V40.2h4.4l3.5,13.2V40.2h3.2v22h-3.5L107.5,46.4z"/>
	<path d="M38.7,71.6h3.5v18.8h5.6v3.2h-9.3C38.7,93.6,38.7,71.6,38.7,71.6z"/>
	<path d="M60.4,93.6h-3.5l-0.6-3.9h-4.2l-0.6,3.9h-2.9l3.3-22h5L60.4,93.6z M52.7,86.8H56l-1.7-11.1L52.7,86.8z"/>
	<path d="M67.4,81.6h4.9v7c0,3.5-1.7,5.5-5.3,5.5c-3.5,0-5.3-2.1-5.3-5.5V77.1c0-3.5,1.7-5.5,5.3-5.5c3.5,0,5.3,2.1,5.3,5.5v2.1
		h-3.4v-2.3c0-1.5-0.6-2.1-1.8-2.1c-1.1,0-1.8,0.6-1.8,2.1v12c0,1.7,0.6,2.1,1.8,2.1c1.1,0,1.8-0.6,1.8-2.1v-3.9h-1.5V81.6z"/>
	<path d="M77.9,81.1h4.9v3h-4.9v6.2h5.9v3.2h-9.4V71.6h9.4v3.2h-5.9V81.1z"/>
	<path d="M93.2,93.6C93,93.1,93,92.8,93,90.9v-3.3c0-2.1-0.6-2.7-2.3-2.7h-1.2v9h-3.3V71.6h5.3c3.5,0,5,1.7,5,5v1.7
		c0,2.3-0.6,3.8-2.3,4.4c1.7,0.6,2.3,2.3,2.3,4.6v3.3c0,1.1,0,1.8,0.5,2.7h-3.8V93.6z M89.4,74.8v6.7h1.2c1.2,0,2.1-0.6,2.1-2.3
		v-2.1c0-1.5-0.6-2.3-1.7-2.3C91.1,74.8,89.4,74.8,89.4,74.8z"/>
</g>
</svg>
