<?xml version="1.0" encoding="utf-8"?>
<!-- Generator: Adobe Illustrator 22.1.0, SVG Export Plug-In . SVG Version: 6.00 Build 0)  -->
<svg version="1.1" id="Layer_1" xmlns="http://www.w3.org/2000/svg" xmlns:xlink="http://www.w3.org/1999/xlink" x="0px" y="0px"
	 viewBox="0 0 134 134" style="enable-background:new 0 0 134 134;" xml:space="preserve">
<style type="text/css">
	.st0{fill:none;stroke:#000000;stroke-miterlimit:10;}
</style>
<circle class="st0" cx="67" cy="67" r="66"/>
<g>
	<path d="M35.7,40.5v1.1c0,2.8-0.8,4.7-2.8,5.5c2.2,0.8,3,3,3,5.8V55c0,4.1-2.2,6.3-6.3,6.3H23V34.5h6.3
		C34,34.5,35.7,36.4,35.7,40.5z M27.4,38.3v7.2h1.7c1.7,0,2.5-0.8,2.5-2.8v-1.4c0-1.9-0.5-2.8-2.2-2.8h-1.9v-0.2H27.4z M27.4,49.3
		v8.3h2.5c1.4,0,2.2-0.5,2.2-2.8v-2.2c0-2.5-0.8-3.3-2.8-3.3H27.4z"/>
	<path d="M52.5,61.4h-4.1l-0.9-4.9h-5.2l-0.8,4.9h-3.8l4.4-27h6.3L52.5,61.4z M42.8,52.9h4.1L45,39.1L42.8,52.9z"/>
	<path d="M63.2,61.4c-0.3-0.8-0.3-1.1-0.3-3.3V54c0-2.5-0.8-3.3-2.8-3.3h-1.4v11h-4.1v-27h6.3c4.4,0,6.3,1.9,6.3,6.3v2.2
		c0,2.8-0.8,4.7-2.8,5.5c2.2,0.8,2.8,3,2.8,5.8v3.6c0,1.4,0,2.2,0.6,3.3H63.2z M58.8,38.3v8.2h1.7c1.7,0,2.5-0.8,2.5-2.8v-2.8
		c0-1.9-0.6-2.8-2.2-2.8C60.7,38.3,58.8,38.3,58.8,38.3z"/>
	<path d="M69.8,34.5h4.1v23.1h6.9v3.9H69.5v-27H69.8z"/>
	<path d="M87.1,45.7h5.8v3.8h-5.8v8h7.4v3.9H83V34.5h11.6v3.8h-7.4L87.1,45.7L87.1,45.7z"/>
	<path d="M101.1,52.3L95.9,34h4.4l3.3,12.4l3.3-12.4h4.1l-5.2,18.2V61h-4.1v-8.8H101.1z"/>
	<path d="M47.2,85.6l-1.7,14.3H40l-3-26.9h4.1l2.2,21.2l1.9-21.2h4.1l2.2,21.4l2.2-21.4h3.6l-3,26.9h-5.5L47.2,85.6z"/>
	<path d="M59.6,72.9h4.1v27h-4.1V72.9z"/>
	<path d="M70.6,80.4v19.5h-3.8V72.9H72l4.4,16.2V72.9h3.8v26.9h-4.4L70.6,80.4z"/>
	<path d="M87.6,84.1h5.8v3.9h-5.8v8H95v3.8H83.5V72.9h11.6v3.8h-7.4L87.6,84.1L87.6,84.1z"/>
</g>
</svg>
