<?xml version="1.0" encoding="utf-8"?>
<!-- Generator: Adobe Illustrator 22.1.0, SVG Export Plug-In . SVG Version: 6.00 Build 0)  -->
<svg version="1.1" id="Layer_1" xmlns="http://www.w3.org/2000/svg" xmlns:xlink="http://www.w3.org/1999/xlink" x="0px" y="0px"
	 viewBox="0 0 134 134" style="enable-background:new 0 0 134 134;" xml:space="preserve">
<style type="text/css">
	.st0{fill:none;stroke:#000000;stroke-miterlimit:10;}
</style>
<circle class="st0" cx="67" cy="67" r="66"/>
<g>
	<path d="M40.3,46.3v0.7c0,2.2-0.7,3.5-2,4.3c1.7,0.7,2.4,2.2,2.4,4.5v1.7c0,3.2-1.7,5-5,5h-5.2V41.7h5
		C38.8,41.7,40.3,43.2,40.3,46.3z M33.8,44.7v5.6h1.3c1.3,0,2-0.6,2-2.2v-1.2c0-1.5-0.6-2.2-1.7-2.2C35.5,44.7,33.8,44.7,33.8,44.7z
		 M33.8,53.1v6.3h1.9c1.1,0,1.7-0.6,1.7-2v-1.9c0-1.9-0.6-2.6-2-2.6h-1.5L33.8,53.1L33.8,53.1z"/>
	<path d="M45.9,50.4h4.5v3h-4.5v6.1h5.6v3h-8.9V41.7h8.9v3h-5.6V50.4z"/>
	<path d="M53.5,41.7h3.3v17.8h5.4v3h-8.7V41.7z"/>
	<path d="M68.6,50.8h4.6v6.7c0,3.3-1.7,5.2-4.8,5.2c-3.2,0-4.8-1.9-4.8-5.2V46.8c0-3.3,1.7-5.2,4.8-5.2c3.2,0,4.8,1.9,4.8,5.2v2H70
		v-2.2c0-1.5-0.7-2-1.7-2c-0.9,0-1.7,0.6-1.7,2v11.3c0,1.5,0.7,2,1.7,2c0.9,0,1.7-0.6,1.7-2v-3.9h-1.5L68.6,50.8L68.6,50.8z"/>
	<path d="M75.3,41.7h3.3v20.8h-3.3V41.7z"/>
	<path d="M91.4,62.6h-3.3l-0.6-3.7h-3.9L83,62.6h-3.2l3.3-20.8h4.8L91.4,62.6z M84,55.8h3.2l-1.7-10.6L84,55.8z"/>
	<path d="M95.9,47.4v15.1h-3V41.7H97l3.3,12.5V41.7h3v20.8H100L95.9,47.4z"/>
	<path d="M29.5,76v0.8c0,2.2-0.7,3.5-2,4.3c1.7,0.7,2.4,2.2,2.4,4.5v1.7c0,3.2-1.7,5-5,5h-5.2V71.4h5C28.2,71.4,29.5,72.9,29.5,76z
		 M23,74.4V80h1.3c1.3,0,2-0.6,2-2.2v-1.1c0-1.5-0.6-2.2-1.7-2.2H23V74.4z M23,82.8v6.3h1.9c1.1,0,1.7-0.6,1.7-2v-1.9
		c0-1.9-0.6-2.6-2-2.6h-1.5v0.2H23z"/>
	<path d="M31.9,71.4h3.3v17.8h5.4v3h-8.7V71.4z"/>
	<path d="M41.8,76.4c0-3.3,1.7-5.2,5-5.2c3.3,0,5,1.9,5,5.2v10.8c0,3.3-1.7,5.2-5,5.2c-3.3,0-5-1.9-5-5.2V76.4z M45,87.4
		c0,1.5,0.7,2,1.7,2c0.9,0,1.7-0.6,1.7-2V76c0-1.5-0.7-2-1.7-2c-0.9,0-1.7,0.6-1.7,2V87.4z"/>
	<path d="M56.7,77.3v15.1h-3V71.4h4.1l3.3,12.4V71.4h3v20.8h-3.3L56.7,77.3z"/>
	<path d="M66.5,71.4h5.2c3.3,0,4.8,1.9,4.8,5.2v10.6c0,3.3-1.7,5.2-4.8,5.2h-5.2V71.4z M69.7,74.4v14.9h1.9c1.1,0,1.7-0.6,1.7-2
		V76.4c0-1.5-0.6-2-1.7-2C71.5,74.4,69.7,74.4,69.7,74.4z"/>
	<path d="M93.9,92.3h-3.3L90,88.6h-4.1l-0.6,3.7h-3l3.3-20.8h4.8L93.9,92.3z M86.4,85.5h3.2l-1.5-10.6L86.4,85.5z"/>
	<path d="M95.3,71.4h3.2v17.8h5.4v3h-8.7L95.3,71.4L95.3,71.4z"/>
	<path d="M108.7,80.2h4.5v3h-4.5v6.1h5.6v3h-8.9V71.4h8.9v3h-5.6V80.2z"/>
</g>
</svg>
