<?xml version="1.0" encoding="utf-8"?>
<!-- Generator: Adobe Illustrator 22.1.0, SVG Export Plug-In . SVG Version: 6.00 Build 0)  -->
<svg version="1.1" id="Layer_1" xmlns="http://www.w3.org/2000/svg" xmlns:xlink="http://www.w3.org/1999/xlink" x="0px" y="0px"
	 viewBox="0 0 134 134" style="enable-background:new 0 0 134 134;" xml:space="preserve">
<style type="text/css">
	.st0{fill:none;stroke:#000000;stroke-miterlimit:10;}
</style>
<circle class="st0" cx="67" cy="67" r="66"/>
<g>
	<path d="M37.8,44.7v0.9c0,2.4-0.6,3.9-2.4,4.5c1.9,0.6,2.6,2.4,2.6,4.8v1.9c0,3.5-1.9,5.4-5.4,5.4H27V39.5h5.4
		C36.1,39.5,37.8,41.2,37.8,44.7z M30.7,42.7v6.1H32c1.3,0,2.2-0.6,2.2-2.4v-1.3c0-1.5-0.6-2.4-1.7-2.4
		C32.4,42.7,30.7,42.7,30.7,42.7z M30.7,52v6.9h1.9c1.3,0,1.9-0.6,1.9-2.2v-1.9c0-2.2-0.6-2.8-2.4-2.8C32.2,52,30.7,52,30.7,52z"/>
	<path d="M43.9,49.2h5v3.2h-5v6.5H50v3.2h-9.7V39.5H50v3.2h-6.1V49.2z"/>
	<path d="M52.3,39.5h3.5V59h5.8v3.2h-9.5V39.5H52.3z"/>
	<path d="M68.5,49.6h5v7.1c0,3.7-1.7,5.6-5.4,5.6c-3.5,0-5.4-2.2-5.4-5.6V44.8c0-3.7,1.7-5.6,5.4-5.6c3.5,0,5.4,2.2,5.4,5.6v2.2H70
		v-2.4c0-1.7-0.6-2.2-1.9-2.2c-1.1,0-1.9,0.6-1.9,2.2v12.3c0,1.7,0.6,2.2,1.9,2.2c1.1,0,1.9-0.6,1.9-2.2v-4.1h-1.7v-3.2L68.5,49.6
		L68.5,49.6z"/>
	<path d="M75.9,39.5h3.5v22.7h-3.5V39.5z"/>
	<path d="M93.6,62.2h-3.7l-0.6-4.1H85l-0.7,4.1h-3.2l3.7-22.7H90L93.6,62.2z M85.4,55h3.5l-1.7-11.5L85.4,55z"/>
	<path d="M98.4,45.7v16.4h-3.2V39.5h4.5l3.7,13.6V39.5h3.2v22.7h-3.7L98.4,45.7z"/>
	<path d="M21.1,71.9h5.6c3.5,0,5.4,1.9,5.4,5.6V89c0,3.7-1.7,5.6-5.4,5.6h-5.6V71.9z M24.6,75.2v16.2h1.9c1.1,0,1.7-0.6,1.7-2.2
		V77.3c0-1.7-0.6-2.2-1.7-2.2L24.6,75.2L24.6,75.2z"/>
	<path d="M45.8,94.6h-3.7l-0.6-4.1h-4.3l-0.6,4.1h-3.3L37,71.9h5.2L45.8,94.6z M37.6,87.5h3.5L39.3,76L37.6,87.5z"/>
	<path d="M54.9,94.6c-0.2-0.6-0.4-0.9-0.4-2.8v-3.5c0-2.2-0.6-2.8-2.4-2.8h-1.3v9.3h-3.7V71.9h5.4c3.7,0,5.2,1.7,5.2,5.2v1.7
		c0,2.4-0.6,3.9-2.4,4.5c1.7,0.6,2.4,2.4,2.4,4.8v3.5c0,1.1,0,1.9,0.4,2.8h-3.2V94.6z M51,75.2v6.9h1.3c1.3,0,2.2-0.6,2.2-2.4v-2.2
		c0-1.5-0.6-2.4-1.7-2.4C52.7,75.2,51,75.2,51,75.2z"/>
	<path d="M65.3,85.6l-1.1,2.2v6.9h-3.5V71.9h3.5v10l4.8-10h3.5l-5,10.2l5,12.6h-3.7L65.3,85.6z"/>
	<path d="M90.6,94.6h-3.7l-0.6-4.1H82l-0.7,4.1h-3.2l3.7-22.7H87L90.6,94.6z M82.4,87.5h3.5L84.2,76L82.4,87.5z"/>
	<path d="M92.1,71.9h3.5v19.5h5.8v3.2h-9.5V71.9H92.1z"/>
	<path d="M106.8,81.7h5v3.2h-5v6.5h6.1v3.2h-9.7V71.9h9.7v3.2h-6.1V81.7z"/>
</g>
</svg>
