<?xml version="1.0" encoding="utf-8"?>
<!-- Generator: Adobe Illustrator 22.1.0, SVG Export Plug-In . SVG Version: 6.00 Build 0)  -->
<svg version="1.1" id="Layer_1" xmlns="http://www.w3.org/2000/svg" xmlns:xlink="http://www.w3.org/1999/xlink" x="0px" y="0px"
	 viewBox="0 0 134 134" style="enable-background:new 0 0 134 134;" xml:space="preserve">
<style type="text/css">
	.st0{fill:none;stroke:#000000;stroke-miterlimit:10;}
</style>
<circle class="st0" cx="67" cy="67" r="66"/>
<g>
	<path d="M39.5,30.4v0.9c0,2.2-0.7,3.7-2.2,4.4c1.8,0.7,2.4,2.4,2.4,4.6v1.8c0,3.3-1.8,5.1-5.1,5.1h-5.3V25.6h5.1
		C38,25.6,39.5,27.1,39.5,30.4z M32.8,28.7v5.7H34c1.3,0,2-0.7,2-2.2v-1.1c0-1.5-0.4-2.2-1.8-2.2h-1.5V28.7z M32.8,37.5v6.6h2
		c1.1,0,1.8-0.4,1.8-2.2v-1.8c0-2-0.7-2.6-2.2-2.6H32.8z"/>
	<path d="M45.3,34.7h4.6v3.1h-4.6v6.4h5.9v3.1H42V25.6h9.2v3.1h-5.9C45.3,28.7,45.3,34.7,45.3,34.7z"/>
	<path d="M53.1,25.6h3.3v18.5h5.5v3.1h-9V25.6H53.1z"/>
	<path d="M68.9,35h4.8v6.9c0,3.5-1.8,5.5-5.1,5.5s-5.1-2-5.1-5.5V30.6c0-3.5,1.8-5.5,5.1-5.5c3.3,0,5.1,2,5.1,5.5v2.2h-3.3v-2.4
		c0-1.5-0.7-2.2-1.8-2.2s-1.8,0.7-1.8,2.2v11.7c0,1.5,0.7,2.2,1.8,2.2s1.8-0.7,1.8-2.2v-4h-1.5V35z"/>
	<path d="M75.6,25.6h3.5v21.6h-3.3V25.6H75.6z"/>
	<path d="M92.6,47.2h-3.5l-0.7-4h-4.2l-0.7,4h-3.1l3.5-21.6H89L92.6,47.2z M84.6,40.3h3.3l-1.5-11L84.6,40.3z"/>
	<path d="M96.9,31.5v15.6h-3.1V25.6h4.2l3.5,13v-13h3.1v21.6h-3.5L96.9,31.5z"/>
	<path d="M36.6,56.3c3.3,0,5.1,2,5.1,5.5v0.7h-3.3v-0.9c0-1.5-0.7-2.2-1.8-2.2s-1.8,0.7-1.8,2.2c0,4.4,6.6,5.3,6.6,11.4
		c0,3.5-1.8,5.5-5.1,5.5s-5.1-2-5.1-5.5v-1.3h3.3v1.5c0,1.5,0.7,2.2,1.8,2.2s1.8-0.7,1.8-2.2c0-4.4-6.6-5.3-6.6-11.4
		C31.6,58.2,33.3,56.3,36.6,56.3z"/>
	<path d="M42.6,56.4h10.6v3.1h-3.5v18.4h-3.5V59.5h-3.5L42.6,56.4L42.6,56.4z"/>
	<path d="M61.8,77.9c-0.2-0.6-0.2-0.8-0.2-2.6V72c0-2-0.7-2.6-2.2-2.6h-1.1v8.8H55V56.7H60c3.5,0,5.1,1.5,5.1,5.1v1.8
		c0,2.2-0.7,3.7-2.2,4.4c1.8,0.7,2.2,2.4,2.2,4.6v2.9c0,1.1,0,1.8,0.4,2.6L61.8,77.9L61.8,77.9z M58,59.5v6.6h1.3c1.3,0,2-0.7,2-2.2
		v-2.2c0-1.5-0.4-2.2-1.8-2.2H58z"/>
	<path d="M66.9,61.4c0-3.5,1.8-5.5,5.1-5.5c3.3,0,5.1,2,5.1,5.5v11.2c0,3.5-1.8,5.5-5.1,5.5s-5.1-2-5.1-5.5
		C66.9,72.8,66.9,61.4,66.9,61.4z M70.1,72.9c0,1.5,0.7,2.2,1.8,2.2s1.8-0.7,1.8-2.2V61.3c0-1.5-0.7-2.2-1.8-2.2s-1.8,0.7-1.8,2.2
		V72.9z"/>
	<path d="M82.3,62.3v15.6h-3.1V56.4h4.4l3.5,13v-13h3.1v21.5h-3.5L82.3,62.3z"/>
	<path d="M97.4,65.8h4.8v6.8c0,3.5-1.8,5.5-5.1,5.5c-3.3,0-5.1-2-5.1-5.5V61.4c0-3.5,1.8-5.5,5.1-5.5s5.1,2,5.1,5.5v2.2h-3.3v-2.2
		c0-1.5-0.7-2.2-1.8-2.2c-1.1,0-1.8,0.7-1.8,2.2v11.7c0,1.5,0.7,2.2,1.8,2.2s1.8-0.7,1.8-2.2v-4h-1.5V65.8z"/>
	<path d="M62,108.8h-3.5l-0.7-4h-4.2l-0.7,4h-3.1l3.5-21.6h5.1L62,108.8z M54.3,101.9h3.3l-1.5-11L54.3,101.9z"/>
	<path d="M63.8,87.3h3.3v18.5h5.5v3.1h-8.8V87.3z"/>
	<path d="M77.4,96.3h4.6v3.1h-4.6v6.4h5.9v3.1h-9.2V87.3h9.2v3.1h-5.9V96.3z"/>
</g>
</svg>
