<?xml version="1.0" encoding="utf-8"?>
<!-- Generator: Adobe Illustrator 22.1.0, SVG Export Plug-In . SVG Version: 6.00 Build 0)  -->
<svg version="1.1" id="Layer_1" xmlns="http://www.w3.org/2000/svg" xmlns:xlink="http://www.w3.org/1999/xlink" x="0px" y="0px"
	 viewBox="0 0 134 134" style="enable-background:new 0 0 134 134;" xml:space="preserve">
<style type="text/css">
	.st0{fill:none;stroke:#000000;stroke-miterlimit:10;}
</style>
<circle class="st0" cx="67" cy="67" r="66"/>
<g>
	<path d="M35.3,32.8v0.7c0,2-0.7,3.4-2,4.1c1.7,0.7,2.4,2.2,2.4,4.2v1.7c0,3-1.7,4.7-4.7,4.7h-4.9v-20h4.7
		C33.6,28.2,35.3,29.8,35.3,32.8z M28.8,31.1v5.2H30c1.2,0,1.9-0.5,1.9-2.2v-1.2c0-1.5-0.5-2-1.7-2h-1.4V31.1z M28.8,39.2v6.3h1.9
		c1,0,1.7-0.5,1.7-2v-1.7c0-1.9-0.7-2.4-2-2.4h-1.5L28.8,39.2L28.8,39.2z"/>
	<path d="M40.4,36.7h4.4v2.9h-4.4v5.9h5.4v2.9h-8.6V28.2h8.6v2.9h-5.4V36.7z"/>
	<path d="M47.9,28.2h3.2v17.3h5.2v2.9H48V28.2H47.9z"/>
	<path d="M62.4,37.2h4.4v6.4c0,3.2-1.7,5.1-4.7,5.1c-3,0-4.7-1.9-4.7-5.1V33.1c0-3.2,1.7-5.1,4.7-5.1c3,0,4.7,1.9,4.7,5.1v2h-3v-2.4
		c0-1.5-0.7-2-1.7-2s-1.7,0.5-1.7,2v10.8c0,1.5,0.7,2,1.7,2s1.7-0.5,1.7-2v-3.7h-1.4V37.2z"/>
	<path d="M68.8,28.2H72v20.1h-3.2V28.2z"/>
	<path d="M84.7,48.4h-3.2L81,44.7h-3.9l-0.5,3.7h-2.9l3.2-20.2h4.6L84.7,48.4z M77.3,41.9h3l-1.5-10.1L77.3,41.9z"/>
	<path d="M88.8,33.8v14.6h-2.9V28.2h3.9l3.2,12v-12h2.9v20.1h-3.2L88.8,33.8z"/>
	<path d="M105.3,28.2h2.7l-8,20.1h-2.7L105.3,28.2z"/>
	<path d="M36.8,66h4.1v2.9h-4.1v8.3h-3.2V57h8.3v2.9h-5.1V66z"/>
	<path d="M50.1,77.1c-0.2-0.5-0.3-0.8-0.3-2.5v-3.2c0-1.9-0.7-2.5-2-2.5h-1V77h-3.2V57h4.7c3.2,0,4.7,1.5,4.7,4.6v1.7
		c0,2-0.7,3.4-2,4.1c1.5,0.7,2,2.2,2,4.2v3c0,1,0,1.7,0.3,2.4h-3.2V77.1z M46.8,59.9v6.3H48c1.2,0,1.9-0.5,1.9-2.2v-2
		c0-1.5-0.5-2-1.7-2h-1.4V59.9z"/>
	<path d="M58.3,65.5h4.4v2.8h-4.4v6h5.6v2.9h-8.6V57h8.6v2.9h-5.4v5.6C58.4,65.5,58.3,65.5,58.3,65.5z"/>
	<path d="M68.5,62.6v14.6h-2.9V57h3.9l3.2,12V57h2.9v20.1h-3.2L68.5,62.6z"/>
	<path d="M87.2,69.7v2.7c0,3.2-1.7,5.1-4.7,5.1s-4.7-1.9-4.7-5.1V61.9c0-3.2,1.7-5.1,4.7-5.1s4.7,1.9,4.7,5.1v2h-3v-2.4
		c0-1.4-0.7-2-1.7-2s-1.7,0.5-1.7,2v10.8c0,1.4,0.7,2,1.7,2s1.7-0.5,1.7-2v-2.9h3V69.7z"/>
	<path d="M92.3,77.1h-3.2V57h3.2v8.6h3.6V57H99v20.1h-3.2v-8.6h-3.6V77.1z"/>
	<path d="M61.8,105.9h-3.2l-0.5-3.7h-3.9l-0.5,3.7h-2.9l3.2-20.1h4.6L61.8,105.9z M54.5,99.5h3L56,89.3L54.5,99.5z"/>
	<path d="M63.1,85.8h3.2v17.3h5.2v2.9h-8.3L63.1,85.8L63.1,85.8z"/>
	<path d="M76.2,94.2h4.4v2.9h-4.4v5.9h5.4v2.9H73V85.8h8.6v2.9h-5.4V94.2z"/>
</g>
</svg>
