<?xml version="1.0" encoding="utf-8"?>
<!-- Generator: Adobe Illustrator 22.1.0, SVG Export Plug-In . SVG Version: 6.00 Build 0)  -->
<svg version="1.1" id="Layer_1" xmlns="http://www.w3.org/2000/svg" xmlns:xlink="http://www.w3.org/1999/xlink" x="0px" y="0px"
	 viewBox="0 0 134 134" style="enable-background:new 0 0 134 134;" xml:space="preserve">
<style type="text/css">
	.st0{fill:none;stroke:#000000;stroke-miterlimit:10;}
</style>
<circle class="st0" cx="67" cy="67" r="66"/>
<g>
	<path d="M48.3,41.1v1c0,2.7-0.7,4.5-2.7,5.2c2.2,0.7,3,2.7,3,5.5V55c0,4-2.2,6.2-6.2,6.2h-6.5V35.1h6.2
		C46.6,35.1,48.3,37.1,48.3,41.1z M40.1,38.9v7h1.5c1.5,0,2.5-0.7,2.5-2.7v-1.5c0-1.7-0.7-2.7-2-2.7C42.1,38.9,40.1,38.9,40.1,38.9z
		 M40.1,49.6v8h2.2c1.5,0,2.2-0.7,2.2-2.5v-2.2c0-2.5-0.7-3.2-2.7-3.2C41.8,49.6,40.1,49.6,40.1,49.6z"/>
	<path d="M51.3,35.1h4v26.2h-4V35.1z"/>
	<path d="M62.5,46.3h5.7V50h-5.7v7.5h7v3.7H58.3V35.1h11.2v3.7h-7V46.3z"/>
	<path d="M80.7,61.3c-0.2-0.7-0.5-1-0.5-3.2v-4c0-2.5-0.7-3.2-2.7-3.2H76v10.7h-4.2V35.1H78c4.2,0,6,2,6,6v2c0,2.7-0.7,4.5-2.7,5.2
		c2,0.7,2.7,2.7,2.7,5.5v4c0,1.2,0,2.2,0.5,3.2h-3.7v0.3H80.7z M76.2,38.9v8h1.5c1.5,0,2.5-0.7,2.5-2.7v-2.5c0-1.7-0.7-2.7-2-2.7
		L76.2,38.9L76.2,38.9z"/>
	<path d="M91.2,46.3h5.7V50h-5.7v7.5h7v3.7H86.9V35.1h11.2v3.7h-7L91.2,46.3L91.2,46.3z"/>
	<path d="M51.6,78.5v1c0,2.7-0.7,4.5-2.7,5.2c2.2,0.7,3,2.7,3,5.5v2.2c0,4-2.2,6.2-6.2,6.2h-6.5V72.5h6.2
		C49.8,72.5,51.6,74.5,51.6,78.5z M43.3,76.2v7h1.5c1.5,0,2.5-0.7,2.5-2.7V79c0-2-0.7-2.7-2-2.7h-2V76.2z M43.3,86.9v8h2.2
		c1.5,0,2.2-0.7,2.2-2.5v-2.2c0-2.5-0.7-3.2-2.7-3.2h-1.7V86.9z"/>
	<path d="M63,98.6c-0.2-0.7-0.2-1-0.2-3.2v-4c0-2.5-0.7-3.2-2.7-3.2h-1.6v10.7h-4V72.5h6.2c4.2,0,6,2,6,6v2c0,2.7-0.7,4.5-2.7,5.2
		c2,0.7,2.7,2.7,2.7,5.5v4c0,1.2,0,2.2,0.5,3.2h-4.2C62.9,98.4,62.9,98.6,63,98.6z M58.5,76.2v8H60c1.5,0,2.5-0.7,2.5-2.7V79
		c0-2-0.7-2.7-2-2.7C60.5,76.2,58.5,76.2,58.5,76.2z"/>
	<path d="M73.5,72.5v20.2c0,2,0.7,2.5,2.2,2.5c1.2,0,2.2-0.7,2.2-2.5V72.5h4v19.9c0,4.2-2,6.5-6.2,6.5s-6.2-2.5-6.2-6.5V72.5H73.5z"
		/>
	<path d="M83.2,72.5h12.7v3.7h-4.2v22.4h-4.2V76.2h-4.2C83.2,76.2,83.2,72.5,83.2,72.5z"/>
</g>
</svg>
