<?xml version="1.0" encoding="utf-8"?>
<!-- Generator: Adobe Illustrator 22.1.0, SVG Export Plug-In . SVG Version: 6.00 Build 0)  -->
<svg version="1.1" id="Layer_1" xmlns="http://www.w3.org/2000/svg" xmlns:xlink="http://www.w3.org/1999/xlink" x="0px" y="0px"
	 viewBox="0 0 134 134" style="enable-background:new 0 0 134 134;" xml:space="preserve">
<style type="text/css">
	.st0{fill:none;stroke:#000000;stroke-miterlimit:10;}
</style>
<circle class="st0" cx="67" cy="67" r="66"/>
<g>
	<path d="M28.4,45v0.9c0,2.3-0.7,3.9-2.3,4.6c1.8,0.7,2.5,2.5,2.5,4.8V57c0,3.4-1.8,5.2-5.2,5.2h-5.5V40h5.2
		C26.8,40,28.4,41.5,28.4,45z M21.6,43V49H23c1.4,0,2-0.7,2-2.3v-1.1c0-1.6-0.5-2.3-1.8-2.3h-1.6V43z M21.6,52.3V59h2
		c1.1,0,1.8-0.5,1.8-2.3V55c0-2-0.7-2.7-2.3-2.7H21.6z"/>
	<path d="M30.7,45.2c0-3.6,1.8-5.7,5.2-5.7c3.4,0,5.2,2,5.2,5.7v11.6c0,3.6-1.8,5.7-5.2,5.7s-5.2-2-5.2-5.7
		C30.6,56.8,30.6,45.2,30.7,45.2z M34.1,57c0,1.6,0.7,2.3,1.8,2.3s1.8-0.7,1.8-2.3V45c0-1.6-0.7-2.3-1.8-2.3s-1.8,0.7-1.8,2.3V57z"
		/>
	<path d="M47.1,62.3h-3.4V40h3.4v9.6h4.1V40h3.4v22.3H51v-9.6h-4.1v9.6C46.9,62.2,47.1,62.2,47.1,62.3z"/>
	<path d="M60.7,49.3h4.8v3.2h-4.8V59h6.1v3.2h-9.6V40h9.6v3.2h-6.1C60.7,43.2,60.7,49.3,60.7,49.3z"/>
	<path d="M76.2,55.9L78.5,40h4.8v22.3h-3.4v-16l-2.5,15.9H74l-2.5-15.7v15.7h-3V40h4.8L76.2,55.9z"/>
	<path d="M86.2,40h3.4v22.3h-3.4V40z"/>
	<path d="M103.5,62.3h-3.4l-0.7-4.1h-4.3l-0.7,4.1h-3.2L94.9,40h5.2L103.5,62.3z M95.5,55.2h3.4l-1.6-11.4L95.5,55.2z"/>
	<path d="M108.3,46v16.2h-3.2V40h4.3l3.6,13.4V40h3.2v22.3h-3.6L108.3,46z"/>
	<path d="M39.3,77.3v3c0,3.6-1.8,5.5-5.2,5.5h-1.6v8.4h-3.4V71.8h5C37.5,71.8,39.3,73.6,39.3,77.3z M32.3,74.9v7.5h1.8
		c1.1,0,1.8-0.5,1.8-2v-3.4c0-1.6-0.7-2-1.8-2C34.1,74.9,32.3,74.9,32.3,74.9z"/>
	<path d="M40.8,71.8h3.4v22.3h-3.4V71.8z"/>
	<path d="M47.1,71.8h3.4v19.1h5.7v3.2h-9.3V71.8H47.1z"/>
	<path d="M62.5,71.6c3.4,0,5.2,2,5.2,5.7v0.7h-3.4v-0.9c0-1.6-0.7-2.3-1.8-2.3s-1.8,0.7-1.8,2.3c0,4.6,6.8,5.5,6.8,11.8
		c0,3.6-1.8,5.7-5.2,5.7c-3.4,0-5.2-2-5.2-5.7v-1.4h3.4v1.6c0,1.6,0.7,2.3,1.8,2.3s1.8-0.7,1.8-2.3c0-4.6-6.8-5.5-6.8-11.8
		C57.3,73.6,59.1,71.6,62.5,71.6z"/>
	<path d="M72.8,77.9v16.2h-3.2V71.8h4.3l3.7,13.5V71.8h3.2v22.3h-3.4L72.8,77.9z"/>
	<path d="M86.9,81.1h4.8v3.2h-4.8v6.6H93v3.2h-9.6V71.8H93v3.2h-6.1V81.1z"/>
	<path d="M102.4,94.1c-0.2-0.7-0.2-0.9-0.2-2.7v-3.4c0-2-0.7-2.7-2.3-2.7h-1.1v9.1h-3.4V72.1h5.2c3.6,0,5.2,1.6,5.2,5.2v1.8
		c0,2.3-0.7,3.9-2.3,4.6c1.8,0.7,2.3,2.5,2.3,4.8v3c0,1.1,0,1.8,0.5,2.7L102.4,94.1L102.4,94.1z M98.5,74.9v6.8h1.4
		c1.4,0,2-0.7,2-2.3v-2.3c0-1.6-0.5-2.3-1.8-2.3h-1.6V74.9z"/>
</g>
</svg>
