<?xml version="1.0" encoding="utf-8"?>
<!-- Generator: Adobe Illustrator 22.1.0, SVG Export Plug-In . SVG Version: 6.00 Build 0)  -->
<svg version="1.1" id="Layer_1" xmlns="http://www.w3.org/2000/svg" xmlns:xlink="http://www.w3.org/1999/xlink" x="0px" y="0px"
	 viewBox="0 0 134 134" style="enable-background:new 0 0 134 134;" xml:space="preserve">
<style type="text/css">
	.st0{fill:none;stroke:#000000;stroke-miterlimit:10;}
</style>
<circle class="st0" cx="67" cy="67" r="66"/>
<g>
	<path d="M40.6,42v0.9c0,2.6-0.7,4.4-2.6,5.1c2.2,0.7,2.9,2.9,2.9,5.3v2.2c0,3.7-2.2,5.9-5.9,5.9h-6.2V36.3h5.9
		C38.8,36.3,40.6,38.3,40.6,42z M32.5,40v6.6H34c1.5,0,2.2-0.7,2.2-2.6v-1.1c0-1.8-0.7-2.6-2.2-2.6L32.5,40L32.5,40z M32.5,50.3v7.9
		h2.2c1.3,0,2.2-0.7,2.2-2.6v-2.2c0-2.2-0.7-3.1-2.6-3.1H32.5L32.5,50.3z"/>
	<path d="M51.6,61.8c-0.2-0.7-0.2-0.9-0.2-3.1V55c0-2.2-0.7-3.1-2.6-3.1h-1.3V62h-3.7V36.8h5.9c4.2,0,5.9,1.8,5.9,5.9v2.2
		c0,2.6-0.7,4.4-2.6,5.1c2.2,0.7,2.6,2.9,2.6,5.3v3.7c0,1.3,0,2.2,0.7,3.1h-4.4v-0.2H51.6z M47.2,40v7.9h1.5c1.5,0,2.2-0.7,2.2-2.6
		v-2.9c0-1.8-0.7-2.6-2.2-2.6C49.2,40,47.2,40,47.2,40z"/>
	<path d="M57.5,42.3c0-4.2,2.2-6.6,5.9-6.6c3.7,0,5.9,2.2,5.9,6.6v13.2c0,4.2-2.2,6.6-5.9,6.6s-5.9-2.2-5.9-6.6V42.3z M61.7,55.8
		c0,1.8,0.7,2.6,2.2,2.6c1.3,0,2.2-0.7,2.2-2.6V42c0-1.8-0.7-2.6-2.2-2.6c-1.3,0-2.2,0.7-2.2,2.6C61.7,42,61.7,55.8,61.7,55.8z"/>
	<path d="M81.1,48.3l-1.6,13.5h-5.3l-2.9-25.5h3.7L77.3,56l1.8-19.8h3.7L85,56.4l2.2-20.2h3.5l-2.9,25.5h-5.1L81.1,48.3z"/>
	<path d="M96.3,43.5v18.3h-3.8V36.3h5.1l4.2,15.4V36.3h3.5v25.5h-4.2L96.3,43.5z"/>
	<path d="M61.1,97.8h-4.2l-0.7-4.6h-4.6l-0.7,4.6h-3.7l4.2-25.5h5.9L61.1,97.8z M52,89.9h3.7l-1.8-13L52,89.9z"/>
	<path d="M63.3,72.8H67v21.8h6.6v3.7H63L63.3,72.8L63.3,72.8z"/>
	<path d="M79.3,83.1h5.3v3.7h-5.3v7.5h6.8V98h-11V72.8h11v3.7h-7C79.3,76.3,79.3,83.1,79.3,83.1z"/>
</g>
</svg>
