<?xml version="1.0" encoding="utf-8"?>
<!-- Generator: Adobe Illustrator 22.1.0, SVG Export Plug-In . SVG Version: 6.00 Build 0)  -->
<svg version="1.1" id="Layer_1" xmlns="http://www.w3.org/2000/svg" xmlns:xlink="http://www.w3.org/1999/xlink" x="0px" y="0px"
	 viewBox="0 0 134 134" style="enable-background:new 0 0 134 134;" xml:space="preserve">
<style type="text/css">
	.st0{fill:none;stroke:#000000;stroke-miterlimit:10;}
</style>
<circle class="st0" cx="67" cy="67" r="66"/>
<g>
	<path d="M41.4,51.9v3.4c0,4.2-2,6.5-6.2,6.5c-4,0-6.2-2.5-6.2-6.5V41.6c0-4.2,2-6.5,6.2-6.5c4,0,6.2,2.5,6.2,6.5v2.5h-4v-2.7
		c0-2-0.7-2.5-2.2-2.5S33,39.6,33,41.4v14.2c0,2,0.7,2.5,2.2,2.5s2.2-0.7,2.2-2.5v-3.7H41.4z"/>
	<path d="M52.6,61.6c-0.2-0.7-0.2-1-0.2-3.2v-4c0-2.5-0.7-3.2-2.7-3.2h-1.5v10.7h-4V35.4h6.2c4.2,0,6,2,6,6v2c0,2.7-0.7,4.5-2.7,5.2
		c2,0.7,2.7,2.7,2.7,5.5v4c0,1.2,0,2.2,0.5,3.2h-4.2L52.6,61.6L52.6,61.6z M48.1,39.2v8h1.5c1.5,0,2.5-0.7,2.5-2.7V42
		c0-1.7-0.7-2.7-2-2.7L48.1,39.2L48.1,39.2z"/>
	<path d="M63.1,46.6h5.7v3.7h-5.7v7.5h7v3.7H58.8V35.4h11.2v3.7h-7v7.5H63.1z"/>
	<path d="M85.9,61.6h-4.2l-0.7-4.7h-5l-0.7,4.7h-3.7l4.1-26.2h6L85.9,61.6z M76.4,53.4h4l-2-13.2L76.4,53.4z"/>
	<path d="M96.7,54.1l2.7-18.7h5.7v26.2h-4V42.9l-2.7,18.7h-4l-3-18.4v18.4h-3.5V35.4h5.7L96.7,54.1z"/>
	<path d="M61.3,98.9h-4.2l-0.7-4.7h-5l-0.7,4.7H47l4.2-26.2h6L61.3,98.9z M51.9,90.7h4l-2-13.2L51.9,90.7z"/>
	<path d="M63.3,72.8h4v22.4h6.7v3.7H63V72.8H63.3z"/>
	<path d="M79.9,84h5.7v3.7h-5.7v7.5h7v3.7H75.8V72.8h11.2v3.7h-7V84z"/>
</g>
</svg>
