<?xml version="1.0" encoding="utf-8"?>
<!-- Generator: Adobe Illustrator 22.1.0, SVG Export Plug-In . SVG Version: 6.00 Build 0)  -->
<svg version="1.1" id="Layer_1" xmlns="http://www.w3.org/2000/svg" xmlns:xlink="http://www.w3.org/1999/xlink" x="0px" y="0px"
	 viewBox="0 0 134 134" style="enable-background:new 0 0 134 134;" xml:space="preserve">
<style type="text/css">
	.st0{fill:none;stroke:#010101;stroke-miterlimit:10;}
	.st1{fill:#010101;}
</style>
<circle class="st0" cx="67" cy="67" r="66"/>
<g>
	<path class="st1" d="M19.7,31.6h7.2c4.5,0,7,2.7,7,7.2v14.9c0,4.7-2.5,7.2-7,7.2h-7.2V31.6z M24.2,36v20.9h2.7c1.5,0,2.5-1,2.5-3
		V38.3c0-2-1-3-2.5-3h-2.7V36z"/>
	<path class="st1" d="M36.1,38.3c0-4.7,2.5-7.5,7-7.5s7,2.7,7,7.5v15.4c0,4.7-2.5,7.5-7,7.5s-7-2.7-7-7.5
		C36.1,53.8,36.1,38.3,36.1,38.3z M41.1,54.1c0,2,1,3,2.5,3s2.5-1,2.5-3V38.2c0-2-1-3-2.5-3s-2.5,1-2.5,3V54.1z"/>
	<path class="st1" d="M57.8,31.6v22.9c0,2,1,3,2.5,3s2.5-1,2.5-3V31.6h4.5v22.4c0,4.7-2.5,7.5-7,7.5s-7.2-3-7.2-7.5V31.6
		C53.1,31.6,57.8,31.6,57.8,31.6z"/>
	<path class="st1" d="M83.9,38.2v1.2c0,3-1,5.2-3,6c2.5,1,3.2,3.2,3.2,6.2v2.5c0,4.5-2.5,7-7,7h-7.2V31.6h7
		C81.9,31.6,83.9,33.7,83.9,38.2z M74.7,36v7.7h1.8c1.7,0,2.7-1,2.7-3v-1.5c0-2-0.5-3-2.5-3h-2C74.7,36.2,74.7,36,74.7,36z
		 M74.7,47.8v9h2.8c1.5,0,2.5-0.5,2.5-3v-2.5c0-2.7-1-3.5-3-3.5H74.7z"/>
	<path class="st1" d="M87.2,31.6h4.7v25.2h7.5v4.2H86.9V31.6H87.2z"/>
	<path class="st1" d="M106.1,43.8h6.2v4.2h-6.2v8.7h8.2v4.3h-12.7V31.6h12.7v4.2h-8.2V43.8z"/>
	<path class="st1" d="M47.8,73.8h4.5v29.4h-4.5V73.8z"/>
	<path class="st1" d="M69.5,80.8v4c0,4.7-2.5,7.2-7,7.2h-2v11.2H56V73.8h7C67.5,73.8,69.5,76.1,69.5,80.8z M60.5,77.8v10h2
		c1.5,0,2.5-0.5,2.5-2.7v-4.5c0-2-1-2.7-2.5-2.7C62.5,77.8,60.5,77.8,60.5,77.8z"/>
	<path class="st1" d="M86.4,103.2h-4.7l-1-5.5H75l-1,5.5h-4.2l4.7-29.4h7L86.4,103.2z M76,93.7h4.5l-2-14.9L76,93.7z"/>
</g>
</svg>
