<?xml version="1.0" encoding="utf-8"?>
<!-- Generator: Adobe Illustrator 22.1.0, SVG Export Plug-In . SVG Version: 6.00 Build 0)  -->
<svg version="1.1" id="Layer_1" xmlns="http://www.w3.org/2000/svg" xmlns:xlink="http://www.w3.org/1999/xlink" x="0px" y="0px"
	 viewBox="0 0 134 134" style="enable-background:new 0 0 134 134;" xml:space="preserve">
<style type="text/css">
	.st0{fill:none;stroke:#000000;stroke-miterlimit:10;}
</style>
<circle class="st0" cx="67" cy="67" r="66"/>
<g>
	<path d="M26,54.3h6.2c4.1,0,6,2.2,6,6.2v12.7c0,4.1-1.9,6.2-6,6.2H26C26,79.5,26,54.3,26,54.3z M29.8,57.9v18H32
		c1.2,0,1.9-0.7,1.9-2.4V60.3c0-1.9-0.7-2.4-1.9-2.4C32,57.9,29.8,57.9,29.8,57.9z"/>
	<path d="M44.5,54.3v19.4c0,1.9,0.7,2.4,2.2,2.4c1.2,0,2.2-0.7,2.2-2.4V54.3h3.8v19.2c0,4.1-1.9,6.2-6,6.2s-6-2.4-6-6.2V54.3
		C40.6,54.3,44.5,54.3,44.5,54.3z"/>
	<path d="M66.8,60.1v1c0,2.6-0.7,4.3-2.6,5c2.2,0.7,2.9,2.6,2.9,5.3v2.2c0,3.8-2.2,6-6,6h-6.3V54.3h6C65.1,54.3,66.8,56.2,66.8,60.1
		z M58.8,57.9v6.7h1.4c1.4,0,2.4-0.7,2.4-2.6v-1.4c0-1.9-0.7-2.6-1.9-2.6C60.8,57.9,58.8,57.9,58.8,57.9z M58.8,68.2v7.7h2.2
		c1.4,0,2.2-0.7,2.2-2.4v-2.2c0-2.4-0.7-3.1-2.6-3.1C60.5,68.2,58.8,68.2,58.8,68.2z"/>
	<path d="M81.3,60.1v1c0,2.6-0.7,4.3-2.6,5c2.2,0.7,2.9,2.6,2.9,5.3v2.2c0,3.8-2.2,6-6,6h-6.2V54.3h6C79.4,54.3,81.3,56.2,81.3,60.1
		z M73.4,57.9v6.7h1.4c1.4,0,2.4-0.7,2.4-2.6v-1.4c0-1.9-0.7-2.6-1.9-2.6C75.3,57.9,73.4,57.9,73.4,57.9z M73.4,68.2v7.7h2.2
		c1.4,0,2.2-0.7,2.2-2.4v-2.2c0-2.4-0.7-3.1-2.6-3.1C75.2,68.2,73.4,68.2,73.4,68.2z"/>
	<path d="M88.1,65.1h5.5v3.6h-5.5v7.4h7v3.4H84.3V54.3h10.8v3.6h-7V65.1z"/>
	<path d="M97.4,54.3h4.1v21.6h6.5v3.6H97.4V54.3z"/>
</g>
</svg>
