<?xml version="1.0" encoding="utf-8"?>
<!-- Generator: Adobe Illustrator 22.1.0, SVG Export Plug-In . SVG Version: 6.00 Build 0)  -->
<svg version="1.1" id="Layer_1" xmlns="http://www.w3.org/2000/svg" xmlns:xlink="http://www.w3.org/1999/xlink" x="0px" y="0px"
	 viewBox="0 0 134 134" style="enable-background:new 0 0 134 134;" xml:space="preserve">
<style type="text/css">
	.st0{fill:none;stroke:#000000;stroke-miterlimit:10;}
</style>
<circle class="st0" cx="67" cy="67" r="66"/>
<g>
	<path d="M30.4,37.2h4.3v2.8h-4.3v5.8h5.3v2.8h-8.5V28.8h8.5v2.8h-5.3C30.4,31.6,30.4,37.2,30.4,37.2z"/>
	<path d="M40.6,34.3v14.4h-2.8V28.8h3.8l3.2,11.9V28.8h2.8v19.9h-3.2L40.6,34.3z"/>
	<path d="M54.6,37.7h4.3v6.3c0,3.2-1.7,5-4.7,5s-4.7-1.8-4.7-5V33.7c0-3.2,1.7-5,4.7-5s4.7,1.8,4.7,5v2h-3v-2.2c0-1.5-0.7-2-1.7-2
		s-1.7,0.5-1.7,2v10.7c0,1.5,0.7,2,1.7,2s1.7-0.5,1.7-2v-3.7h-1.3V37.7z"/>
	<path d="M61,28.8h3.2v17h5.2v2.8h-8.2V28.8H61z"/>
	<path d="M70.7,28.8h3.2v19.9h-3.2V28.8z"/>
	<path d="M80.3,28.6c3,0,4.7,1.8,4.7,5v0.5h-3v-0.8c0-1.5-0.5-2-1.5-2s-1.5,0.5-1.5,2c0,4,6.2,4.8,6.2,10.5c0,3.2-1.7,5-4.7,5
		s-4.7-1.8-4.7-5v-1.2h3v1.5c0,1.5,0.7,2,1.7,2s1.7-0.5,1.7-2c0-4-6.2-4.8-6.2-10.5C75.8,30.5,77.3,28.6,80.3,28.6z"/>
	<path d="M89.8,48.7h-3.2V28.8h3.2v8.5h3.5v-8.5h3.2v19.9h-3.2v-8.5h-3.5V48.7z"/>
	<path d="M105.7,28.8h2.7l-7.9,19.9h-2.7L105.7,28.8z"/>
	<path d="M34,77h-3.2l-0.4-3.7h-3.8L26.1,77h-2.8l3.2-19.9H31L34,77z M27,70.7h3l-1.5-10L27,70.7z"/>
	<path d="M42.3,71.3l2.2-14h4.4v19.9h-3V63l-2.2,14.2h-3l-2.3-14v14h-2.7V57.2H40L42.3,71.3z"/>
	<path d="M54.1,65.5h4.3v2.8h-4.3v5.8h5.3V77h-8.5V57.2h8.5v2.8h-5.3V65.5z"/>
	<path d="M68,77c-0.2-0.5-0.3-0.8-0.3-2.5v-3.2c0-1.8-0.7-2.5-2-2.5h-1v8h-3.2V57.2h4.7c3.2,0,4.7,1.5,4.7,4.5v1.5c0,2-0.7,3.3-2,4
		c1.5,0.7,2,2.2,2,4.2v3c0,1,0,1.7,0.3,2.3H68V77z M64.5,60.1v6.2h1.2c1.2,0,1.8-0.5,1.8-2.2v-2c0-1.5-0.5-2-1.7-2
		C65.8,60.1,64.5,60.1,64.5,60.1z"/>
	<path d="M72.8,57.2H76V77h-3.2V57.2z"/>
	<path d="M87.4,69.7v2.7c0,3.2-1.7,5-4.7,5s-4.7-1.8-4.7-5V62.1c0-3.2,1.7-5,4.7-5s4.7,1.8,4.7,5v2h-3v-2.2c0-1.3-0.7-2-1.7-2
		s-1.7,0.5-1.7,2v10.7c0,1.3,0.7,2,1.7,2s1.7-0.5,1.7-2v-2.8L87.4,69.7L87.4,69.7z"/>
	<path d="M99.3,77h-3.2l-0.5-3.7h-3.8L91.3,77h-2.8l3.2-19.9h4.5L99.3,77z M92.3,70.7h3l-1.5-10L92.3,70.7z"/>
	<path d="M103.7,62.7V77h-2.8V57.2h3.8l3.2,11.9V57.2h2.8V77h-3.2L103.7,62.7z"/>
	<path d="M62.8,105.4h-3.2l-0.5-3.7h-3.8l-0.5,3.7H52l3.2-19.9h4.5L62.8,105.4z M55.6,99.2h3l-1.5-10L55.6,99.2z"/>
	<path d="M64.1,85.5h3.2v17h5.2v2.8h-8.2V85.5H64.1z"/>
	<path d="M77,93.9h4.3v2.8H77v5.8h5.3v2.8h-8.5V85.5h8.5v2.8H77V93.9z"/>
</g>
</svg>
