<?xml version="1.0" encoding="utf-8"?>
<!-- Generator: Adobe Illustrator 22.1.0, SVG Export Plug-In . SVG Version: 6.00 Build 0)  -->
<svg version="1.1" id="Layer_1" xmlns="http://www.w3.org/2000/svg" xmlns:xlink="http://www.w3.org/1999/xlink" x="0px" y="0px"
	 viewBox="0 0 134 134" style="enable-background:new 0 0 134 134;" xml:space="preserve">
<style type="text/css">
	.st0{fill:none;stroke:#000000;stroke-miterlimit:10;}
</style>
<circle class="st0" cx="67" cy="67" r="66"/>
<g>
	<path d="M15.1,51.1h4.1v3h-4.1v8.6h-3.4V42h8.6v3h-5.2V51.1z"/>
	<path d="M32.2,62.7H29l-0.5-3.9h-4.1L24,62.7h-3.2L24.2,42H29L32.2,62.7z M24.7,56.1h3.2l-1.6-10.5L24.7,56.1z"/>
	<path d="M40.4,62.7c-0.2-0.5-0.2-0.9-0.2-2.5V57c0-1.8-0.7-2.7-2-2.7h-1.1v8.4h-3.2V42h5c3.4,0,4.8,1.6,4.8,4.8v1.6
		c0,2-0.7,3.4-2,4.1c1.6,0.7,2,2.3,2,4.3V60c0,0.9,0,1.8,0.5,2.5h-3.6v0.2H40.4z M37,44.9v6.4h1.4c1.1,0,2-0.5,2-2.3v-2
		c0-1.6-0.5-2-1.6-2H37V44.9z"/>
	<path d="M52.5,56.6l2.3-14.8h4.5v20.7h-3.2V47.7l-2.3,14.8h-3.2l-2.5-14.6v14.6h-2.7V41.8H50L52.5,56.6z"/>
	<path d="M69.3,62.7h-3.2V42h3.2v8.9h3.6V42h3.4v20.7h-3.4v-8.9h-3.6V62.7z"/>
	<path d="M78.4,46.8c0-3.4,1.8-5.2,5-5.2s5,1.8,5,5.2v10.7c0,3.4-1.8,5.2-5,5.2s-5-1.8-5-5.2V46.8z M81.8,57.9c0,1.4,0.7,2,1.6,2
		s1.6-0.5,1.6-2V46.8c0-1.6-0.7-2-1.6-2s-1.6,0.5-1.6,2V57.9z"/>
	<path d="M93.7,42v15.9c0,1.6,0.7,2,1.6,2s1.6-0.5,1.6-2V42h3.2v15.7c0,3.4-1.6,5.2-4.8,5.2c-3.2,0-4.8-1.8-4.8-5.2V42H93.7z"/>
	<path d="M106.6,41.8c3.2,0,4.8,1.8,4.8,5.2v0.7h-3.2v-0.9c0-1.6-0.7-2-1.6-2s-1.6,0.5-1.6,2c0,4.3,6.4,5,6.4,10.9
		c0,3.4-1.6,5.2-4.8,5.2c-3.2,0-4.8-1.8-4.8-5.2v-1.4h3.2v1.6c0,1.4,0.7,2,1.6,2c1.1,0,1.6-0.5,1.6-2c0-4.3-6.4-5-6.4-10.9
		C101.8,43.6,103.4,41.8,106.6,41.8z"/>
	<path d="M116.6,50.6h4.6v3h-4.6v6.1h5.7v3h-8.9V42h8.9v3h-5.7V50.6z"/>
	<path d="M62,92.3h-3.2l-0.5-3.9h-4l-0.5,3.9h-3l3.5-20.7h4.6L62,92.3z M54.5,85.7h3.2l-1.6-10.5L54.5,85.7z"/>
	<path d="M63.6,71.6h3.2v17.8h5.5v3h-8.6V71.6H63.6z"/>
	<path d="M76.8,80.2h4.6v3h-4.6v6.1h5.7v3h-8.9V71.6h8.9v3h-5.7V80.2z"/>
</g>
</svg>
