<?xml version="1.0" encoding="utf-8"?>
<!-- Generator: Adobe Illustrator 22.1.0, SVG Export Plug-In . SVG Version: 6.00 Build 0)  -->
<svg version="1.1" id="Layer_1" xmlns="http://www.w3.org/2000/svg" xmlns:xlink="http://www.w3.org/1999/xlink" x="0px" y="0px"
	 viewBox="0 0 134 134" style="enable-background:new 0 0 134 134;" xml:space="preserve">
<style type="text/css">
	.st0{fill:none;stroke:#000000;stroke-miterlimit:10;}
</style>
<circle class="st0" cx="67" cy="67" r="66"/>
<g>
	<path d="M37.6,44.7h5.7v4.2h-5.7v11.7h-4.4V32h11.9v4h-7.5V44.7h-0.2l0,0H37.6z"/>
	<path d="M56.5,60.8c-0.2-0.9-0.2-1.1-0.2-3.5v-4.4c0-2.6-0.9-3.5-2.9-3.5h-1.5v11.7h-4.4V32.3h6.8c4.6,0,6.8,2,6.8,6.8v2.2
		c0,2.9-0.9,4.8-2.9,5.7c2.2,0.9,2.9,3.1,2.9,6.2v4.4c0,1.5,0,2.2,0.7,3.5H57C56.5,61.7,56.5,60.8,56.5,60.8z M51.7,36.3v8.8h1.8
		c1.8,0,2.6-0.9,2.6-2.9v-2.9c0-2-0.7-2.9-2.2-2.9C53.9,36.3,51.7,36.3,51.7,36.3z"/>
	<path d="M67.8,32v22.4c0,2,0.9,2.9,2.2,2.9c1.5,0,2.2-0.9,2.2-2.9V32h4.4v22.2c0,4.6-2.2,7.5-6.8,7.5S63,59.1,63,54.2v-22h4.4v-0.2
		C67.4,31.9,67.8,31.9,67.8,32z"/>
	<path d="M79.9,32h4.4v28.8h-4.4V32z"/>
	<path d="M86.7,32h14.1v4.1h-4.6v24.6h-4.4V36.3H87V32H86.7z"/>
	<path d="M49.7,79.7v0.9c0,2.9-0.9,4.8-2.9,5.7c2.2,0.9,3.1,3.1,3.1,6.2v2.2c0,4.4-2.2,6.8-6.8,6.8h-6.8V72.9h6.6
		C47.5,73.1,49.7,75.3,49.7,79.7z M40.5,77.3v7.7h1.8c1.8,0,2.6-0.9,2.6-2.9v-1.5c0-2-0.7-2.9-2.2-2.9h-2v-0.2h-0.2V77.3z
		 M40.5,89.2V98h2.6c1.5,0,2.2-0.7,2.2-2.9v-2.6c0-2.6-0.9-3.5-2.9-3.5h-2C40.5,88.7,40.5,89.2,40.5,89.2z"/>
	<path d="M57.2,85.2h6.2v4h-6.2v8.6h7.9v4H52.8V73.1h12.3v4h-7.9C57.2,77.1,57.2,85.2,57.2,85.2z"/>
	<path d="M72.2,85.2h6.2v4h-6.2v8.6h7.9v4H67.8V73.1h12.3v4h-7.9C72.2,77.1,72.2,85.2,72.2,85.2z"/>
	<path d="M92.4,101.9c-0.2-0.9-0.2-1.1-0.2-3.5V94c0-2.6-0.9-3.5-2.9-3.5h-1.5v11.6h-4.4V73.3h6.8c4.6,0,6.8,2,6.8,6.8v2.2
		c0,2.9-0.9,4.8-2.9,5.7c2.2,0.9,2.9,3.1,2.9,6.2v4.4c0,1.5,0,2.2,0.7,3.5h-4.8v-0.2C92.9,101.8,92.4,101.8,92.4,101.9z M87.6,77.3
		v8.8h1.8c1.8,0,2.6-0.9,2.6-2.9v-2.9c0-2-0.7-2.9-2.2-2.9C89.8,77.3,87.6,77.3,87.6,77.3z"/>
</g>
</svg>
