<?xml version="1.0" encoding="utf-8"?>
<!-- Generator: Adobe Illustrator 22.1.0, SVG Export Plug-In . SVG Version: 6.00 Build 0)  -->
<svg version="1.1" id="Layer_1" xmlns="http://www.w3.org/2000/svg" xmlns:xlink="http://www.w3.org/1999/xlink" x="0px" y="0px"
	 viewBox="0 0 134 134" style="enable-background:new 0 0 134 134;" xml:space="preserve">
<style type="text/css">
	.st0{fill:none;stroke:#000000;stroke-miterlimit:10;}
</style>
<circle class="st0" cx="67" cy="67" r="66"/>
<g>
	<path d="M36,51.2h4.6v6.5c0,3.3-1.6,5.2-4.9,5.2c-3.1,0-4.9-2-4.9-5.2V47c0-3.3,1.6-5.2,4.9-5.2c3.1,0,4.9,2,4.9,5.2v2h-3.1v-2.3
		c0-1.5-0.7-2-1.6-2s-1.6,0.5-1.6,2v11.1c0,1.5,0.7,2,1.6,2s1.6-0.5,1.6-2V54H36V51.2z"/>
	<path d="M45.8,50.7h4.4v2.9h-4.4v6h5.5v2.9h-8.8V42.1h8.8V45h-5.5V50.7z"/>
	<path d="M60.1,62.6c-0.2-0.5-0.3-0.8-0.3-2.4v-3.3c0-2-0.7-2.6-2.1-2.6h-1.1v8.3h-3.3V42.1h4.9c3.4,0,4.7,1.6,4.7,4.7v1.6
		c0,2.1-0.7,3.4-2.1,4.2c1.6,0.7,2.1,2.3,2.1,4.4v3.1c0,1,0,1.8,0.3,2.4L60.1,62.6L60.1,62.6z M56.5,45v6.4h1.3c1.1,0,2-0.5,2-2.1
		v-2c0-1.5-0.5-2.1-1.6-2.1h-1.6V45H56.5z"/>
	<path d="M72,56.7l2.1-14.5h4.6v20.4h-3.1V47.9l-2.3,14.7h-2.9L68,48.1v14.5h-2.8V42.1h4.6L72,56.7z"/>
	<path d="M91.4,62.6h-3.3l-0.5-3.7h-3.9L83,62.6h-2.9l3.3-20.5h4.7L91.4,62.6z M84,56.1h3.1l-1.6-10.4L84,56.1z"/>
	<path d="M95.8,47.8v14.8h-2.9V42.1H97l3.3,12.2V42.1h2.9v20.5h-3.3L95.8,47.8z"/>
	<path d="M40.4,71.4h3.2V89H49v2.9h-8.5V71.4H40.4z"/>
	<path d="M60.7,91.9h-3.3l-0.5-3.7H53l-0.7,3.7h-2.9l3.3-20.5h4.7L60.7,91.9z M53.4,85.4h3.1L54.9,75L53.4,85.4z"/>
	<path d="M67.1,80.5h4.6V87c0,3.3-1.6,5.2-4.9,5.2c-3.3,0-4.9-2-4.9-5.2V76.3c0-3.3,1.6-5.2,4.9-5.2c3.3,0,4.9,2,4.9,5.2v2h-3.1V76
		c0-1.5-0.7-2-1.6-2s-1.6,0.5-1.6,2v11.1c0,1.5,0.7,2,1.6,2s1.6-0.5,1.6-2v-3.7h-1.5V80.5z"/>
	<path d="M76.9,80h4.4v3h-4.4v6h5.5v2.9h-8.8V71.4h8.8v2.9h-5.5V80z"/>
	<path d="M91.2,91.9c-0.2-0.5-0.3-0.8-0.3-2.4v-3.3c0-2-0.7-2.6-2.1-2.6h-1.2v8.3h-3.3V71.4h4.9c3.4,0,4.7,1.6,4.7,4.7v1.6
		c0,2.1-0.7,3.4-2.1,4.2c1.6,0.7,2.1,2.3,2.1,4.4v3.1c0,1,0,1.8,0.3,2.4C94.3,91.9,91.2,91.9,91.2,91.9z M87.6,74.3v6.4h1.3
		c1.1,0,2-0.5,2-2.1v-2c0-1.5-0.5-2.1-1.6-2.1h-1.7V74.3z"/>
</g>
</svg>
