<?xml version="1.0" encoding="utf-8"?>
<!-- Generator: Adobe Illustrator 22.1.0, SVG Export Plug-In . SVG Version: 6.00 Build 0)  -->
<svg version="1.1" id="Layer_1" xmlns="http://www.w3.org/2000/svg" xmlns:xlink="http://www.w3.org/1999/xlink" x="0px" y="0px"
	 viewBox="0 0 134 134" style="enable-background:new 0 0 134 134;" xml:space="preserve">
<style type="text/css">
	.st0{fill:none;stroke:#000000;stroke-miterlimit:10;}
</style>
<circle class="st0" cx="67" cy="67" r="66"/>
<g>
	<path d="M35.3,51h4.7v6.7c0,3.3-1.7,5.3-5,5.3c-3.2,0-5-2-5-5.3v-11c0-3.3,1.7-5.3,5-5.3c3.2,0,5,2,5,5.3v2h-3.2v-2.3
		c0-1.5-0.7-2-1.7-2s-1.7,0.5-1.7,2v11.4c0,1.5,0.7,2,1.7,2s1.7-0.5,1.7-2V54h-1.5V51z"/>
	<path d="M45.3,50.5h4.5v3h-4.5v6.2h5.7v3h-9V41.5h9v3h-5.7V50.5z"/>
	<path d="M59.9,62.7c-0.2-0.5-0.3-0.8-0.3-2.5v-3.3c0-2-0.7-2.7-2.2-2.7h-1.2v8.5h-3.3V41.5h5c3.5,0,4.8,1.7,4.8,4.8V48
		c0,2.2-0.7,3.5-2.2,4.3c1.7,0.7,2.2,2.3,2.2,4.5V60c0,1,0,1.8,0.3,2.5h-3.1V62.7z M56.3,44.5V51h1.4c1.2,0,2-0.5,2-2.2v-2
		c0-1.5-0.5-2.2-1.7-2.2L56.3,44.5L56.3,44.5z"/>
	<path d="M72.2,56.5l2.2-14.9H79v20.9h-3.2v-15l-2.3,15h-3L68,47.6v14.9h-2.8v-21h4.7L72.2,56.5z"/>
	<path d="M92.1,62.7h-3.3l-0.5-3.8h-4l-0.7,3.8h-3l3.3-21.1h4.8L92.1,62.7z M84.6,56h3.2l-1.7-10.7L84.6,56z"/>
	<path d="M96.6,47.5v15.2h-3V41.5h4.2l3.3,12.5V41.5h3v21.1h-3.3L96.6,47.5z"/>
	<path d="M62.3,92.6h-3.3l-0.5-3.8h-4l-0.7,3.8h-3l3.3-21.1h4.8L62.3,92.6z M54.8,86.1h3.2l-1.7-10.7L54.8,86.1z"/>
	<path d="M63.8,71.6h3.3v18h5.5v3h-8.9L63.8,71.6L63.8,71.6z"/>
	<path d="M77.3,80.4h4.5v3h-4.5v6.2H83v3h-9v-21h9v3h-5.7V80.4z"/>
</g>
</svg>
