<?xml version="1.0" encoding="utf-8"?>
<!-- Generator: Adobe Illustrator 22.1.0, SVG Export Plug-In . SVG Version: 6.00 Build 0)  -->
<svg version="1.1" id="Layer_1" xmlns="http://www.w3.org/2000/svg" xmlns:xlink="http://www.w3.org/1999/xlink" x="0px" y="0px"
	 viewBox="0 0 134 134" style="enable-background:new 0 0 134 134;" xml:space="preserve">
<style type="text/css">
	.st0{fill:none;stroke:#010101;stroke-miterlimit:10;}
	.st1{fill:#010101;}
</style>
<circle class="st0" cx="67" cy="67" r="66"/>
<g>
	<path class="st1" d="M30.5,34.5h5.3v7.4c0,3.7-1.8,5.8-5.5,5.8s-5.5-2.1-5.5-5.8V29.5c0-3.7,1.8-5.8,5.5-5.8s5.5,2.1,5.5,5.8v2.1
		h-3.4v-2.4c0-1.6-0.5-2.4-1.8-2.4s-1.8,0.5-1.8,2.4v13.2c0,1.8,0.5,2.1,1.8,2.1s1.8-0.5,1.8-2.1v-4.5h-1.6v-3.4
		C30.7,34.5,30.5,34.5,30.5,34.5z"/>
	<path class="st1" d="M42.1,34h5.3v3.4h-5.3v7.1h6.6v3.4H38.4v-24h10.3v3.4h-6.6V34z"/>
	<path class="st1" d="M59,48c-0.3-0.5-0.3-1.1-0.3-2.9v-3.7c0-2.1-0.5-3.2-2.4-3.2h-1.6V48H51V24h5.5c4,0,5.5,1.8,5.5,5.5v1.8
		c0,2.4-1.1,4-2.4,5c1.8,1.1,2.4,2.4,2.4,5V45c0,1.3,0,1.8,0.3,2.9L59,48L59,48z M54.5,27.4v7.4h1.6c1.6,0,2.1-0.5,2.1-2.4V30
		c0-1.6-0.5-2.4-1.8-2.4C56.3,27.4,54.5,27.4,54.5,27.4z"/>
	<path class="st1" d="M72.7,41.1l2.4-17.2h5.3v24H77V30.8L74.6,48h-3.4l-2.9-16.9V48h-3.4V24h5.3L72.7,41.1z"/>
	<path class="st1" d="M95.4,48h-3.7l-0.5-4.5h-4.8L85.9,48h-3.4l3.7-24h5.5L95.4,48z M87,40.1h3.7L88.9,28L87,40.1z"/>
	<path class="st1" d="M100.7,30.6V48h-3.4V24h4.8l3.7,14.3V24h3.4v24h-3.8L100.7,30.6z"/>
	<path class="st1" d="M28.1,55.1h5.8c3.7,0,5.5,2.1,5.5,5.8V73c0,3.7-1.8,5.8-5.5,5.8h-5.8V55.1z M31.8,58.6v17.2h2.1
		c1.3,0,1.8-0.5,1.8-2.1V61.2c0-1.6-0.5-2.1-1.8-2.1h-2.1V58.6z"/>
	<path class="st1" d="M45.5,55.1v18.5c0,1.6,0.5,2.1,1.8,2.1s1.8-0.5,1.8-2.1V55.1h3.4v18.5c0,3.7-1.8,5.8-5.5,5.8s-5.5-2.1-5.5-5.8
		V55.1H45.5z"/>
	<path class="st1" d="M59,61.7v17.4h-3.4v-24h4.8l3.7,14.3V55.1h3.3v24h-3.7L59,61.7z"/>
	<path class="st1" d="M75.1,69.4l-1.3,2.1v7.4h-3.7V55.1h3.7v10.6l5-10.6h3.7l-5.3,10.6l5.3,13.5h-3.7L75.1,69.4z"/>
	<path class="st1" d="M88.3,65.2h5.3v3.4h-5.3v7.1h6.6v3.4H84.6v-24h10.3v3.4h-6.6V65.2z"/>
	<path class="st1" d="M97.3,55.1h3.7v20.6h6.3v3.4h-10V55.1z"/>
	<path class="st1" d="M37.9,97.6l-1.3,12.7h-5.3l-2.9-24h3.7l1.8,19l1.8-19h3.7l1.8,19l1.8-19h3.4l-2.9,24h-5L37.9,97.6z"/>
	<path class="st1" d="M52.4,96.3h5.3v3.4h-5.3v7.1H59v3.4H48.7v-24H59v3.4h-6.6V96.3z"/>
	<path class="st1" d="M61.1,86.3h3.7v24h-3.7V86.3z"/>
	<path class="st1" d="M78.3,86.3v3.4l-7.1,17.2h7.1v3.4H66.9v-3.4L74,89.7h-6.9v-3.4C67.1,86.3,78.3,86.3,78.3,86.3z"/>
	<path class="st1" d="M84.3,96.3h5.3v3.4h-5.3v7.1h6.6v3.4H80.6v-24h10.3v3.4h-6.6V96.3z"/>
	<path class="st1" d="M96.5,92.9v17.4h-3.4v-24h4.8l3.7,14.3V86.3h3.4v24h-3.7L96.5,92.9z"/>
</g>
</svg>
