<?xml version="1.0" encoding="utf-8"?>
<!-- Generator: Adobe Illustrator 22.1.0, SVG Export Plug-In . SVG Version: 6.00 Build 0)  -->
<svg version="1.1" id="Layer_1" xmlns="http://www.w3.org/2000/svg" xmlns:xlink="http://www.w3.org/1999/xlink" x="0px" y="0px"
	 viewBox="0 0 134 134" style="enable-background:new 0 0 134 134;" xml:space="preserve">
<style type="text/css">
	.st0{fill:none;stroke:#010101;stroke-miterlimit:10;}
	.st1{fill:#010101;}
</style>
<circle class="st0" cx="67" cy="67" r="66"/>
<g>
	<path class="st1" d="M29.8,34.3h5.4v7.5c0,3.8-1.9,5.9-5.7,5.9s-5.7-2.2-5.7-5.9V29.2c0-3.8,1.9-5.9,5.7-5.9s5.7,2.2,5.7,5.9v2.2
		h-3.5V29c0-1.9-0.5-2.4-1.9-2.4s-1.9,0.5-1.9,2.4v13.2c0,1.9,0.5,2.2,1.9,2.2s1.9-0.5,1.9-2.2v-4.3h-1.6v-3.5L29.8,34.3L29.8,34.3z
		"/>
	<path class="st1" d="M41.4,33.8h5.4v3.5h-5.4v7.3h6.7v3.5H37.9V23.8h10.2v3.5h-6.5v6.5H41.4z"/>
	<path class="st1" d="M58.4,47.8c-0.3-0.5-0.3-0.8-0.3-2.7v-4c0-2.2-0.5-3.2-2.4-3.2h-1.3v9.7h-3.8V23.8h5.7c4,0,5.7,1.9,5.7,5.7
		v1.9c0,2.4-0.8,4-2.4,5.1c1.9,0.8,2.4,2.4,2.4,5.1v3.8c0,1.3,0,1.9,0.3,2.7h-3.8v-0.3H58.4z M54,27v7.5h1.6c1.6,0,2.2-0.5,2.2-2.4
		v-2.4c0-1.6-0.5-2.4-1.9-2.4C56,27,54,27,54,27z"/>
	<path class="st1" d="M72.1,40.8l2.4-17h5.4V48h-3.5V30.8L73.9,48h-3.5l-2.7-17v17h-3.5V23.8h5.4L72.1,40.8z"/>
	<path class="st1" d="M94.9,47.8h-3.8l-0.5-4.3h-4.8l-0.5,4.3h-3.5l3.8-24.2h5.7L94.9,47.8z M86.6,40h3.5l-1.9-12.1L86.6,40z"/>
	<path class="st1" d="M100.4,30.3v17.5h-3.5v-24h4.6l3.8,14.3V23.8h3.5V48h-3.8L100.4,30.3z"/>
	<path class="st1" d="M25,69.3l-1.3,2.2V79h-3.8V54.8h3.8v10.8l5.1-10.8h3.7l-5.1,10.8l5.4,13.5H29L25,69.3z"/>
	<path class="st1" d="M42.2,79c-0.3-0.5-0.3-0.8-0.3-2.7v-4c0-2.2-0.5-3.2-2.4-3.2h-1.3v9.7h-3.8V54.5h5.7c4,0,5.7,1.9,5.7,5.7v1.9
		c0,2.4-0.8,4-2.4,5.1c1.6,1.1,2.2,2.4,2.2,5.1v3.8c0,1.3,0,1.9,0.3,2.7h-3.8v0.3h0.1V79z M37.9,58.5V66h1.6c1.6,0,2.2-0.5,2.2-2.4
		v-2.4c0-1.9-0.5-2.4-1.9-2.4C39.8,58.5,37.9,58.5,37.9,58.5z"/>
	<path class="st1" d="M48,55h3.8v24.2H48V55z"/>
	<path class="st1" d="M59.7,54.8c3.8,0,5.7,2.2,5.7,5.9v0.5h-3.5v-0.8c0-1.9-0.5-2.4-1.9-2.4S58,58.5,58,60.4
		c0,5.1,7.5,5.9,7.5,12.9c0,3.8-1.9,5.9-5.7,5.9s-5.7-2.2-5.7-5.9v-1.6h3.5v1.9c0,1.9,0.5,2.2,1.9,2.2s1.9-0.8,1.9-2.4
		c0-5.1-7.5-5.9-7.5-12.9C54,56.9,56.2,54.8,59.7,54.8z"/>
	<path class="st1" d="M66.4,55h11.6v3.5h-4v20.7h-3.8V58.5h-4V55C66.1,55,66.4,55,66.4,55z"/>
	<path class="st1" d="M90.6,79h-3.8l-0.5-4.3h-4.6L81.3,79h-3.5l3.7-24.2h5.7L90.6,79z M82.1,71.3h3.8l-2.2-11.8L82.1,71.3z"/>
	<path class="st1" d="M92.6,55h3.8v20.7h6.2v3.5h-10V55z"/>
	<path class="st1" d="M104.1,55h3.8v20.7h6.2v3.5h-10V55z"/>
	<path class="st1" d="M37,97.6l-1.3,12.9h-5.4l-2.7-24.2h3.8l1.9,19.1l1.9-19.1H39l1.9,19.1l1.9-19.1h3.5l-2.7,24.2h-5.1L37,97.6z"
		/>
	<path class="st1" d="M51.9,96.3h5.4v3.5h-5.4v7.3h6.5v3.5H48V86.3h10.2v3.5h-6.5v6.5H51.9z"/>
	<path class="st1" d="M60.5,86.3h3.8v24.2h-3.8V86.3z"/>
	<path class="st1" d="M77.8,86.3v3.5L70.4,107h7.3v3.5h-11V107l7.3-17.2h-7v-3.5C67.3,86.3,77.8,86.3,77.8,86.3z"/>
	<path class="st1" d="M83.6,96.3h5.4v3.5h-5.4v7.3h6.5v3.5H79.9V86.3h10.2v3.5h-6.5C83.6,89.8,83.6,96.3,83.6,96.3z"/>
	<path class="st1" d="M96.1,93v17.5h-3.5V86.3h4.6l3.8,14.3V86.3h3.5v24.2h-3.8L96.1,93z"/>
</g>
</svg>
