<?xml version="1.0" encoding="utf-8"?>
<!-- Generator: Adobe Illustrator 22.1.0, SVG Export Plug-In . SVG Version: 6.00 Build 0)  -->
<svg version="1.1" id="Layer_1" xmlns="http://www.w3.org/2000/svg" xmlns:xlink="http://www.w3.org/1999/xlink" x="0px" y="0px"
	 viewBox="0 0 134 134" style="enable-background:new 0 0 134 134;" xml:space="preserve">
<style type="text/css">
	.st0{fill:none;stroke:#000000;stroke-miterlimit:10;}
</style>
<circle class="st0" cx="67" cy="67" r="66"/>
<g>
	<path d="M30.9,48.7h5.2v7.5c0,3.9-1.8,5.9-5.7,5.9s-5.7-2.3-5.7-5.9V43.7c0-3.9,1.8-5.9,5.7-5.9s5.7,2.3,5.7,5.9V46h-3.6v-2.5
		c0-1.8-0.7-2.3-2-2.3c-1.1,0-2,0.7-2,2.3v13c0,1.8,0.7,2.3,2,2.3c1.1,0,2-0.7,2-2.3v-4.4h-1.8v-3.4H30.9z"/>
	<path d="M42.3,48.3h5.2v3.4h-5.2v7.1h6.4V62H38.4V38h10.2v3.4h-6.4v6.9H42.3z"/>
	<path d="M58.9,61.9c-0.2-0.7-0.5-0.9-0.5-3v-3.6c0-2.3-0.7-3-2.5-3h-1.3v9.6h-3.9V38h5.7c3.9,0,5.5,1.8,5.5,5.5v1.8
		c0,2.5-0.7,4.1-2.5,4.8c1.8,0.7,2.5,2.5,2.5,5v3.6c0,1.1,0,2,0.5,3H59L58.9,61.9L58.9,61.9z M54.8,41.4v7.3h1.4
		c1.4,0,2.3-0.7,2.3-2.5v-2.3c0-1.6-0.7-2.5-1.8-2.5H54.8z"/>
	<path d="M72.8,55.1L75.3,38h5.2v23.9h-3.6V44.8l-2.5,17.1h-3.6L68,45.1v16.8h-3.2V38H70L72.8,55.1z"/>
	<path d="M95.3,61.9h-3.9l-0.5-4.3h-4.6l-0.7,4.3h-3.4L86.1,38h5.5L95.3,61.9z M86.9,54.4h3.6l-1.8-12.1L86.9,54.4z"/>
	<path d="M100.6,44.6v17.3h-3.4V38h4.8l3.9,14.3V38h3.4v23.9h-3.9L100.6,44.6z"/>
	<path d="M37.3,78.1v3.2c0,3.9-1.8,5.9-5.7,5.9h-1.8v8.9h-3.6V72.2h5.4C35.5,72.2,37.3,74.2,37.3,78.1z M29.8,75.6v8.2h1.8
		c1.1,0,1.8-0.5,1.8-2.3v-3.6c0-1.8-0.7-2.3-1.8-2.3C31.6,75.6,29.8,75.6,29.8,75.6z"/>
	<path d="M39.1,72.2H43v23.9h-3.9V72.2z"/>
	<path d="M45.7,72.2h3.9v20.5h6.1v3.4h-10C45.7,96,45.7,72.2,45.7,72.2z"/>
	<path d="M62.3,71.9c3.6,0,5.5,2.3,5.5,5.9v0.7h-3.6v-0.9c0-1.8-0.7-2.3-1.8-2.3s-1.8,0.7-1.8,2.3c0,5,7.3,5.9,7.3,12.7
		c0,3.9-1.8,5.9-5.7,5.9s-5.7-2.3-5.7-5.9v-1.4h3.6v1.8c0,1.8,0.7,2.3,2,2.3c1.1,0,2-0.7,2-2.3c0-5-7.3-5.9-7.3-12.7
		C56.6,74.2,58.7,71.9,62.3,71.9z"/>
	<path d="M73.2,78.8v17.3h-3.4V72.2h4.8l3.9,14.3V72.2h3.4v23.9H78L73.2,78.8z"/>
	<path d="M88.3,82.4h5.2v3.4h-5.2v7.1h6.6v3.2H84.6V72.2h10.2v3.4h-6.6L88.3,82.4L88.3,82.4z"/>
	<path d="M104.9,96c-0.2-0.5-0.2-0.9-0.2-3v-3.6c0-2.3-0.7-3-2.5-3h-1.4V96h-3.9V72.2h5.7c3.9,0,5.5,1.8,5.5,5.5v1.8
		c0,2.5-0.7,4.1-2.5,4.8c1.8,0.7,2.5,2.5,2.5,5v3.6c0,1.1,0,2,0.5,3L104.9,96L104.9,96L104.9,96z M100.8,75.6v7.3h1.6
		c1.4,0,2.3-0.7,2.3-2.5v-2.3c0-1.8-0.7-2.5-1.8-2.5C102.8,75.6,100.8,75.6,100.8,75.6z"/>
</g>
</svg>
