<?xml version="1.0" encoding="utf-8"?>
<!-- Generator: Adobe Illustrator 22.1.0, SVG Export Plug-In . SVG Version: 6.00 Build 0)  -->
<svg version="1.1" id="Layer_1" xmlns="http://www.w3.org/2000/svg" xmlns:xlink="http://www.w3.org/1999/xlink" x="0px" y="0px"
	 viewBox="0 0 134 134" style="enable-background:new 0 0 134 134;" xml:space="preserve">
<style type="text/css">
	.st0{fill:none;stroke:#000000;stroke-miterlimit:10;}
</style>
<circle class="st0" cx="67" cy="67" r="66"/>
<g>
	<path d="M32.2,49.3h5.1v7.3c0,3.7-1.8,5.7-5.5,5.7s-5.5-2.2-5.5-5.7V44.6c0-3.7,1.8-5.7,5.5-5.7s5.5,2.2,5.5,5.7v2.2h-3.5v-2.4
		c0-1.8-0.7-2.2-2-2.2c-1.1,0-2,0.7-2,2.2v12.5c0,1.8,0.7,2.2,2,2.2c1.1,0,2-0.7,2-2.2v-4.2H32v-3.3H32.2z"/>
	<path d="M43.2,48.9h5.1v3.3h-5.1V59h6.2v3.1h-9.9V39.1h9.9v3.3h-6.2C43.2,42.3,43.2,48.9,43.2,48.9z"/>
	<path d="M59.3,62.2c-0.2-0.7-0.4-0.9-0.4-2.9v-3.5c0-2.2-0.7-2.9-2.4-2.9h-1.3v9.3h-3.7V39.1h5.5c3.7,0,5.3,1.8,5.3,5.3v1.8
		c0,2.4-0.7,4-2.4,4.6c1.8,0.7,2.4,2.4,2.4,4.8V59c0,1.1,0,2,0.4,2.9h-3.3L59.3,62.2L59.3,62.2z M55.3,42.3v7h1.3
		c1.3,0,2.2-0.7,2.2-2.4v-2.2c0-1.8-0.7-2.4-1.8-2.4C57,42.3,55.3,42.3,55.3,42.3z"/>
	<path d="M72.7,55.6l2.4-16.5h5.1v23.1h-3.5V45.7l-2.5,16.5h-3.5l-2.6-16.3v16.3H65V39.1h5.1L72.7,55.6z"/>
	<path d="M94.5,62.2h-3.8l-0.4-4.2h-4.4l-0.7,4.2h-3.3l3.8-23.1H91L94.5,62.2z M86.3,54.8h3.5l-1.8-11.7L86.3,54.8z"/>
	<path d="M99.5,45.4v16.7h-3.3V39.1h4.6l3.7,13.9V39.1h3.3v23.1h-3.7L99.5,45.4z"/>
	<path d="M38.8,82.8l-1.3,12.3h-5.1l-2.6-23.1h3.5l2,18.3L37,72h3.5l1.8,18.3l2-18.3h3.1L45,95.2h-4.8L38.8,82.8z"/>
	<path d="M53.1,82h5.1v3.3h-5.1v6.8h6.2v3.1h-9.9V72.1h9.9v3.3h-6.2C53.1,75.4,53.1,82,53.1,82z"/>
	<path d="M61.5,72.1H65v23.1h-3.5C61.5,95.2,61.5,72.1,61.5,72.1z"/>
	<path d="M77.8,72.1v3.3l-6.8,16.5h6.8v3.3H67.2v-3.3L74,75.3h-6.6V72C67.4,72,77.8,72,77.8,72.1z"/>
	<path d="M83.7,82h5.1v3.3h-5.1v6.8h6.2v3.1h-9.9V72.1h9.9v3.3h-6.2V82z"/>
	<path d="M95.3,78.5v16.7H92V72.1h4.6l3.7,13.9V72.1h3.3v23.1H100L95.3,78.5z"/>
</g>
</svg>
