<?xml version="1.0" encoding="utf-8"?>
<!-- Generator: Adobe Illustrator 22.1.0, SVG Export Plug-In . SVG Version: 6.00 Build 0)  -->
<svg version="1.0" id="Layer_1" xmlns="http://www.w3.org/2000/svg" xmlns:xlink="http://www.w3.org/1999/xlink" x="0px" y="0px"
	 viewBox="0 0 133 133" style="enable-background:new 0 0 133 133;" xml:space="preserve">
<style type="text/css">
	.st0{display:none;}
	.st1{fill:none;stroke:#000000;stroke-miterlimit:10;}
</style>
<g id="bsHTkg_1_" class="st0">
	
		<image style="display:inline;overflow:visible;enable-background:new    ;" width="55" height="55" id="bsHTkg" xlink:href="42C827E2.png"  transform="matrix(1 0 0 1 -10.75 39)">
	</image>
</g>
<circle class="st1" cx="66.5" cy="66.5" r="66"/>
<path d="M39.4,45.5h-3.4V23.2h3.4v9.5h3.9v-9.5h3.7v22.2h-3.7v-9.5h-3.9V45.5z"/>
<path d="M49.1,28.4c0-3.7,2-5.6,5.4-5.6c3.4,0,5.4,2,5.4,5.6v11.5c0,3.7-2,5.6-5.4,5.6c-3.4,0-5.4-2-5.4-5.6V28.4z M52.6,40.3
	c0,1.7,0.7,2.2,1.7,2.2c1,0,1.7-0.5,1.7-2.2v-12c0-1.7-0.7-2.2-1.7-2.2c-1,0-1.7,0.5-1.7,2.2V40.3z"/>
<path d="M65,29.3v16.1h-3.2V23.2h4.4l3.7,13.2V23.2h3.2v22.2h-3.7L65,29.3z"/>
<path d="M79,32.5h4.9v3.2H79v6.6h6.1v3.2h-9.5V23.2h9.5v3.2H79V32.5z"/>
<path d="M90.5,37.9L86.1,23h3.7l2.7,10l2.7-10h3.4l-4.4,14.9v7.3h-3.4v-7.3H90.5z"/>
<path d="M41.8,65.3L40.6,77h-4.9l-2.4-22.2h3.4l2,17.6l1.7-17.6h3.4l1.7,17.6l1.7-17.6h2.9L47.7,77H43L41.8,65.3z"/>
<path d="M55.5,77.3h-3.4V55h3.4v9.5h3.9V55h3.7v22.2h-3.7v-9.5h-3.9V77.3z"/>
<path d="M68.9,64.3h4.9v3.2h-4.9v6.6h6.1v3.2h-9.5V55h9.5v3.2h-6.1V64.3z"/>
<path d="M88.5,77.3h-3.4l-0.5-4.2h-4.4l-0.5,4.2h-3.2L80.2,55h5.1L88.5,77.3z M80.7,70.2h3.4l-1.7-11.2L80.7,70.2z"/>
<path d="M89.2,55H100v3.2h-3.7v19.1h-3.4V58.2h-3.7V55z"/>
<path d="M53.8,91.9v0.7c0,2.2-0.7,3.7-2.2,4.4c2,0.7,2.7,2.4,2.7,4.9v1.7c0,3.4-1.7,5.4-5.4,5.4h-5.6V86.8h5.4
	C52.1,86.8,53.8,88.5,53.8,91.9z M46.7,90v5.9h1.5c1.2,0,2.2-0.5,2.2-2.4v-1.2c0-1.7-0.5-2.2-1.7-2.2H46.7z M46.7,99v6.8h2
	c1.2,0,1.7-0.5,1.7-2.2v-2c0-2-0.7-2.7-2.2-2.7H46.7z"/>
<path d="M59.7,96.1h4.9v3.2h-4.9v6.6h6.1v3.2h-9.5V86.8h9.5V90h-6.1V96.1z"/>
<path d="M71.4,96.1h4.9v3.2h-4.9v6.6h6.1v3.2h-9.8V86.8h9.5V90h-6.1v6.1H71.4z"/>
<path d="M86.8,109c-0.2-0.5-0.2-1-0.2-2.7v-3.4c0-2-0.7-2.9-2.2-2.9h-1.2v9h-3.4V86.8h5.1c3.7,0,5.1,1.7,5.1,5.1v1.7
	c0,2.2-0.7,3.7-2.2,4.4c1.7,0.7,2.2,2.4,2.2,4.6v3.4c0,1,0,2,0.5,2.7h-3.7V109z M83.1,90v6.8h1.5c1.2,0,2.2-0.5,2.2-2.4v-2.2
	c0-1.7-0.5-2.2-1.7-2.2H83.1z"/>
</svg>
