<?xml version="1.0" encoding="utf-8"?>
<!-- Generator: Adobe Illustrator 22.1.0, SVG Export Plug-In . SVG Version: 6.00 Build 0)  -->
<svg version="1.1" id="Layer_1" xmlns="http://www.w3.org/2000/svg" xmlns:xlink="http://www.w3.org/1999/xlink" x="0px" y="0px"
	 viewBox="0 0 30 59" style="enable-background:new 0 0 30 59;" xml:space="preserve">
<g>
	<rect x="19" y="7.1" width="10" height="2"/>
	<rect x="19" y="13.9" width="4.7" height="2"/>
	<rect x="19" y="20.7" width="10" height="2"/>
	<rect x="19" y="27.5" width="4.7" height="2"/>
	<rect x="19" y="34.3" width="10" height="2"/>
	<path d="M10.8,56c-4.2,0-7.6-3.4-7.6-7.5c0-2.6,1.4-5,3.7-6.4V7c0-2.2,1.8-4,4-4c2.2,0,4,1.7,4,4v35c2.2,1.4,3.7,3.8,3.7,6.4
		C18.4,52.6,15,56,10.8,56 M16.9,41V7c0-3.3-2.8-6-6.1-6S4.7,3.7,4.7,7v34C2.4,42.8,1,45.5,1,48.4c0,5.3,4.4,9.6,9.8,9.6
		s9.7-4.3,9.7-9.6C20.5,45.5,19.2,42.8,16.9,41"/>
	<path d="M12.7,43.3V29.6c0-1-0.9-1.9-1.9-1.9c-1,0-1.9,0.8-1.9,1.9v13.7c-2.1,0.8-3.7,2.8-3.7,5.1c0,3,2.5,5.5,5.6,5.5
		c3.1,0,5.6-2.5,5.6-5.5C16.3,46.1,14.8,44.1,12.7,43.3"/>
</g>
</svg>
