<?xml version="1.0" encoding="utf-8"?>
<!-- Generator: Adobe Illustrator 22.1.0, SVG Export Plug-In . SVG Version: 6.00 Build 0)  -->
<svg version="1.1" id="Layer_1" xmlns="http://www.w3.org/2000/svg" xmlns:xlink="http://www.w3.org/1999/xlink" x="0px" y="0px"
	 viewBox="0 0 38 47" style="enable-background:new 0 0 38 47;" xml:space="preserve">
<g>
	<path d="M1,7.9c0-4.6,2.4-7.2,6.8-7.2s6.8,2.6,6.8,7.2v14.8c0,4.6-2.4,7.2-6.8,7.2S1,27.3,1,22.7V7.9z M5.5,23
		c0,1.9,0.8,2.8,2.3,2.8c1.5,0,2.3-0.8,2.3-2.8V7.5c0-2-0.8-2.8-2.3-2.8c-1.5,0-2.3,1-2.3,2.8V23z M25.6,1h4.2L12,46H7.8L25.6,1z
		 M23.3,24.3c0-4.6,2.4-7.2,6.8-7.2s6.8,2.6,6.8,7.2v14.8c0,4.6-2.4,7.2-6.8,7.2s-6.8-2.6-6.8-7.2V24.3z M27.9,39.5
		c0,1.9,0.8,2.8,2.3,2.8c1.5,0,2.3-0.8,2.3-2.8V24c0-2-0.8-2.8-2.3-2.8c-1.5,0-2.3,1-2.3,2.8V39.5z"/>
</g>
</svg>
