<?xml version="1.0" encoding="utf-8"?>
<!-- Generator: Adobe Illustrator 22.1.0, SVG Export Plug-In . SVG Version: 6.00 Build 0)  -->
<svg version="1.1" id="Layer_1" xmlns="http://www.w3.org/2000/svg" xmlns:xlink="http://www.w3.org/1999/xlink" x="0px" y="0px"
	 viewBox="0 0 25.5 64" style="enable-background:new 0 0 25.5 64;" xml:space="preserve">
<path d="M8.6,39.2C8.2,39.3,8,39.6,8,40c0.4,2.3,0.6,4.2,0.6,5.6c0,0.3,0,0.6,0,0.9c0,0.4,0.3,0.8,0.7,0.8h0c0.4,0,0.7-0.4,0.7-0.8
	c0-0.3,0-0.6,0-0.9c0-1.5-0.2-3.5-0.7-5.9C9.3,39.4,9,39.1,8.6,39.2 M23,23.3c-0.3,2.3-1.1,5.2-1.8,8.4c-1.2,5.1-2.5,10.4-2.5,13.9
	c0,2.8,0.4,5.8,0.8,8.7c0.1,0.7,0.2,1.4,0.3,2.1H5.9c0.1-0.7,0.2-1.4,0.3-2.1c0.4-2.9,0.8-5.8,0.8-8.7c0-3.5-1.3-8.8-2.5-13.9
	c-0.8-3.2-1.5-6.1-1.8-8.4c-0.4-2.8-0.4-6.6-0.3-10.1H4c-0.1,3.5-0.2,7.2,0.3,9.9c0.3,2.2,1.1,5.2,1.8,8.3c0.5,2,1,4.1,1.4,6.1
	c0.1,0.3,0.4,0.5,0.7,0.5c0,0,0.1,0,0.1,0C8.7,38,9,37.6,8.9,37.2c-0.4-2-0.9-4.1-1.4-6.1C6.7,28,6,25.1,5.7,23
	c-0.4-2.7-0.4-6.9-0.2-9.7h17.9C23.4,16.7,23.4,20.5,23,23.3 M19.7,61.5c-0.2,0.3-0.6,0.4-0.9,0.4h-12c-0.4,0-0.7-0.1-0.9-0.4
	c-0.2-0.3-0.4-0.6-0.3-0.9c0.1-0.9,0.1-2.2,0.3-2.9h0h13.9c0,0,0.1,0,0.1,0c0.1,1,0.2,1.9,0.3,2.9C20,60.9,19.9,61.2,19.7,61.5
	 M6.7,3.3c2.7-1,5.4-0.8,6.8-0.6c0.3,0,0.6,0,0.8,0c0.5,0,1-0.1,1.4-0.3c0.6-0.2,1.2-0.3,2.3-0.2c2.3,0.3,4.2,1.9,4.8,4H3
	C3.6,5.6,4.7,4,6.7,3.3 M5,8.6c-0.4,0-0.7,0.3-0.7,0.7c0,0.6-0.1,1.2-0.1,2.6H2.2c0.1-2.1,0.2-3.5,0.2-4.2H23
	c0.1,0.7,0.2,2.1,0.2,4.2H5.5c0-0.7,0.1-1.9,0.1-2.5C5.6,9,5.4,8.6,5,8.6 M24.3,6.8C24.3,6.8,24.3,6.7,24.3,6.8
	C24.3,6.7,24.3,6.7,24.3,6.8c-0.4-2.6-2.9-5.6-6.3-6c-1.4-0.2-2.3,0.1-2.9,0.4c-0.4,0.1-0.6,0.2-0.9,0.2c-0.2,0-0.4,0-0.7-0.1
	C12,1.1,9.1,0.8,6.2,1.9c-3.7,1.4-4.9,4.5-5,4.6c0,0,0,0.1,0,0.1c0,0,0,0.1,0,0.1c0,0.4-0.9,10.8,0,16.8c0.4,2.3,1.1,5.3,1.9,8.5
	c1.2,5,2.5,10.2,2.5,13.5c0,2.7-0.4,5.6-0.7,8.5c-0.3,2.1-0.6,4.3-0.7,6.4c0,0.7,0.2,1.4,0.7,2c0.5,0.5,1.2,0.8,2,0.8h12
	c0.7,0,1.5-0.3,2-0.8c0.5-0.5,0.8-1.2,0.7-2c-0.1-2.1-0.4-4.3-0.7-6.4c-0.4-2.8-0.7-5.7-0.7-8.5c0-3.3,1.3-8.5,2.5-13.5
	c0.8-3.2,1.5-6.2,1.9-8.5C25.2,17.6,24.4,7.2,24.3,6.8"/>
</svg>
