<?xml version="1.0" encoding="utf-8"?>
<!-- Generator: Adobe Illustrator 22.1.0, SVG Export Plug-In . SVG Version: 6.00 Build 0)  -->
<svg version="1.1" id="Layer_1" xmlns="http://www.w3.org/2000/svg" xmlns:xlink="http://www.w3.org/1999/xlink" x="0px" y="0px"
	 viewBox="0 0 63 67" style="enable-background:new 0 0 63 67;" xml:space="preserve">
<path d="M19,50.4h-3.7c-0.4,0-0.7,0.3-0.7,0.7c0,0.4,0.3,0.7,0.7,0.7H19c0.4,0,0.7-0.3,0.7-0.7C19.8,50.7,19.4,50.4,19,50.4
	 M44.7,33.5c0,0.4,0.3,0.7,0.7,0.7h6.6c0.4,0,0.7-0.3,0.7-0.7c0-0.4-0.3-0.7-0.7-0.7h-6.6C45.1,32.8,44.7,33.1,44.7,33.5 M43.3,31.3
	h4.4c0.4,0,0.7-0.3,0.7-0.7c0-0.4-0.3-0.7-0.7-0.7h-4.4c-0.4,0-0.7,0.3-0.7,0.7C42.5,31,42.8,31.3,43.3,31.3 M15.3,23.2H22
	c0.4,0,0.7-0.3,0.7-0.7c0-0.4-0.3-0.7-0.7-0.7h-6.6c-0.4,0-0.7,0.3-0.7,0.7C14.6,22.9,14.9,23.2,15.3,23.2 M50.1,65.1
	c-0.6-0.7-2.4-2.6-4.5-3.5c2.2-1.3,4.2-2.8,6-4.6c0,0,0.1,0,0.1-0.1c0,0,0-0.1,0.1-0.1c2.4-2.5,4.4-5.4,5.8-8.6l2.7,2.7
	c-1,1.1-3.1,4-2.8,7.6c0.2,2.8,1.6,5.1,2.7,6.5H50.1z M25.1,63.4l0.4-1.6c1.8,0.4,3.7,0.6,5.6,0.6c2.1,0,4.2-0.3,6.2-0.8l0.4,1.6
	c-2.1,0.5-4.4,0.8-6.7,0.8C29.1,64.1,27,63.8,25.1,63.4 M12.9,65.1H2.8c1.1-1.5,2.6-3.7,2.8-6.5c0.2-3.6-1.8-6.4-2.8-7.6l2.3-2.2
	c2.5,5.5,6.7,10,12,13C15.1,62.7,13.5,64.3,12.9,65.1 M4.8,30.1l1.6,0.4c-0.5,2-0.8,4.2-0.8,6.3c0,2,0.2,4,0.7,5.8l-1.6,0.4
	c-0.5-2-0.7-4.1-0.7-6.3C3.9,34.5,4.2,32.2,4.8,30.1 M11.7,17.9l1.2,1.2c-2.7,2.8-4.8,6.2-6,10l-1.6-0.4
	C6.5,24.6,8.7,20.9,11.7,17.9 M29.7,2.4c0-0.2,0.2-0.5,0.5-0.5h2.6c0.2,0,0.4,0.3,0.5,0.5l-0.7,5.7c-0.4,0-0.9,0-1.3,0
	c-0.3,0-0.5,0-0.8,0L29.7,2.4z M51.1,55.4l-1.2-1.2c2.7-2.9,4.7-6.4,5.8-10.3l1.6,0.4C56.1,48.5,54,52.3,51.1,55.4 M15.2,54.8h13.4
	c0,0,0,0,0,0c0.2,0.3,0.5,0.5,0.7,0.7c0,0,0,0,0,0.1v3.7c0,0.4,0.3,0.7,0.7,0.7H33c0.4,0,0.7-0.3,0.7-0.7v-3.7c0,0,0,0,0-0.1
	c0.3-0.2,0.5-0.4,0.7-0.7c0,0,0,0,0,0h12.7c-4.3,3.8-9.9,6.1-16,6.1C25,60.9,19.4,58.6,15.2,54.8 M8.6,28.4h45c0,0,1.4,3.5,1.5,7.3
	h-48C7.3,33.1,7.9,30.2,8.6,28.4 M13.7,20.3h34.8c0,0,3,3.1,4.5,6.6H9.3C10.8,23.1,13.7,20.3,13.7,20.3 M31.2,12.8
	c6.1,0,11.6,2.3,15.9,6H15.3C19.5,15.1,25.1,12.8,31.2,12.8 M31.5,48.3c-0.1,0-0.3,0-0.4,0c-0.2-0.4-0.4-1.1-0.7-2.1
	c-0.1-0.2-0.1-0.4-0.2-0.6c-0.3-0.9-0.6-1.9-0.6-3.1c0-0.6,0.1-2.5,1.8-2.5c1.6,0,1.6,2.2,1.6,2.5c0,1.2-0.3,2.3-0.6,3.1
	c-0.1,0.2-0.1,0.4-0.2,0.6c-0.3,0.9-0.5,1.7-0.7,2.1C31.6,48.4,31.6,48.3,31.5,48.3 M7.1,37.2h48.1c0,2.6-0.5,5-1.3,7.3H34.4
	c0.1-0.6,0.2-1.3,0.2-2c0-2.4-1.3-3.9-3.1-3.9c-1.7,0-2.9,1.2-3.2,3h-1.5c-0.9-0.4-2.2-0.6-2.6-0.6c-0.7,0-1.3,0.6-1.3,1.3
	c0,0.7,0.6,1.3,1.3,1.3c0.5,0,1.7-0.2,2.6-0.6h1.4c0,0.5,0.1,1,0.2,1.5H8.4C8.4,44.5,7.1,41.4,7.1,37.2 M13.7,53.3
	c-2-2.1-3.6-4.6-4.8-7.3h19.9c0,0,0,0.1,0,0.1c0.1,0.2,0.1,0.4,0.2,0.6c0.3,0.9,0.5,1.7,0.7,2.1c-1.2,0.6-2.1,1.9-2.1,3.4
	c0,0.4,0.1,0.7,0.2,1.1L13.7,53.3L13.7,53.3z M31.5,54.7c-1.3,0-2.4-1.1-2.4-2.4c0-1.3,1.1-2.4,2.4-2.4c1.3,0,2.4,1.1,2.4,2.4
	C33.9,53.6,32.8,54.7,31.5,54.7 M30.8,56.1c0.2,0,0.5,0.1,0.7,0.1c0.3,0,0.5,0,0.7-0.1v2.4h-1.5V56.1z M48.6,53.3H35.2
	c0.1-0.3,0.2-0.7,0.2-1.1c0-1.6-0.9-2.9-2.3-3.5c0.2-0.5,0.4-1.2,0.7-2.1c0-0.2,0.1-0.4,0.2-0.6c0,0,0,0,0-0.1h19.4
	C52.3,48.7,50.6,51.2,48.6,53.3 M58.4,36.9c0,2.1-0.2,4.1-0.7,6l-1.6-0.4c0.4-1.8,0.6-3.6,0.6-5.5c0-2-0.2-4-0.7-5.8l1.6-0.4
	C58.1,32.6,58.4,34.7,58.4,36.9 M57.3,29.2l-1.6,0.4c-1.1-3.8-3.1-7.2-5.7-10.1l1.2-1.2C53.9,21.4,56.1,25.1,57.3,29.2 M50,17.3
	l-1.2,1.2c-2.8-2.7-6.2-4.8-10-6l0.4-1.6C43.4,12.2,47,14.4,50,17.3 M31.2,9.6c2.3,0,4.6,0.3,6.7,0.8l-0.4,1.6
	c-2-0.5-4.1-0.8-6.3-0.8c-1.9,0-3.7,0.2-5.5,0.6l-0.4-1.6C27.2,9.9,29.1,9.6,31.2,9.6 M23.8,10.6l0.4,1.6c-3.9,1.1-7.4,3.1-10.3,5.8
	l-1.2-1.2C15.8,14,19.6,11.8,23.8,10.6 M5,44.6l1.6-0.4c1.2,3.9,3.3,7.5,6,10.3l-1.2,1.2C8.5,52.6,6.3,48.8,5,44.6 M19.4,61.4
	c-0.1,0-0.3-0.1-0.4-0.2c-2.4-1.2-4.6-2.7-6.5-4.5l1.2-1.2c2.9,2.7,6.4,4.8,10.4,5.9L23.7,63C22.2,62.6,20.8,62.1,19.4,61.4
	 M39.2,62.9l-0.4-1.6c3.8-1.2,7.3-3.3,10.1-6l1.2,1.2C47,59.3,43.3,61.6,39.2,62.9 M62.3,65.3c0,0-3.2-2.9-3.4-6.7
	c-0.3-4,2.9-7,2.9-7c0.1-0.1,0.2-0.3,0.2-0.5c0-0.2-0.1-0.4-0.2-0.5l-3.7-3.6c1.2-3.1,1.8-6.5,1.8-10C59.8,22,48.4,9.7,33.9,8.3
	l0.7-5.7c0,0,0-0.2,0-0.2c0-1.1-0.9-2-1.9-2h-2.6c-1.1,0-1.9,1-1.9,2c0,0,0,0.1,0,0.1l0.7,5.6C14.1,9.4,2.5,21.8,2.5,36.8
	c0,3.7,0.7,7.2,2,10.5l-3.2,3.1C1.1,50.6,1,50.8,1.1,51c0,0.2,0.1,0.4,0.2,0.5c0,0,3.1,3,2.9,7c-0.2,3.8-3.4,6.7-3.4,6.7
	c-0.2,0.2-0.3,0.5-0.2,0.8c0.1,0.3,0.4,0.5,0.7,0.5h12c0.2,0,0.4-0.1,0.6-0.3c0.7-0.9,2.9-3.1,4.9-3.6c3.8,1.8,8,2.8,12.4,2.8
	c4.5,0,8.8-1.1,12.6-2.9c0.1,0,0.1,0.1,0.2,0.1c2.5,0.4,5.2,3.6,5.2,3.6c0.1,0.2,0.3,0.3,0.6,0.3h12c0.3,0,0.6-0.2,0.7-0.5
	C62.6,65.8,62.5,65.5,62.3,65.3"/>
</svg>
