<?xml version="1.0" encoding="utf-8"?>
<!-- Generator: Adobe Illustrator 22.1.0, SVG Export Plug-In . SVG Version: 6.00 Build 0)  -->
<svg version="1.1" id="Layer_1" xmlns="http://www.w3.org/2000/svg" xmlns:xlink="http://www.w3.org/1999/xlink" x="0px" y="0px"
	 viewBox="0 0 134 134" style="enable-background:new 0 0 134 134;" xml:space="preserve">
<style type="text/css">
	.st0{fill:none;stroke:#000000;stroke-miterlimit:10;}
</style>
<circle class="st0" cx="67" cy="67" r="66"/>
<g>
	<path d="M22.1,39.3h3.7V62h-3.7V39.3z"/>
	<path d="M35.8,55.6l2.4-16.2h5v22.7h-3.5V45.8L37.3,62H34l-2.6-16v16h-3V39.3h5L35.8,55.6z"/>
	<path d="M56.3,45v3c0,3.7-1.7,5.6-5.4,5.6h-1.7V62h-3.5V39.3h5.2C54.6,39.3,56.3,41.3,56.3,45z M49.4,42.6v7.8h1.7
		c1.1,0,1.7-0.4,1.7-2.2v-3.5c0-1.7-0.6-2.2-1.7-2.2h-1.7V42.6z"/>
	<path d="M61.7,49.1h5v3.2h-5v6.5h6.1V62h-9.7V39.3h9.7v3.2h-6.1C61.7,42.5,61.7,49.1,61.7,49.1z"/>
	<path d="M77.5,62.1c-0.2-0.4-0.2-0.9-0.2-2.8v-3.5c0-2.2-0.6-2.8-2.4-2.8h-1.3v9.3H70v-23h5.4c3.7,0,5.2,1.7,5.2,5.2v1.7
		c0,2.4-0.6,3.9-2.4,4.5c1.7,0.6,2.4,2.4,2.4,4.8V59c0,1.1,0,1.9,0.4,2.8h-3.5V62.1z M73.6,42.6v6.9h1.5c1.3,0,2.2-0.6,2.2-2.4v-2.2
		c0-1.7-0.6-2.4-1.7-2.4h-2V42.6z"/>
	<path d="M83.2,39.3h3.7V62h-3.7V39.3z"/>
	<path d="M100.9,62.1h-3.7L96.6,58h-4.3l-0.6,4.1h-3.2L92,39.3h5.2L100.9,62.1z M92.7,54.9h3.5l-1.7-11.5L92.7,54.9z"/>
	<path d="M102.6,39.3h3.7v19.5h5.6V62h-9.5V39.3H102.6z"/>
	<path d="M42,71.6c3.5,0,5.2,2.2,5.2,5.6v0.6h-3.5v-0.9c0-1.7-0.6-2.2-1.7-2.2s-1.7,0.6-1.7,2.2c0,4.8,6.9,5.6,6.9,12.1
		c0,3.7-1.7,5.6-5.4,5.6c-3.5,0-5.4-2.2-5.4-5.6v-1.2h3.5v1.7c0,1.7,0.6,2.2,1.9,2.2c1.1,0,1.9-0.6,1.9-2.2c0-4.8-6.9-5.6-6.9-12.1
		C36.9,73.7,38.6,71.6,42,71.6z"/>
	<path d="M48.3,71.8h11V75h-3.7v19.5h-3.5V75h-3.7L48.3,71.8L48.3,71.8z"/>
	<path d="M60.7,77.4c0-3.7,1.9-5.6,5.4-5.6c3.5,0,5.4,2.2,5.4,5.6v11.7c0,3.7-1.9,5.6-5.4,5.6c-3.5,0-5.4-2.2-5.4-5.6
		C60.7,89.1,60.7,77.4,60.7,77.4z M64.3,89.3c0,1.7,0.6,2.2,1.9,2.2c1.1,0,1.9-0.6,1.9-2.2V77c0-1.7-0.6-2.2-1.9-2.2
		c-1.1,0-1.9,0.6-1.9,2.2V89.3z"/>
	<path d="M77.3,71.8v17.5c0,1.7,0.6,2.2,1.9,2.2c1.1,0,1.9-0.6,1.9-2.2V71.8h3.5v17.3c0,3.7-1.7,5.6-5.4,5.6c-3.5,0-5.4-2.2-5.4-5.6
		V71.8H77.3z"/>
	<path d="M85.8,71.8h11V75h-3.7v19.5h-3.7V75h-3.7C85.8,75,85.8,71.8,85.8,71.8z"/>
</g>
</svg>
