<?xml version="1.0" encoding="utf-8"?>
<!-- Generator: Adobe Illustrator 22.1.0, SVG Export Plug-In . SVG Version: 6.00 Build 0)  -->
<svg version="1.1" id="Layer_1" xmlns="http://www.w3.org/2000/svg" xmlns:xlink="http://www.w3.org/1999/xlink" x="0px" y="0px"
	 viewBox="0 0 134 134" style="enable-background:new 0 0 134 134;" xml:space="preserve">
<style type="text/css">
	.st0{fill:none;stroke:#000000;stroke-miterlimit:10;}
</style>
<circle class="st0" cx="67" cy="67" r="66"/>
<g>
	<path d="M34.4,39h3.7V62h-3.7V39z"/>
	<path d="M44,45.3V62h-3.3V39h4.6L49,52.9V39h3.4V62h-3.7L44,45.3z"/>
	<path d="M54.9,39h5.7c3.7,0,5.5,2,5.5,5.7v11.7c0,3.7-1.8,5.7-5.5,5.7h-5.7C54.9,62.1,54.9,39,54.9,39z M58.4,42.3v16.5h2
		c1.1,0,1.8-0.7,1.8-2.2V44.5c0-1.8-0.7-2.2-1.8-2.2H58.4z"/>
	<path d="M68.3,39h3.5V62h-3.5V39z"/>
	<path d="M86.4,62h-3.7L82,57.8h-4.4L76.9,62h-3.3L77.3,39h5.3L86.4,62z M77.9,54.8h3.5L79.6,43L77.9,54.8z"/>
	<path d="M91.1,45.3V62h-3.3V39h4.6l3.7,13.9V39h3.3V62h-3.7L91.1,45.3z"/>
	<path d="M33.5,77.6v3.1c0,3.7-1.8,5.7-5.5,5.7h-1.8v8.6h-3.7V71.9h5.3C31.8,71.9,33.5,73.9,33.5,77.6z M26.5,75.3v7.9h1.8
		c1.1,0,1.8-0.4,1.8-2.2v-3.5c0-1.8-0.7-2.2-1.8-2.2C28.3,75.3,26.5,75.3,26.5,75.3z"/>
	<path d="M46.8,95.1H43l-0.7-4.2h-4.4l-0.5,4.2h-3.3l3.7-23.1h5.3L46.8,95.1z M38.5,87.8H42l-1.8-11.7L38.5,87.8z"/>
	<path d="M48.5,71.9H52v19.8h5.9v3.3h-9.7V71.9H48.5z"/>
	<path d="M63.3,81.9h5.1v3.3h-5.1V92h6.2v3.1h-10V71.9h9.9v3.3h-6.2L63.3,81.9L63.3,81.9z"/>
	<path d="M88.8,95.1h-3.7l-0.7-4.2H80l-0.7,4.2h-3.3l3.7-23.1h5.3L88.8,95.1z M80.4,87.8h3.5l-1.8-11.7L80.4,87.8z"/>
	<path d="M90.3,71.9h3.7v19.8h5.9v3.3h-9.7L90.3,71.9L90.3,71.9z"/>
	<path d="M105.3,81.9h5.1v3.3h-5.1V92h6.2v3.1h-10V71.9h9.9v3.3h-6.2L105.3,81.9L105.3,81.9z"/>
</g>
</svg>
