<?xml version="1.0" encoding="utf-8"?>
<!-- Generator: Adobe Illustrator 22.1.0, SVG Export Plug-In . SVG Version: 6.00 Build 0)  -->
<svg version="1.1" id="Layer_1" xmlns="http://www.w3.org/2000/svg" xmlns:xlink="http://www.w3.org/1999/xlink" x="0px" y="0px"
	 viewBox="0 0 134 134" style="enable-background:new 0 0 134 134;" xml:space="preserve">
<style type="text/css">
	.st0{fill:none;stroke:#000000;stroke-miterlimit:10;}
</style>
<circle class="st0" cx="67" cy="67" r="66"/>
<g>
	<path d="M10.8,46.5h2.6v16.9h-2.6C10.8,63.4,10.8,46.5,10.8,46.5z"/>
	<path d="M17.9,51.1v12.3h-2.4V46.5h3.3l2.8,10v-10h2.2v16.9h-2.7L17.9,51.1z"/>
	<path d="M25,46.5h8.1v2.4h-2.8v14.5h-2.6V48.9h-2.8L25,46.5L25,46.5z"/>
	<path d="M37,53.5h3.7v2.4H37v5h4.6v2.4h-7.3V46.5h7.3v2.4H37V53.5z"/>
	<path d="M48.8,63.4c-0.2-0.4-0.2-0.7-0.2-2v-2.6c0-1.5-0.6-2.2-1.7-2.2H46v6.9h-2.6v-17h4.1c2.8,0,3.9,1.3,3.9,3.9v1.3
		c0,1.7-0.6,2.8-1.7,3.3c1.3,0.6,1.7,1.9,1.7,3.5v2.6c0,0.7,0,1.5,0.4,2h-3V63.4z M46,48.9v5.2h1.1c0.9,0,1.7-0.4,1.7-1.9v-1.7
		c0-1.1-0.4-1.7-1.3-1.7H46V48.9z"/>
	<path d="M55.4,51.1v12.3H53V46.5h3.3l2.8,10v-10h2.4v16.9h-2.8L55.4,51.1z"/>
	<path d="M72,63.4h-2.6L69,60.2h-3.3l-0.4,3.2h-2.4l2.8-16.9h3.9L72,63.4z M65.9,58h2.6l-1.3-8.6L65.9,58z"/>
	<path d="M72.4,46.5h8.2v2.4h-2.8v14.5h-2.6V48.9h-2.8C72.4,48.9,72.4,46.5,72.4,46.5z"/>
	<path d="M81.8,46.5h2.6v16.9h-2.6V46.5z"/>
	<path d="M86.1,50.4c0-2.8,1.5-4.3,4.1-4.3s4.1,1.5,4.1,4.3v8.7c0,2.8-1.5,4.3-4.1,4.3s-4.1-1.5-4.1-4.3V50.4z M88.7,59.5
		c0,1.3,0.6,1.7,1.3,1.7c0.7,0,1.3-0.4,1.3-1.7v-9.1c0-1.3-0.6-1.7-1.3-1.7c-0.7,0-1.3,0.4-1.3,1.7V59.5z"/>
	<path d="M98.2,51.1v12.3h-2.4V46.5h3.3l2.8,10v-10h2.4v16.9h-2.8L98.2,51.1z"/>
	<path d="M114.8,63.4h-2.7l-0.4-3.2h-3.3l-0.4,3.2h-2.4l2.8-16.9h3.9L114.8,63.4z M108.8,58h2.6l-1.3-8.6L108.8,58z"/>
	<path d="M116.1,46.5h2.6V61h4.5v2.4h-7.1C116.1,63.4,116.1,46.5,116.1,46.5z"/>
	<path d="M44.5,70.7h2.6v14.5h4.5v2.4h-7.1V70.7z"/>
	<path d="M61.4,87.7h-2.6l-0.4-3.2h-3.3l-0.4,3.2h-2.4l2.8-17H59L61.4,87.7z M55.3,82.3h2.6l-1.3-8.6L55.3,82.3z"/>
	<path d="M66.6,78.2h3.7v5.4c0,2.8-1.3,4.3-3.9,4.3c-2.6,0-3.9-1.5-3.9-4.3v-8.7c0-2.8,1.3-4.3,3.9-4.3s3.9,1.5,3.9,4.3v1.7h-2.6
		v-1.9c0-1.3-0.6-1.7-1.3-1.7s-1.3,0.3-1.3,1.7v9.1c0,1.1,0.6,1.7,1.3,1.7s1.3-0.4,1.3-1.7v-3.2h-1.1C66.6,80.6,66.6,78.2,66.6,78.2
		z"/>
	<path d="M74.6,77.8h3.7v2.4h-3.7v5h4.6v2.4h-7.3V70.7h7.3v2.4h-4.6V77.8z"/>
	<path d="M86.5,87.7c-0.2-0.4-0.2-0.7-0.2-2v-2.6c0-1.5-0.6-2.2-1.7-2.2h-0.9v6.9h-2.6V70.7h4.1c2.8,0,3.9,1.3,3.9,3.9v1.3
		c0,1.7-0.6,2.8-1.7,3.3c1.3,0.6,1.7,1.9,1.7,3.5v2.6c0,0.7,0,1.5,0.4,2h-3V87.7z M83.5,73.2v5.2h1.1c0.9,0,1.7-0.4,1.7-1.9v-1.7
		c0-1.3-0.4-1.7-1.3-1.7L83.5,73.2L83.5,73.2z"/>
</g>
</svg>
