<?xml version="1.0" encoding="utf-8"?>
<!-- Generator: Adobe Illustrator 22.1.0, SVG Export Plug-In . SVG Version: 6.00 Build 0)  -->
<svg version="1.1" id="Layer_1" xmlns="http://www.w3.org/2000/svg" xmlns:xlink="http://www.w3.org/1999/xlink" x="0px" y="0px"
	 viewBox="0 0 134 134" style="enable-background:new 0 0 134 134;" xml:space="preserve">
<style type="text/css">
	.st0{fill:none;stroke:#000000;stroke-miterlimit:10;}
	.st1{fill:#010101;}
</style>
<circle class="st0" cx="67" cy="67" r="66"/>
<g>
	<path class="st1" d="M37.6,55.8h3.5v19.1h5.8v3.2h-9.3V55.8z"/>
	<path class="st1" d="M59.8,78.1h-3.5L55.7,74h-4.3l-0.6,4.1h-3.2l3.5-22.3h5.2L59.8,78.1z M51.8,71h3.4l-1.7-11.3L51.8,71z"/>
	<path class="st1" d="M66.7,65.8h4.9v7.1c0,3.5-1.8,5.6-5.3,5.6S61,76.3,61,72.8V61.2c0-3.5,1.8-5.6,5.3-5.6s5.3,2.1,5.3,5.6v2.2
		h-3.3v-2.4c0-1.6-0.7-2.2-1.8-2.2s-1.8,0.6-1.8,2.2v12c0,1.6,0.7,2.2,1.8,2.2c1.1,0,1.8-0.6,1.8-2.2v-4.1h-1.6V65.8L66.7,65.8z"/>
	<path class="st1" d="M77.3,65.3h4.8v3.2h-4.8v6.5h6v3.2h-9.5V55.8h9.6v3.1h-6L77.3,65.3L77.3,65.3z"/>
	<path class="st1" d="M92.9,78.1c-0.2-0.6-0.3-0.9-0.3-2.8v-3.5c0-2.1-0.7-2.8-2.3-2.8h-1.2v9.1h-3.5V55.8h5.3
		c3.6,0,5.2,1.7,5.2,5.2v1.7c0,2.3-0.8,3.8-2.3,4.6c1.7,0.8,2.3,2.4,2.3,4.7v3.5c0,1.1,0,1.9,0.3,2.7L92.9,78.1L92.9,78.1z
		 M89.1,58.9v6.9h1.4c1.3,0,2.1-0.6,2.1-2.3v-2.2c0-1.6-0.5-2.3-1.8-2.3C90.8,58.9,89.1,58.9,89.1,58.9z"/>
</g>
</svg>
