<?xml version="1.0" encoding="utf-8"?>
<!-- Generator: Adobe Illustrator 22.1.0, SVG Export Plug-In . SVG Version: 6.00 Build 0)  -->
<svg version="1.1" id="Layer_1" xmlns="http://www.w3.org/2000/svg" xmlns:xlink="http://www.w3.org/1999/xlink" x="0px" y="0px"
	 viewBox="0 0 92 83.6" style="enable-background:new 0 0 92 83.6;" xml:space="preserve">
<style type="text/css">
	.st0{fill:none;stroke:#000000;stroke-width:9.100000e-02;stroke-miterlimit:10;}
	.st1{clip-path:url(#SVGID_2_);}
	.st2{clip-path:url(#SVGID_4_);}
	.st3{clip-path:url(#SVGID_6_);}
	.st4{clip-path:url(#SVGID_8_);}
	.st5{clip-path:url(#SVGID_10_);}
	.st6{clip-path:url(#SVGID_12_);}
	.st7{clip-path:url(#SVGID_14_);}
	.st8{clip-path:url(#SVGID_16_);}
	.st9{clip-path:url(#SVGID_18_);}
	.st10{clip-path:url(#SVGID_20_);}
	.st11{clip-path:url(#SVGID_22_);}
	.st12{clip-path:url(#SVGID_24_);}
	.st13{clip-path:url(#SVGID_26_);}
	.st14{clip-path:url(#SVGID_28_);}
	.st15{clip-path:url(#SVGID_30_);}
	.st16{clip-path:url(#SVGID_32_);fill:none;stroke:#000000;stroke-width:1.29;stroke-miterlimit:10;}
	.st17{clip-path:url(#SVGID_34_);}
	.st18{clip-path:url(#SVGID_36_);}
	.st19{clip-path:url(#SVGID_38_);}
	.st20{clip-path:url(#SVGID_40_);}
	.st21{clip-path:url(#SVGID_42_);}
	.st22{clip-path:url(#SVGID_44_);}
	.st23{clip-path:url(#SVGID_46_);}
	.st24{clip-path:url(#SVGID_48_);}
	.st25{display:none;clip-path:url(#SVGID_50_);}
	.st26{display:inline;}
</style>
<polygon points="14.9,23.7 14.9,23.7 18,14.3 21,14.3 23.9,23.7 23.9,23.7 26.7,14.3 30.6,14.3 26,28.9 22.1,28.9 19.5,20.5 
	19.5,20.5 16.6,28.9 12.8,28.9 8.4,14.3 12.3,14.3 "/>
<g>
	<rect x="-0.1" y="-0.3" class="st0" width="92.3" height="83.9"/>
	<g>
		<g>
			<defs>
				<rect id="SVGID_1_" x="-2" y="-2.2" width="96" height="87.5"/>
			</defs>
			<clipPath id="SVGID_2_">
				<use xlink:href="#SVGID_1_"  style="overflow:visible;"/>
			</clipPath>
			<path class="st1" d="M59.8,28.9H55l-3.6-5.6l0,0v5.6h-3.8V14.3h5.7c2.9,0,5.1,1.4,5.1,4.5c0,2-1.1,3.8-3.2,4.1L59.8,28.9z
				 M51.4,20.9h0.4c1.2,0,2.6-0.2,2.6-1.8c0-1.6-1.4-1.8-2.6-1.8h-0.4V20.9z"/>
		</g>
		<g>
			<defs>
				<rect id="SVGID_3_" x="-2" y="-2.2" width="96" height="87.5"/>
			</defs>
			<clipPath id="SVGID_4_">
				<use xlink:href="#SVGID_3_"  style="overflow:visible;"/>
			</clipPath>
			<polygon class="st2" points="65,25.7 69.5,25.7 69.5,28.9 61.2,28.9 61.2,14.3 65,14.3 			"/>
		</g>
		<g>
			<defs>
				<rect id="SVGID_5_" x="-2" y="-2.2" width="96" height="87.5"/>
			</defs>
			<clipPath id="SVGID_6_">
				<use xlink:href="#SVGID_5_"  style="overflow:visible;"/>
			</clipPath>
			<path class="st3" d="M70.8,14.3h5.4c4.1,0,7.4,3.2,7.4,7.3s-3.4,7.3-7.4,7.3h-5.4V14.3z M74.6,25.7h0.9c2.3,0,4.2-1.2,4.2-4.1
				c0-2.6-1.7-4.1-4.2-4.1h-0.9V25.7z"/>
		</g>
		<g>
			<defs>
				<rect id="SVGID_7_" x="-2" y="-2.2" width="96" height="87.5"/>
			</defs>
			<clipPath id="SVGID_8_">
				<use xlink:href="#SVGID_7_"  style="overflow:visible;"/>
			</clipPath>
			<path class="st4" d="M10.7,54.4V30.5h8.9c4.3,0,7.1,1.7,7.1,6.2c0,2.2-0.7,3.9-2.6,4.9v0.1c3.4,0.4,4.9,2.8,4.9,6.1
				c0,5-4.3,6.7-8.7,6.7L10.7,54.4L10.7,54.4z M16.9,39.8h0.7c1.6,0,3.4-0.3,3.4-2.3c0-2.2-1.9-2.3-3.6-2.3H17v4.6H16.9z M16.9,49.6
				h0.8c1.8,0,5,0.1,5-2.5c0-2.9-3.1-2.6-5.1-2.6H17L16.9,49.6L16.9,49.6z"/>
		</g>
		<g>
			<defs>
				<rect id="SVGID_9_" x="-2" y="-2.2" width="96" height="87.5"/>
			</defs>
			<clipPath id="SVGID_10_">
				<use xlink:href="#SVGID_9_"  style="overflow:visible;"/>
			</clipPath>
			<polygon class="st5" points="37.1,35.7 37.1,39.7 44.1,39.7 44.1,45 37.1,45 37.1,49.1 44.5,49.1 44.5,54.4 30.9,54.4 30.9,30.5 
				44.5,30.5 44.5,35.7 			"/>
		</g>
		<g>
			<defs>
				<rect id="SVGID_11_" x="-2" y="-2.2" width="96" height="87.5"/>
			</defs>
			<clipPath id="SVGID_12_">
				<use xlink:href="#SVGID_11_"  style="overflow:visible;"/>
			</clipPath>
			<polygon class="st6" points="53.3,35.7 53.3,39.7 60.3,39.7 60.3,45 53.3,45 53.3,49.1 60.7,49.1 60.7,54.4 47.1,54.4 47.1,30.5 
				60.7,30.5 60.7,35.7 			"/>
		</g>
		<g>
			<defs>
				<rect id="SVGID_13_" x="-2" y="-2.2" width="96" height="87.5"/>
			</defs>
			<clipPath id="SVGID_14_">
				<use xlink:href="#SVGID_13_"  style="overflow:visible;"/>
			</clipPath>
			<path class="st7" d="M83.2,54.4h-7.7l-5.9-9.2h-0.1v9.2h-6.2V30.5h9.3c4.7,0,8.3,2.3,8.3,7.4c0,3.3-1.8,6.2-5.2,6.8L83.2,54.4z
				 M69.5,41.2h0.6c2,0,4.3-0.4,4.3-3s-2.3-3-4.3-3h-0.6V41.2z"/>
		</g>
		<g>
			<defs>
				<rect id="SVGID_15_" x="-2" y="-2.2" width="96" height="87.5"/>
			</defs>
			<clipPath id="SVGID_16_">
				<use xlink:href="#SVGID_15_"  style="overflow:visible;"/>
			</clipPath>
			<path class="st8" d="M13,66.6l-0.9,2.2H8.6L13.5,56h3.6l4.8,12.7h-3.5l-0.8-2.2L13,66.6L13,66.6z M15.3,60L15.3,60l-1.4,4h2.8
				L15.3,60z"/>
		</g>
		<g>
			<defs>
				<rect id="SVGID_17_" x="-2" y="-2.2" width="96" height="87.5"/>
			</defs>
			<clipPath id="SVGID_18_">
				<use xlink:href="#SVGID_17_"  style="overflow:visible;"/>
			</clipPath>
			<polygon class="st9" points="25.6,64.3 25.6,64.3 28.3,56.1 30.9,56.1 33.4,64.3 33.5,64.3 35.9,56.1 39.3,56.1 35.2,68.8 
				31.9,68.8 29.6,61.4 29.6,61.4 27.1,68.8 23.7,68.8 19.9,56.1 23.4,56.1 			"/>
		</g>
		<g>
			<defs>
				<rect id="SVGID_19_" x="-2" y="-2.2" width="96" height="87.5"/>
			</defs>
			<clipPath id="SVGID_20_">
				<use xlink:href="#SVGID_19_"  style="overflow:visible;"/>
			</clipPath>
			<path class="st10" d="M41.3,66.6l-0.9,2.2H37L41.9,56h3.6l4.8,12.7h-3.5L46,66.5L41.3,66.6L41.3,66.6z M43.7,60L43.7,60l-1.4,4
				H45L43.7,60z"/>
		</g>
		<g>
			<defs>
				<rect id="SVGID_21_" x="-2" y="-2.2" width="96" height="87.5"/>
			</defs>
			<clipPath id="SVGID_22_">
				<use xlink:href="#SVGID_21_"  style="overflow:visible;"/>
			</clipPath>
			<path class="st11" d="M61.9,68.8h-4.1l-3.1-4.9l0,0v4.9h-3.3V56.1h4.9c2.5,0,4.4,1.2,4.4,3.9c0,1.8-1,3.3-2.8,3.6L61.9,68.8z
				 M54.6,61.8h0.3c1.1,0,2.3-0.2,2.3-1.6c0-1.4-1.2-1.6-2.3-1.6h-0.3V61.8z"/>
		</g>
		<g>
			<defs>
				<rect id="SVGID_23_" x="-2" y="-2.2" width="96" height="87.5"/>
			</defs>
			<clipPath id="SVGID_24_">
				<use xlink:href="#SVGID_23_"  style="overflow:visible;"/>
			</clipPath>
			<path class="st12" d="M62.8,56.1h4.7c3.5,0,6.5,2.8,6.5,6.4c0,3.6-2.9,6.4-6.5,6.4h-4.7V56.1z M66.1,66h0.7c2,0,3.7-1.1,3.7-3.6
				c0-2.3-1.5-3.6-3.6-3.6h-0.8C66.1,58.8,66.1,66,66.1,66z"/>
		</g>
		<g>
			<defs>
				<rect id="SVGID_25_" x="-2" y="-2.2" width="96" height="87.5"/>
			</defs>
			<clipPath id="SVGID_26_">
				<use xlink:href="#SVGID_25_"  style="overflow:visible;"/>
			</clipPath>
			<path class="st13" d="M81.8,59.3c-0.6-0.5-1.4-0.8-2.2-0.8c-0.6,0-1.4,0.4-1.4,1.1c0,0.7,0.9,1,1.5,1.2l0.8,0.3
				c1.8,0.5,3.1,1.4,3.1,3.5c0,1.3-0.3,2.6-1.3,3.4s-2.3,1.2-3.6,1.2c-1.6,0-3.2-0.5-4.5-1.5l1.4-2.7c0.8,0.7,1.8,1.3,2.9,1.3
				c0.8,0,1.6-0.4,1.6-1.3s-1.3-1.2-2-1.5c-2.1-0.6-3.4-1.1-3.4-3.6c0-2.6,1.8-4.3,4.4-4.3c1.3,0,2.9,0.4,4,1L81.8,59.3z"/>
		</g>
		<g>
			<defs>
				<rect id="SVGID_27_" x="-2" y="-2.2" width="96" height="87.5"/>
			</defs>
			<clipPath id="SVGID_28_">
				<use xlink:href="#SVGID_27_"  style="overflow:visible;"/>
			</clipPath>
			<rect x="8.5" y="71.6" class="st14" width="74.8" height="2.9"/>
		</g>
		<g>
			<defs>
				<rect id="SVGID_29_" x="-2" y="-2.2" width="96" height="87.5"/>
			</defs>
			<clipPath id="SVGID_30_">
				<use xlink:href="#SVGID_29_"  style="overflow:visible;"/>
			</clipPath>
			<rect x="8.5" y="8.7" class="st15" width="74.8" height="2.9"/>
		</g>
		<g>
			<defs>
				<rect id="SVGID_31_" x="-2" y="-2.2" width="96" height="87.5"/>
			</defs>
			<clipPath id="SVGID_32_">
				<use xlink:href="#SVGID_31_"  style="overflow:visible;"/>
			</clipPath>
			<rect x="1.4" y="1.2" class="st16" width="89.3" height="80.9"/>
		</g>
		<g>
			<defs>
				<rect id="SVGID_33_" x="-2" y="-2.2" width="96" height="87.5"/>
			</defs>
			<clipPath id="SVGID_34_">
				<use xlink:href="#SVGID_33_"  style="overflow:visible;"/>
			</clipPath>
			<path class="st17" d="M38.3,13.9c-4.2,0-8.1,3.1-8.1,7.5c0,4.7,3.4,8.1,8.1,8.1s8.1-3.3,8.1-8.1C46.4,17,42.5,13.9,38.3,13.9
				 M38.3,26.3c-2.3,0-4.2-2.1-4.2-4.6s1.9-4.6,4.2-4.6s4.2,2.1,4.2,4.6C42.4,24.2,40.6,26.3,38.3,26.3"/>
		</g>
		<g>
			<defs>
				<rect id="SVGID_35_" x="-2" y="-2.2" width="96" height="87.5"/>
			</defs>
			<clipPath id="SVGID_36_">
				<use xlink:href="#SVGID_35_"  style="overflow:visible;"/>
			</clipPath>
			<polygon class="st18" points="16.3,86.9 16.3,94 19.2,94 19.2,96 13.9,96 13.9,86.9 			"/>
		</g>
		<g>
			<defs>
				<rect id="SVGID_37_" x="-2" y="-2.2" width="96" height="87.5"/>
			</defs>
			<clipPath id="SVGID_38_">
				<use xlink:href="#SVGID_37_"  style="overflow:visible;"/>
			</clipPath>
			<path class="st19" d="M19.8,91.4c0-0.7,0.1-1.3,0.4-1.9s0.6-1.1,1-1.5s1-0.8,1.6-1s1.3-0.4,2-0.4s1.4,0.1,2,0.4s1.2,0.6,1.6,1
				s0.8,0.9,1,1.5c0.3,0.6,0.4,1.2,0.4,1.9c0,0.7-0.1,1.3-0.4,1.9s-0.6,1.1-1,1.5s-1,0.8-1.6,1s-1.3,0.4-2,0.4s-1.4-0.1-2-0.4
				c-0.6-0.2-1.1-0.6-1.6-1c-0.4-0.4-0.8-0.9-1-1.5C19.9,92.7,19.8,92.1,19.8,91.4 M22.3,91.4c0,0.4,0.1,0.7,0.2,1s0.3,0.6,0.6,0.8
				c0.2,0.2,0.5,0.4,0.8,0.5s0.6,0.2,1,0.2c0.3,0,0.7-0.1,1-0.2s0.6-0.3,0.8-0.5c0.2-0.2,0.4-0.5,0.6-0.8c0.1-0.3,0.2-0.6,0.2-1
				s-0.1-0.7-0.2-1s-0.3-0.6-0.6-0.8c-0.2-0.2-0.5-0.4-0.8-0.5s-0.6-0.2-1-0.2c-0.3,0-0.7,0.1-1,0.2s-0.6,0.3-0.8,0.5
				c-0.2,0.2-0.4,0.5-0.6,0.8C22.3,90.7,22.3,91.1,22.3,91.4"/>
		</g>
		<g>
			<defs>
				<rect id="SVGID_39_" x="-2" y="-2.2" width="96" height="87.5"/>
			</defs>
			<clipPath id="SVGID_40_">
				<use xlink:href="#SVGID_39_"  style="overflow:visible;"/>
			</clipPath>
			<polygon class="st20" points="31.4,96 31.4,86.9 33.8,86.9 38.1,92.4 38.1,86.9 40.5,86.9 40.5,96 38.1,96 33.8,90.4 33.8,96 			
				"/>
		</g>
		<g>
			<defs>
				<rect id="SVGID_41_" x="-2" y="-2.2" width="96" height="87.5"/>
			</defs>
			<clipPath id="SVGID_42_">
				<use xlink:href="#SVGID_41_"  style="overflow:visible;"/>
			</clipPath>
			<path class="st21" d="M42.4,86.9h3.5c0.6,0,1.2,0.1,1.7,0.4s1,0.6,1.4,1s0.7,0.9,1,1.5c0.2,0.6,0.3,1.1,0.3,1.7s-0.1,1.2-0.3,1.7
				c-0.2,0.6-0.5,1-1,1.5c-0.4,0.4-0.9,0.8-1.4,1c-0.5,0.3-1.1,0.4-1.8,0.4h-3.5L42.4,86.9L42.4,86.9z M44.8,94h0.5
				c0.4,0,0.8-0.1,1.1-0.2s0.6-0.3,0.8-0.5s0.4-0.5,0.5-0.8s0.2-0.7,0.2-1c0-0.4-0.1-0.7-0.2-1c-0.1-0.3-0.3-0.6-0.5-0.8
				c-0.2-0.2-0.5-0.4-0.8-0.5S45.7,89,45.3,89h-0.5V94z"/>
		</g>
		<g>
			<defs>
				<rect id="SVGID_43_" x="-2" y="-2.2" width="96" height="87.5"/>
			</defs>
			<clipPath id="SVGID_44_">
				<use xlink:href="#SVGID_43_"  style="overflow:visible;"/>
			</clipPath>
			<path class="st22" d="M59.5,96h-2.9l-2.3-3.5V96h-2.4v-9.1h3.7c0.5,0,0.9,0.1,1.3,0.2c0.4,0.1,0.7,0.4,0.9,0.6
				c0.2,0.3,0.4,0.6,0.6,0.9c0.1,0.3,0.2,0.7,0.2,1.1c0,0.7-0.2,1.3-0.5,1.7c-0.3,0.4-0.8,0.7-1.5,0.9L59.5,96z M54.3,90.9h0.4
				c0.5,0,0.8-0.1,1.1-0.3c0.3-0.2,0.4-0.5,0.4-0.8c0-0.4-0.1-0.6-0.4-0.8c-0.3-0.2-0.6-0.3-1.1-0.3h-0.4V90.9z"/>
		</g>
		<g>
			<defs>
				<rect id="SVGID_45_" x="-2" y="-2.2" width="96" height="87.5"/>
			</defs>
			<clipPath id="SVGID_46_">
				<use xlink:href="#SVGID_45_"  style="overflow:visible;"/>
			</clipPath>
			<polygon class="st23" points="65.7,88.9 62.8,88.9 62.8,90.4 65.5,90.4 65.5,92.4 62.8,92.4 62.8,94 65.7,94 65.7,96 60.5,96 
				60.5,86.9 65.7,86.9 			"/>
		</g>
		<g>
			<defs>
				<rect id="SVGID_47_" x="-2" y="-2.2" width="96" height="87.5"/>
			</defs>
			<clipPath id="SVGID_48_">
				<use xlink:href="#SVGID_47_"  style="overflow:visible;"/>
			</clipPath>
			<path class="st24" d="M72.4,89.2c-0.3-0.2-0.5-0.4-0.8-0.5s-0.5-0.2-0.8-0.2s-0.6,0.1-0.8,0.2c-0.2,0.1-0.3,0.3-0.3,0.6
				c0,0.2,0,0.3,0.1,0.4s0.2,0.2,0.4,0.3c0.2,0.1,0.3,0.1,0.5,0.2s0.4,0.1,0.6,0.2c0.8,0.3,1.3,0.6,1.7,1c0.4,0.4,0.5,1,0.5,1.7
				c0,0.5-0.1,0.9-0.2,1.3c-0.2,0.4-0.4,0.7-0.7,1c-0.3,0.3-0.7,0.5-1.1,0.6c-0.4,0.2-0.9,0.2-1.5,0.2c-1.2,0-2.2-0.3-3.2-1l1-1.9
				c0.4,0.3,0.7,0.5,1.1,0.7c0.3,0.2,0.7,0.2,1,0.2c0.4,0,0.7-0.1,0.9-0.3c0.2-0.2,0.3-0.4,0.3-0.6c0-0.1,0-0.3-0.1-0.4
				c0-0.1-0.1-0.2-0.2-0.3c-0.1-0.1-0.3-0.2-0.4-0.2c-0.2-0.1-0.4-0.2-0.7-0.2c-0.3-0.1-0.6-0.2-0.9-0.3c-0.3-0.1-0.6-0.3-0.8-0.5
				c-0.2-0.2-0.4-0.4-0.6-0.7c-0.1-0.3-0.2-0.7-0.2-1.1s0.1-0.9,0.2-1.2c0.2-0.4,0.4-0.7,0.6-0.9c0.3-0.3,0.6-0.5,1-0.6
				s0.8-0.2,1.3-0.2s0.9,0.1,1.4,0.2s1,0.3,1.4,0.6L72.4,89.2z"/>
		</g>
	</g>
	<g>
		<g>
			<defs>
				<rect id="SVGID_49_" x="-2" y="-2.2" width="96" height="102.4"/>
			</defs>
			<clipPath id="SVGID_50_">
				<use xlink:href="#SVGID_49_"  style="overflow:visible;"/>
			</clipPath>
			<g class="st25">
				<path class="st26" d="M18.2,90v7.4h2.9v2.1h-5.4V90H18.2z"/>
				<path class="st26" d="M21.7,94.8c0-0.7,0.1-1.4,0.4-2s0.6-1.1,1.1-1.6s1-0.8,1.6-1.1c0.6-0.3,1.3-0.4,2.1-0.4
					c0.8,0,1.5,0.1,2.1,0.4s1.2,0.6,1.7,1.1s0.8,1,1.1,1.6c0.3,0.6,0.4,1.3,0.4,2s-0.1,1.4-0.4,2c-0.3,0.6-0.6,1.1-1.1,1.6
					s-1,0.8-1.7,1.1c-0.6,0.3-1.3,0.4-2.1,0.4c-0.8,0-1.5-0.1-2.1-0.4s-1.2-0.6-1.6-1.1c-0.5-0.5-0.8-1-1.1-1.6
					C21.9,96.1,21.7,95.5,21.7,94.8z M24.3,94.8c0,0.4,0.1,0.7,0.2,1s0.3,0.6,0.6,0.8s0.5,0.4,0.8,0.5s0.7,0.2,1,0.2
					c0.4,0,0.7-0.1,1-0.2s0.6-0.3,0.9-0.5s0.4-0.5,0.6-0.8c0.1-0.3,0.2-0.7,0.2-1c0-0.4-0.1-0.7-0.2-1s-0.3-0.6-0.6-0.8
					c-0.2-0.2-0.5-0.4-0.9-0.5c-0.3-0.1-0.7-0.2-1-0.2c-0.4,0-0.7,0.1-1,0.2s-0.6,0.3-0.8,0.5c-0.2,0.2-0.4,0.5-0.6,0.8
					C24.4,94,24.3,94.4,24.3,94.8z"/>
				<path class="st26" d="M34,99.5V90h2.5l4.5,5.8V90h2.4v9.4H41l-4.5-5.8v5.8L34,99.5L34,99.5z"/>
				<path class="st26" d="M44.5,90h3.6c0.6,0,1.2,0.1,1.8,0.4s1.1,0.6,1.5,1s0.8,0.9,1,1.5s0.4,1.2,0.4,1.8c0,0.6-0.1,1.2-0.4,1.8
					c-0.2,0.6-0.6,1.1-1,1.5s-0.9,0.8-1.5,1c-0.6,0.3-1.2,0.4-1.8,0.4h-3.6V90z M47,97.4h0.6c0.4,0,0.8-0.1,1.1-0.2s0.6-0.3,0.8-0.5
					s0.4-0.5,0.5-0.8s0.2-0.7,0.2-1.1s-0.1-0.7-0.2-1.1s-0.3-0.6-0.5-0.8s-0.5-0.4-0.8-0.6c-0.3-0.1-0.7-0.2-1.1-0.2H47V97.4z"/>
				<path class="st26" d="M61.9,99.5h-3.1l-2.3-3.6v3.6H54V90h3.8c0.5,0,1,0.1,1.4,0.2c0.4,0.2,0.7,0.4,1,0.6
					c0.3,0.3,0.4,0.6,0.6,0.9c0.1,0.3,0.2,0.7,0.2,1.1c0,0.7-0.2,1.3-0.5,1.7c-0.3,0.4-0.9,0.7-1.5,0.9L61.9,99.5z M56.5,94.3H57
					c0.5,0,0.9-0.1,1.1-0.3c0.3-0.2,0.4-0.5,0.4-0.9s-0.1-0.7-0.4-0.9c-0.3-0.2-0.6-0.3-1.1-0.3h-0.5V94.3z"/>
				<path class="st26" d="M68.4,92.1h-2.9v1.6h2.8v2.1h-2.8v1.6h2.9v2.1H63V90h5.4V92.1z"/>
				<path class="st26" d="M75.4,92.5c-0.3-0.2-0.5-0.4-0.8-0.5s-0.5-0.2-0.8-0.2S73.2,91.9,73,92c-0.2,0.1-0.3,0.3-0.3,0.6
					c0,0.2,0,0.3,0.1,0.4s0.2,0.2,0.4,0.3c0.2,0.1,0.3,0.1,0.5,0.2s0.4,0.1,0.6,0.2c0.8,0.3,1.4,0.6,1.8,1.1s0.6,1,0.6,1.7
					c0,0.5-0.1,0.9-0.2,1.3c-0.2,0.4-0.4,0.7-0.7,1s-0.7,0.5-1.2,0.7s-1,0.2-1.5,0.2c-1.2,0-2.3-0.4-3.3-1.1l1.1-2
					c0.4,0.3,0.7,0.6,1.1,0.7s0.7,0.2,1.1,0.2s0.7-0.1,0.9-0.3c0.2-0.2,0.3-0.4,0.3-0.6c0-0.1,0-0.3-0.1-0.4S74.1,96,74,95.9
					c-0.1-0.1-0.3-0.2-0.5-0.2s-0.4-0.2-0.7-0.2c-0.3-0.1-0.6-0.2-0.9-0.3c-0.3-0.1-0.6-0.3-0.8-0.5c-0.2-0.2-0.4-0.5-0.6-0.8
					c-0.1-0.3-0.2-0.7-0.2-1.2s0.1-0.9,0.2-1.3c0.2-0.4,0.4-0.7,0.7-1c0.3-0.3,0.6-0.5,1-0.6s0.9-0.2,1.4-0.2s1,0.1,1.5,0.2
					s1,0.3,1.5,0.6L75.4,92.5z"/>
			</g>
		</g>
	</g>
</g>
</svg>
