<?xml version="1.0" encoding="utf-8"?>
<!-- Generator: Adobe Illustrator 22.1.0, SVG Export Plug-In . SVG Version: 6.00 Build 0)  -->
<svg version="1.1" id="Layer_1" xmlns="http://www.w3.org/2000/svg" xmlns:xlink="http://www.w3.org/1999/xlink" x="0px" y="0px"
	 viewBox="0 0 290 124" style="enable-background:new 0 0 290 124;" xml:space="preserve">
<style type="text/css">
	.st0{clip-path:url(#SVGID_2_);}
	.st1{clip-path:url(#SVGID_2_);fill:none;stroke:#000000;stroke-width:0.191;stroke-miterlimit:10;}
</style>
<g>
	<defs>
		<rect id="SVGID_1_" y="0.8" width="290" height="122.4"/>
	</defs>
	<clipPath id="SVGID_2_">
		<use xlink:href="#SVGID_1_"  style="overflow:visible;"/>
	</clipPath>
	<path class="st0" d="M244.9,43l-7.8,29.1L229.4,43h-12.5l13.8,41.3h11.8L257.1,43H244.9z M158.4,75.5c-4.7,0-8.5-5.1-8.5-11.4
		s3.8-11.4,8.5-11.4S167,57.7,167,64S163.1,75.5,158.4,75.5 M161.6,43c-4.3,0-8.2,2-11.2,5.4V30.5h-10.7v54h10.7v-5.1
		c3,3.3,6.9,5.4,11.2,5.4c9.2,0,16.7-9.3,16.7-20.8C178.3,52.3,170.8,43,161.6,43 M132.5,79.7V58.5h0v-5.9c0,0-0.7-9.7-10.8-9.7
		c-10.1,0-12.3,5.6-12.3,5.6s-2.9-6.1-10.6-6.1c-6.3,0-9.7,3.7-10.7,5V43H77.6v41.3h10.5v-27c0.7-1.7,2.5-5,6.2-5
		c4.1,0,5.4,3.4,5.6,5.4v21.8c0.4,2.1,1.6,3.5,3.1,4.7h10.5c-1.7-1.4-2.7-2.9-3.1-4.6V59.3h0c0,0-0.3-6.6,5.9-6.9
		c4.5-0.2,5.4,3.9,5.5,6.2v1.2c0,0.1,0,0.2,0,0.2l0,0v19.5c0.4,2.1,1.6,3.5,3.1,4.7h10.5C133.9,82.9,132.8,81.4,132.5,79.7
		 M52.8,75.5c-4.7,0-8.5-5.1-8.5-11.4s3.8-11.4,8.5-11.4s8.5,5.1,8.5,11.4S57.6,75.5,52.8,75.5 M60.8,48.4c-3-3.3-6.9-5.4-11.2-5.4
		c-9.2,0-16.7,9.3-16.7,20.8c0,11.5,7.5,20.8,16.7,20.8c4.3,0,8.2-2,11.2-5.4v5.1h10.7V43.2H60.8V48.4z M191.2,60.6
		c1.1-4.5,5-7.8,9.6-7.8c4.6,0,8.4,3.3,9.6,7.8H191.2z M200.4,42.3c-10.7,0-19.1,9.5-19.4,21.2c-0.6,20.2,26.4,27.2,35.3,16.1v-8.6
		c0,0-2.8,4.9-13.7,4.9c-10.9,0-11.3-8.1-11.3-8.1h28.1c0.3-1.4,0.4-2.8,0.4-4.3C219.8,51.9,211.1,42.3,200.4,42.3"/>
	<path class="st0" d="M94.9,22.2L93,22.4c0.1,1.4-0.4,2.8-1.8,3.6c-2,1.2-3.8,0.5-4.8-1.1l-1.1-2c-1-1.7-0.6-3.6,1.4-4.7
		c1.5-0.9,3-0.5,4,0.2l1.1-1.5c-1.3-1.1-3.8-1.5-6-0.2c-3.1,1.8-3.7,4.9-2.3,7.4l1.1,1.9c1.4,2.5,4.3,3.5,7.4,1.8
		C94.4,26.2,95.1,24,94.9,22.2 M99.9,23l8-3.3l-0.7-1.6l-6.1,2.5l-1.4-3.3l4.6-1.9l-0.7-1.6l-4.6,1.9l-1.2-2.8l6.1-2.5l-0.7-1.6
		l-8,3.3L99.9,23z M115.3,10.6l-3.2,0.9l-1-3.5l3.2-0.9c1.4-0.4,2.1,0.1,2.3,0.9l0.1,0.5C117,9.5,116.6,10.3,115.3,10.6 M120.4,16
		l1.2-0.3l-0.2-0.7c-0.6-0.2-0.8-0.5-1-1l-0.4-1.3c-0.3-1.2-1.1-2-2.9-1.7c1.7-0.8,2-1.9,1.6-3.2l-0.1-0.4c-0.5-1.7-2-2.7-4.9-1.9
		l-5.1,1.4l3.2,11.4l2-0.6l-1.3-4.8l3-0.8c1.6-0.4,2.2,0,2.5,1l0.5,1.5C118.8,15.8,119.4,16.3,120.4,16 M130.9,14.1l3.3-12.5
		l-2.2,0.3l-2.3,9.8l-5-8.7l-2.2,0.3l6.6,11L130.9,14.1z M139.5,13.2l8.6-0.2l0-1.8l-6.6,0.1l-0.1-3.5l4.9-0.1l0-1.7l-4.9,0.1
		L141.4,3l6.6-0.1l0-1.8l-8.6,0.2L139.5,13.2z M159.8,10.2l0.7-8.2l-2.1-0.2l-0.7,8.2c-0.1,1.4-0.8,2.2-2.3,2
		c-1.3-0.1-2-1.1-2.5-2.2l-1.8,0.8c0.5,1.7,1.9,3,4.1,3.2C158.1,14.1,159.6,12.4,159.8,10.2 M170.5,11.1l-3.7-0.8l2.8-4.4
		L170.5,11.1z M171.4,16l2.1,0.4l-2.4-12.6l-1.9-0.4l-7.1,10.7l2.1,0.4l1.7-2.7l4.9,1L171.4,16z M186.7,11.6l-0.2,0.5
		c-0.3,0.9-1.1,1.3-2.4,0.9l-3.2-1.1l1.2-3.5l3.2,1.1C186.7,10,187,10.8,186.7,11.6 M188.7,12.2c0.6-1.7-0.2-3.3-3-4.3l-5-1.7
		l-3.8,11.2l2,0.7l1.6-4.7l3,1c1.5,0.5,1.8,1.2,1.5,2.2l-0.5,1.5c-0.4,1.2-0.2,1.9,0.9,2.3l1.1,0.4l0.2-0.7
		c-0.4-0.4-0.4-0.8-0.2-1.4l0.4-1.3c0.4-1.1,0.2-2.3-1.5-3.1c1.9,0.3,2.7-0.5,3.1-1.7L188.7,12.2z M192.1,23.2l4.9-10.8l-1.9-0.8
		l-4.9,10.8L192.1,23.2z M205.1,19.4l-0.7,5.1l-3.3-1.9L205.1,19.4z M207.2,17.8l-1.7-1l-10.1,7.9l1.8,1.1l2.5-2l4.4,2.5l-0.5,3.2
		l1.9,1.1L207.2,17.8z"/>
	<path class="st1" d="M94.9,22.2L93,22.4c0.1,1.4-0.4,2.8-1.8,3.6c-2,1.2-3.8,0.5-4.8-1.1l-1.1-2c-1-1.7-0.6-3.6,1.4-4.7
		c1.5-0.9,3-0.5,4,0.2l1.1-1.5c-1.3-1.1-3.8-1.5-6-0.2c-3.1,1.8-3.7,4.9-2.3,7.4l1.1,1.9c1.4,2.5,4.3,3.5,7.4,1.8
		C94.4,26.2,95.1,24,94.9,22.2z M99.9,23l8-3.3l-0.7-1.6l-6.1,2.5l-1.4-3.3l4.6-1.9l-0.7-1.6l-4.6,1.9l-1.2-2.8l6.1-2.5l-0.7-1.6
		l-8,3.3L99.9,23z M115.3,10.6l-3.2,0.9l-1-3.5l3.2-0.9c1.4-0.4,2.1,0.1,2.3,0.9l0.1,0.5C117,9.5,116.6,10.3,115.3,10.6z M120.4,16
		l1.2-0.3l-0.2-0.7c-0.6-0.2-0.8-0.5-1-1l-0.4-1.3c-0.3-1.2-1.1-2-2.9-1.7c1.7-0.8,2-1.9,1.6-3.2l-0.1-0.4c-0.5-1.7-2-2.7-4.9-1.9
		l-5.1,1.4l3.2,11.4l2-0.6l-1.3-4.8l3-0.8c1.6-0.4,2.2,0,2.5,1l0.5,1.5C118.8,15.8,119.4,16.3,120.4,16z M130.9,14.1l3.3-12.5
		l-2.2,0.3l-2.3,9.8l-5-8.7l-2.2,0.3l6.6,11L130.9,14.1z M139.5,13.2l8.6-0.2l0-1.8l-6.6,0.1l-0.1-3.5l4.9-0.1l0-1.7l-4.9,0.1
		L141.4,3l6.6-0.1l0-1.8l-8.6,0.2L139.5,13.2z M159.8,10.2l0.7-8.2l-2.1-0.2l-0.7,8.2c-0.1,1.4-0.8,2.2-2.3,2
		c-1.3-0.1-2-1.1-2.5-2.2l-1.8,0.8c0.5,1.7,1.9,3,4.1,3.2C158.1,14.1,159.6,12.4,159.8,10.2z M170.5,11.1l-3.7-0.8l2.8-4.4
		L170.5,11.1z M171.4,16l2.1,0.4l-2.4-12.6l-1.9-0.4l-7.1,10.7l2.1,0.4l1.7-2.7l4.9,1L171.4,16z M186.7,11.6l-0.2,0.5
		c-0.3,0.9-1.1,1.3-2.4,0.9l-3.2-1.1l1.2-3.5l3.2,1.1C186.7,10,187,10.8,186.7,11.6z M188.7,12.2c0.6-1.7-0.2-3.3-3-4.3l-5-1.7
		l-3.8,11.2l2,0.7l1.6-4.7l3,1c1.5,0.5,1.8,1.2,1.5,2.2l-0.5,1.5c-0.4,1.2-0.2,1.9,0.9,2.3l1.1,0.4l0.2-0.7
		c-0.4-0.4-0.4-0.8-0.2-1.4l0.4-1.3c0.4-1.1,0.2-2.3-1.5-3.1c1.9,0.3,2.7-0.5,3.1-1.7L188.7,12.2z M192.1,23.2l4.9-10.8l-1.9-0.8
		l-4.9,10.8L192.1,23.2z M205.1,19.4l-0.7,5.1l-3.3-1.9L205.1,19.4z M207.2,17.8l-1.7-1l-10.1,7.9l1.8,1.1l2.5-2l4.4,2.5l-0.5,3.2
		l1.9,1.1L207.2,17.8z"/>
	<path class="st0" d="M8.7,123.2H6.3l-0.4-2.8h-3l-0.4,2.8H0.2l2.5-15.4h3.5L8.7,123.2z M3.2,118.3h2.3l-1.2-7.8L3.2,118.3z"/>
	<path class="st0" d="M26.4,118.8l1.6-10.9h3.4v15.4h-2.3v-11l-1.7,11h-2.3l-1.8-10.9v10.9h-2.1v-15.4h3.4L26.4,118.8z"/>
	<path class="st0" d="M45,123.2h-2.4l-0.4-2.8h-3l-0.4,2.8h-2.2l2.5-15.4h3.5L45,123.2z M39.5,118.3h2.3l-1.2-7.8L39.5,118.3z"/>
	<path class="st0" d="M50.2,107.8h2.4v15.4h-2.4V107.8z"/>
	<path class="st0" d="M61.7,107.7c2.3,0,3.6,1.4,3.6,3.9v0.5h-2.3v-0.6c0-1.1-0.4-1.5-1.2-1.5s-1.2,0.4-1.2,1.5
		c0,3.2,4.7,3.8,4.7,8.1c0,2.5-1.2,3.9-3.6,3.9c-2.4,0-3.6-1.4-3.6-3.9v-0.9h2.3v1.1c0,1.1,0.5,1.5,1.3,1.5s1.3-0.4,1.3-1.5
		c0-3.2-4.7-3.8-4.7-8.1C58.1,109.1,59.3,107.7,61.7,107.7z"/>
	<path class="st0" d="M85.2,111.6v2c0,2.5-1.2,3.8-3.6,3.8h-1.1v5.8h-2.4v-15.4h3.6C84.1,107.8,85.2,109.2,85.2,111.6z M80.5,110
		v5.2h1.1c0.8,0,1.2-0.4,1.2-1.4v-2.3c0-1.1-0.4-1.4-1.2-1.4H80.5z"/>
	<path class="st0" d="M95.4,123.2c-0.1-0.4-0.2-0.6-0.2-1.9v-2.4c0-1.4-0.5-2-1.6-2h-0.8v6.3h-2.4v-15.4H94c2.5,0,3.6,1.2,3.6,3.5
		v1.2c0,1.6-0.5,2.6-1.6,3.1c1.2,0.5,1.6,1.7,1.6,3.3v2.4c0,0.7,0,1.3,0.3,1.9H95.4z M92.8,110v4.7h0.9c0.9,0,1.4-0.4,1.4-1.6v-1.5
		c0-1.1-0.4-1.6-1.2-1.6H92.8z"/>
	<path class="st0" d="M105.7,114.3h3.3v2.2h-3.3v4.5h4.2v2.2h-6.6v-15.4h6.6v2.2h-4.2V114.3z"/>
	<path class="st0" d="M120.5,118.8l1.6-10.9h3.4v15.4h-2.3v-11l-1.7,11h-2.3l-1.8-10.9v10.9h-2.1v-15.4h3.4L120.5,118.8z"/>
	<path class="st0" d="M131.3,107.8h2.4v15.4h-2.4V107.8z"/>
	<path class="st0" d="M147.3,123.2h-2.4l-0.4-2.8h-3l-0.4,2.8h-2.2l2.5-15.4h3.5L147.3,123.2z M141.8,118.3h2.3l-1.2-7.8
		L141.8,118.3z"/>
	<path class="st0" d="M152.4,107.8h3.8c2.4,0,3.6,1.3,3.6,3.8v7.8c0,2.5-1.2,3.8-3.6,3.8h-3.8V107.8z M154.9,110v11h1.4
		c0.8,0,1.2-0.4,1.2-1.5v-8c0-1.1-0.5-1.5-1.2-1.5H154.9z"/>
	<path class="st0" d="M173.2,123.2h-2.4l-0.4-2.8h-3l-0.4,2.8h-2.2l2.5-15.4h3.5L173.2,123.2z M167.7,118.3h2.3l-1.2-7.8
		L167.7,118.3z"/>
	<path class="st0" d="M185.8,107.8h3.8c2.4,0,3.6,1.3,3.6,3.8v7.8c0,2.5-1.2,3.8-3.6,3.8h-3.8V107.8z M188.2,110v11h1.4
		c0.8,0,1.2-0.4,1.2-1.5v-8c0-1.1-0.5-1.5-1.2-1.5H188.2z"/>
	<path class="st0" d="M198.6,111.5c0-2.5,1.3-3.9,3.7-3.9s3.7,1.4,3.7,3.9v8c0,2.5-1.3,3.9-3.7,3.9s-3.7-1.4-3.7-3.9V111.5z
		 M201.1,119.7c0,1.1,0.5,1.5,1.3,1.5s1.3-0.4,1.3-1.5v-8.3c0-1.1-0.5-1.5-1.3-1.5s-1.3,0.4-1.3,1.5V119.7z"/>
	<path class="st0" d="M224.1,118.8l1.6-10.9h3.4v15.4h-2.3v-11l-1.7,11h-2.3l-1.8-10.9v10.9H219v-15.4h3.4L224.1,118.8z"/>
	<path class="st0" d="M237.2,107.8v11.9c0,1.1,0.5,1.5,1.3,1.5s1.3-0.4,1.3-1.5v-11.9h2.3v11.7c0,2.5-1.2,3.9-3.6,3.9
		c-2.4,0-3.6-1.4-3.6-3.9v-11.7H237.2z"/>
	<path class="st0" d="M249.9,112.1v11.1h-2.2v-15.4h3l2.5,9.2v-9.2h2.2v15.4h-2.5L249.9,112.1z"/>
	<path class="st0" d="M261.1,107.8h3.8c2.4,0,3.6,1.3,3.6,3.8v7.8c0,2.5-1.2,3.8-3.6,3.8h-3.8V107.8z M263.5,110v11h1.4
		c0.8,0,1.2-0.4,1.2-1.5v-8c0-1.1-0.5-1.5-1.2-1.5H263.5z"/>
	<path class="st0" d="M273.9,111.5c0-2.5,1.3-3.9,3.7-3.9s3.7,1.4,3.7,3.9v8c0,2.5-1.3,3.9-3.7,3.9s-3.7-1.4-3.7-3.9V111.5z
		 M276.3,119.7c0,1.1,0.5,1.5,1.3,1.5s1.3-0.4,1.3-1.5v-8.3c0-1.1-0.5-1.5-1.3-1.5s-1.3,0.4-1.3,1.5V119.7z"/>
	<path class="st0" d="M288.9,120.9v2.3h-2.3v-2.3H288.9z"/>
</g>
</svg>
