<?xml version="1.0" encoding="utf-8"?>
<!-- Generator: Adobe Illustrator 22.1.0, SVG Export Plug-In . SVG Version: 6.00 Build 0)  -->
<svg version="1.1" id="Layer_1" xmlns="http://www.w3.org/2000/svg" xmlns:xlink="http://www.w3.org/1999/xlink" x="0px" y="0px"
	 viewBox="0 0 134 134" style="enable-background:new 0 0 134 134;" xml:space="preserve">
<style type="text/css">
	.st0{fill:none;stroke:#000000;stroke-miterlimit:10;}
</style>
<circle class="st0" cx="67" cy="67" r="66"/>
<g>
	<path d="M51.9,40.1v3.7c0,4.5-2.1,6.9-6.6,6.9h-2.1V61H39V33.3h6.3C49.8,33.3,51.9,35.7,51.9,40.1z M43.2,37.2v9.5h2.1
		c1.3,0,2.1-0.5,2.1-2.6v-4.2c0-2.1-0.8-2.6-2.1-2.6L43.2,37.2L43.2,37.2z"/>
	<path d="M67.8,61h-4.5l-0.8-5h-5.3l-0.8,5h-4l4.5-27.7h6.3L67.8,61z M57.7,52.3h4.2l-2.1-14L57.7,52.3z"/>
	<path d="M69.6,33.3h4.2v23.8h7.4v4H69.6V33.3z"/>
	<path d="M87.6,45.2h6.1v4h-6.1v8.2H95v3.7H83.1V33.3H95v4h-7.4V45.2z"/>
	<path d="M60.4,100.6h-4.5l-0.8-5h-5.3l-0.8,5h-4l4.5-27.7h6.3L60.4,100.6z M50.3,91.9h4.2l-2.1-14L50.3,91.9z"/>
	<path d="M62.5,72.9h4.2v23.8h7.1v4H62.2V72.9H62.5z"/>
	<path d="M80.2,84.8h6v4h-6V97h7.4v3.7H75.7V72.9h11.9v4h-7.4C80.2,76.8,80.2,84.8,80.2,84.8z"/>
</g>
</svg>
