<?xml version="1.0" encoding="utf-8"?>
<!-- Generator: Adobe Illustrator 22.1.0, SVG Export Plug-In . SVG Version: 6.00 Build 0)  -->
<svg version="1.1" id="Layer_1" xmlns="http://www.w3.org/2000/svg" xmlns:xlink="http://www.w3.org/1999/xlink" x="0px" y="0px"
	 viewBox="0 0 133 133" style="enable-background:new 0 0 133 133;" xml:space="preserve">
<style type="text/css">
	.st0{fill:none;stroke:#000000;stroke-miterlimit:10;}
</style>
<circle class="st0" cx="66.5" cy="66.5" r="66"/>
<g>
	<path d="M45.3,60.5v2.8c0,3.5-1.7,5.5-5.2,5.5h-1.6v8.3h-3.5v-22h5C43.6,55,45.3,56.9,45.3,60.5z M38.5,58.2v7.4h1.6
		c1.1,0,1.7-0.5,1.7-2v-3.3c0-1.6-0.6-2-1.7-2C40.1,58.2,38.5,58.2,38.5,58.2z"/>
	<path d="M47,55h3.5v22H47C47,77,47,55,47,55z"/>
	<path d="M53,55h3.5v18.9h5.7V77H53V55z"/>
	<path d="M68.4,54.7c3.3,0,5,2,5,5.5V61h-3.3v-0.9c0-1.6-0.6-2.2-1.7-2.2c-1.1,0-1.7,0.6-1.7,2.2c0,4.6,6.8,5.3,6.8,11.6
		c0,3.5-1.7,5.5-5.2,5.5c-3.5,0-5.2-2-5.2-5.5v-1.3h3.3V72c0,1.6,0.6,2.2,1.7,2.2s1.7-0.6,1.7-2.2c0-4.6-6.8-5.3-6.8-11.6
		C63.2,56.8,64.9,54.7,68.4,54.7z"/>
	<path d="M78.9,64.3h4.7v3.1h-4.7v6.4h6V77h-9.4V55h9.4v3.1h-6V64.3z"/>
	<path d="M90.1,61.2V77h-3.1V55h4.4l3.6,13.2V55h3.1v22h-3.6L90.1,61.2z"/>
</g>
</svg>
