<?xml version="1.0" encoding="utf-8"?>
<!-- Generator: Adobe Illustrator 22.1.0, SVG Export Plug-In . SVG Version: 6.00 Build 0)  -->
<svg version="1.1" id="Layer_1" xmlns="http://www.w3.org/2000/svg" xmlns:xlink="http://www.w3.org/1999/xlink" x="0px" y="0px"
	 viewBox="0 0 134 134" style="enable-background:new 0 0 134 134;" xml:space="preserve">
<style type="text/css">
	.st0{fill:none;stroke:#000000;stroke-miterlimit:10;}
</style>
<circle class="st0" cx="67" cy="67" r="66"/>
<g>
	<path d="M39.5,60.7v3c0,3.9-1.8,5.9-5.7,5.9H32v9.1h-3.9v-24h5.7C37.7,54.8,39.5,56.8,39.5,60.7z M32,58.3v8.1h1.8
		c1.2,0,1.8-0.6,1.8-2.2v-3.7c0-1.6-0.6-2.2-1.8-2.2C33.8,58.3,32,58.3,32,58.3z"/>
	<path d="M41.1,60.7c0-3.9,2-6.1,5.7-6.1s5.7,2.2,5.7,6.1v12.6c0,3.9-2,6.1-5.7,6.1s-5.7-2.2-5.7-6.1V60.7z M45,73.5
		c0,1.6,0.8,2.4,2,2.4s2-0.6,2-2.4v-13c0-1.8-0.8-2.4-2-2.4s-2,0.6-2,2.4V73.5z"/>
	<path d="M63,79c-0.2-0.6-0.4-1-0.4-3v-3.9c0-2.2-0.8-3-2.4-3H59v9.7h-3.9v-24h5.7c3.9,0,5.7,1.8,5.7,5.5v1.8c0,2.4-0.8,4.1-2.4,4.9
		c1.8,0.8,2.4,2.6,2.4,5.1v3.7c0,1.2,0,2,0.4,2.8H63C63,78.6,63,79,63,79z M59,58.3v7.5h1.4c1.4,0,2.2-0.6,2.2-2.6v-2.4
		c0-1.8-0.6-2.4-2-2.4L59,58.3L59,58.3z"/>
	<path d="M67.9,54.8h11.8v3.5h-4.1V79h-3.9V58.3h-4.1v-3.5H67.9z"/>
	<path d="M85.2,65h5.3v3.5h-5.3v7.1h6.5v3.5H81.3V54.8h10.4v3.5h-6.5V65z"/>
	<path d="M102,79c-0.2-0.6-0.4-1-0.4-3v-3.9c0-2.2-0.8-3-2.4-3H98v9.7h-3.9v-24h5.7c3.9,0,5.7,1.8,5.7,5.5v1.8
		c0,2.4-0.8,4.1-2.4,4.9c1.8,0.8,2.4,2.6,2.4,5.1v3.7c0,1.2,0,2,0.4,2.8H102C102,78.6,102,79,102,79z M97.8,58.3v7.5h1.4
		c1.4,0,2.2-0.6,2.2-2.6v-2.4c0-1.8-0.6-2.4-2-2.4L97.8,58.3L97.8,58.3z"/>
</g>
</svg>
