<?xml version="1.0" encoding="utf-8"?>
<!-- Generator: Adobe Illustrator 22.1.0, SVG Export Plug-In . SVG Version: 6.00 Build 0)  -->
<svg version="1.1" id="Layer_1" xmlns="http://www.w3.org/2000/svg" xmlns:xlink="http://www.w3.org/1999/xlink" x="0px" y="0px"
	 viewBox="0 0 134 134" style="enable-background:new 0 0 134 134;" xml:space="preserve">
<style type="text/css">
	.st0{fill:none;stroke:#000000;stroke-miterlimit:10;}
</style>
<circle class="st0" cx="67" cy="67" r="66"/>
<g>
	<path d="M33.7,45.2v3c0,3.6-1.8,5.5-5.2,5.5h-1.6v8.4h-3.5V39.8h5.2C31.9,39.8,33.7,41.6,33.7,45.2z M26.6,42.9v7.5h1.6
		c1.1,0,1.8-0.5,1.8-2V45c0-1.6-0.7-2-1.8-2L26.6,42.9L26.6,42.9z"/>
	<path d="M42.8,62.1c-0.2-0.7-0.2-0.9-0.2-2.7V56c0-2-0.7-2.7-2.3-2.7h-1.1v9.1h-3.4V40h5c3.6,0,5.2,1.6,5.2,5.2V47
		c0,2.3-0.7,3.9-2.3,4.6c1.8,0.7,2.3,2.5,2.3,4.8v3c0,1.1,0,1.8,0.5,2.7H42.8z M38.9,42.9v6.9h1.4c1.4,0,2-0.7,2-2.3v-2.3
		c0-1.6-0.5-2.3-1.8-2.3C40.5,42.9,38.9,42.9,38.9,42.9z"/>
	<path d="M51.7,49.1h4.7v3.2h-4.8v6.6h6.1v3.2h-9.6V39.8h9.6V43h-6.1v6.1H51.7z"/>
	<path d="M67.4,55.7l2.2-15.9h4.8v22.3H71v-16L68.5,62h-3.4l-2.5-15.7V62h-3V39.8h4.8L67.4,55.7z"/>
	<path d="M77.1,39.8h3.4v22.3h-3.4V39.8z"/>
	<path d="M86.5,39.8v17.3c0,1.6,0.7,2.3,1.8,2.3s1.8-0.7,1.8-2.3V39.8h3.4v17c0,3.6-1.8,5.7-5.2,5.7s-5.2-2-5.2-5.7v-17H86.5z"/>
	<path d="M103.3,55.7l2.5-15.9h4.8v22.3h-3.4v-16L104.7,62h-3.4l-2.5-15.7V62h-3V39.8h4.8L103.3,55.7z"/>
	<path d="M37.8,71.6h3.4v19.1h5.7v3.2h-9.3V71.6H37.8z"/>
	<path d="M60.1,93.9h-3.7l-0.7-4.1h-4.3l-0.7,4.1h-3.2l3.6-22.3h5.3L60.1,93.9z M51.9,86.9h3.4l-1.6-11.4L51.9,86.9z"/>
	<path d="M66.9,81.4h5v7.1c0,3.6-1.8,5.7-5.2,5.7c-3.4,0-5.5-2-5.5-5.7V76.9c0-3.6,1.8-5.7,5.2-5.7c3.4,0,5.2,2,5.2,5.7v2.3h-3.4
		v-2.5c0-1.6-0.7-2.3-1.8-2.3s-1.8,0.7-1.8,2.3v12.1c0,1.6,0.7,2.3,1.8,2.3c1.1,0,1.8-0.7,1.8-2.3v-4.1h-1.6v-3.2h0.3V81.4z"/>
	<path d="M77.6,81h4.8v3.2h-4.8v6.6h6.1V94h-9.6V71.6h9.6v3.2h-6.1V81z"/>
	<path d="M93.1,93.9c-0.2-0.7-0.2-0.9-0.2-2.7v-3.4c0-2-0.7-2.7-2.3-2.7h-1.2v9.1H86V71.9h5.2c3.6,0,5.2,1.6,5.2,5.2v1.8
		c0,2.3-0.7,3.9-2.3,4.6c1.8,0.7,2.3,2.5,2.3,4.8v3c0,1.1,0,1.8,0.5,2.7h-3.8V93.9z M89.2,74.8v6.8h1.4c1.4,0,2-0.7,2-2.3V77
		c0-1.6-0.5-2.3-1.8-2.3h-1.6V74.8z"/>
</g>
</svg>
