<?xml version="1.0" encoding="utf-8"?>
<!-- Generator: Adobe Illustrator 22.1.0, SVG Export Plug-In . SVG Version: 6.00 Build 0)  -->
<svg version="1.1" id="Layer_1" xmlns="http://www.w3.org/2000/svg" xmlns:xlink="http://www.w3.org/1999/xlink" x="0px" y="0px"
	 viewBox="0 0 134 134" style="enable-background:new 0 0 134 134;" xml:space="preserve">
<style type="text/css">
	.st0{fill:none;stroke:#000000;stroke-miterlimit:10;}
</style>
<circle class="st0" cx="67" cy="67" r="66"/>
<g>
	<path d="M14.5,61.6c0-3,1.6-4.8,4.6-4.8s4.6,1.8,4.6,4.8v10c0,1.1-0.2,2-0.7,2.7c0.2,0.5,0.5,0.5,0.9,0.5h0.2v2.5h-0.5
		c-1.4,0-2.3-0.5-2.5-1.4c-0.7,0.2-1.4,0.5-2,0.5c-3,0-4.6-1.8-4.6-4.8C14.5,71.7,14.5,61.6,14.5,61.6z M17.4,71.9
		c0,1.4,0.7,1.8,1.6,1.8c0.9,0,1.6-0.5,1.6-1.8V61.6c0-1.4-0.7-1.8-1.6-1.8c-0.9,0-1.6,0.5-1.6,1.8V71.9z"/>
	<path d="M28.4,57.1v14.8c0,1.4,0.7,1.8,1.6,1.8c0.9,0,1.6-0.5,1.6-1.8V57.1h2.7v14.6c0,3-1.6,4.8-4.6,4.8c-3,0-4.6-1.8-4.6-4.8
		V57.1C25.3,57.1,28.4,57.1,28.4,57.1z"/>
	<path d="M46.1,76.2h-3l-0.7-3.4h-3.6l-0.5,3.4h-2.7l3-19.1h4.3L46.1,76.2z M39.3,70.3h3l-1.4-9.6L39.3,70.3z"/>
	<path d="M47.5,57.1h4.8c3,0,4.6,1.6,4.6,4.8v9.6c0,3-1.4,4.8-4.6,4.8h-4.8V57.1z M50.4,59.8v13.7H52c0.9,0,1.6-0.5,1.6-1.8V61.6
		c0-1.4-0.7-1.8-1.6-1.8C52,59.8,50.4,59.8,50.4,59.8z"/>
	<path d="M65.1,76.2c-0.2-0.5-0.2-0.7-0.2-2.3v-3c0-1.8-0.7-2.5-2-2.5h-1.1V76h-3v-19h4.6c3.2,0,4.6,1.4,4.6,4.3v1.6
		c0,2-0.7,3.2-2,3.9c1.6,0.7,2,2,2,4.1v3c0,0.9,0,1.6,0.2,2.3L65.1,76.2L65.1,76.2z M61.6,59.8v5.9h1.1c1.1,0,1.8-0.5,1.8-2v-1.8
		c0-1.4-0.5-2-1.6-2C63,59.8,61.6,59.8,61.6,59.8z"/>
	<path d="M72.6,57.1v14.8c0,1.4,0.7,1.8,1.6,1.8s1.6-0.5,1.6-1.8V57.1h2.7v14.6c0,3-1.6,4.8-4.6,4.8s-4.6-1.8-4.6-4.8V57.1
		C69.3,57.1,72.6,57.1,72.6,57.1z"/>
	<path d="M89.5,61.8v2.5c0,3-1.4,4.8-4.6,4.8h-1.4v7.3h-3V57.3h4.3C88.1,57.1,89.5,58.8,89.5,61.8z M83.5,59.8v6.4h1.4
		c0.9,0,1.4-0.5,1.4-1.8v-3c0-1.4-0.5-1.8-1.4-1.8h-1.4V59.8z"/>
	<path d="M99.8,61.8v2.5c0,3-1.4,4.8-4.6,4.8h-1.4v7.3h-3V57.3h4.3C98.6,57.1,99.8,58.8,99.8,61.8z M94,59.8v6.4h1.4
		c0.9,0,1.4-0.5,1.4-1.8v-3c0-1.4-0.5-1.8-1.4-1.8H94V59.8z"/>
	<path d="M104.5,65.3h4.1v2.7h-4.1v5.7h5.2v2.7h-8.2V57.3h8.2V60h-5.2V65.3z"/>
	<path d="M111.5,57.1h3v16.4h5v2.7h-8V57.1z"/>
</g>
</svg>
