<?xml version="1.0" encoding="utf-8"?>
<!-- Generator: Adobe Illustrator 22.1.0, SVG Export Plug-In . SVG Version: 6.00 Build 0)  -->
<svg version="1.1" id="Layer_1" xmlns="http://www.w3.org/2000/svg" xmlns:xlink="http://www.w3.org/1999/xlink" x="0px" y="0px"
	 viewBox="0 0 134 134" style="enable-background:new 0 0 134 134;" xml:space="preserve">
<style type="text/css">
	.st0{fill:none;stroke:#000000;stroke-miterlimit:10;}
</style>
<circle class="st0" cx="67" cy="67" r="66"/>
<g>
	<path d="M12.6,56.9c3,0,4.5,1.7,4.5,5v0.6h-3v-0.8c0-1.3-0.6-1.9-1.5-1.9s-1.5,0.6-1.5,1.9c0,4.1,6.1,4.8,6.1,10.4
		c0,3.2-1.5,5-4.5,5s-4.5-1.7-4.5-5v-1.3h3v1.3c0,1.5,0.6,1.9,1.5,1.9s1.5-0.4,1.5-1.9c0-4.1-6.1-4.8-6.1-10.4
		C8,58.9,9.6,56.9,12.6,56.9z"/>
	<path d="M27.9,69.5v2.6c0,3.2-1.5,5-4.5,5s-4.5-1.7-4.5-5V61.9c0-3.2,1.5-5,4.5-5s4.5,1.7,4.5,5v1.9h-3v-2.1c0-1.3-0.6-1.9-1.5-1.9
		s-1.5,0.4-1.5,1.9v10.6c0,1.5,0.6,1.9,1.5,1.9s1.5-0.4,1.5-1.9v-2.8C24.9,69.5,27.9,69.5,27.9,69.5z"/>
	<path d="M32.9,76.9h-3V57.2h3v8.4h3.5v-8.4h3.2v19.7h-3.2v-8.4h-3.5C32.9,68.4,32.9,76.9,32.9,76.9z"/>
	<path d="M48.5,66.5l-1.1,10.4h-4.3l-2.2-19.7h3l1.8,15.5l1.5-15.6h3l1.6,15.6l1.5-15.6h2.8l-2.2,19.7h-4.1L48.5,66.5z"/>
	<path d="M67.1,76.9h-3l-0.4-3.7h-3.9l-0.6,3.7h-2.8l3.2-19.7h4.5L67.1,76.9z M60.2,70.6h3l-1.5-10L60.2,70.6z"/>
	<path d="M75.1,76.9c-0.2-0.4-0.2-0.9-0.2-2.4v-3c0-1.7-0.6-2.6-1.9-2.6h-1.1v8h-3V57.2h4.5c3.2,0,4.5,1.5,4.5,4.5v1.5
		c0,1.9-0.6,3.2-1.9,3.9c1.5,0.6,1.9,2.2,1.9,4.1v3c0,0.9,0,1.7,0.4,2.4h-3.2C75.1,76.6,75.1,76.9,75.1,76.9z M71.7,60v6.1H73
		c1.1,0,1.9-0.4,1.9-2.2V62c0-1.3-0.4-1.9-1.5-1.9L71.7,60L71.7,60z"/>
	<path d="M88.5,57.2V60l-5.8,14.1h5.8v2.8h-9.1v-2.8L85.2,60h-5.6v-2.8C79.7,57.2,88.5,57.2,88.5,57.2z"/>
	<path d="M93.5,65.6h4.3v2.8h-4.3v5.8h5.4v2.6h-8.4V57.2h8.4V60h-5.4V65.6z"/>
	<path d="M100.7,57.2h3v19.7h-3V57.2z"/>
	<path d="M109.1,65.6h4.3v2.8h-4.3v5.8h5.4v2.6h-8.4V57.2h8.4V60h-5.4V65.6z"/>
	<path d="M122.9,76.9c-0.2-0.4-0.2-0.9-0.2-2.4v-3c0-1.7-0.6-2.6-1.9-2.6h-1.1v8h-3V57.2h4.3c3.2,0,4.5,1.5,4.5,4.5v1.5
		c0,1.9-0.6,3.2-1.9,3.9c1.5,0.6,1.9,2.2,1.9,4.1v3c0,0.9,0,1.7,0.4,2.4h-3C122.9,76.6,122.9,76.9,122.9,76.9z M119.5,60v6.1h1.3
		c1.1,0,1.9-0.4,1.9-2.2V62c0-1.3-0.4-1.9-1.5-1.9L119.5,60L119.5,60z"/>
</g>
</svg>
