<?xml version="1.0" encoding="utf-8"?>
<!-- Generator: Adobe Illustrator 22.1.0, SVG Export Plug-In . SVG Version: 6.00 Build 0)  -->
<svg version="1.1" id="Layer_1" xmlns="http://www.w3.org/2000/svg" xmlns:xlink="http://www.w3.org/1999/xlink" x="0px" y="0px"
	 viewBox="0 0 134 134" style="enable-background:new 0 0 134 134;" xml:space="preserve">
<style type="text/css">
	.st0{fill:none;stroke:#000000;stroke-miterlimit:10;}
</style>
<circle class="st0" cx="67" cy="67" r="66"/>
<g>
	<path d="M30.9,37.7c3.6,0,5.5,2.3,5.5,5.9v0.7h-3.6v-0.9c0-1.8-0.7-2.3-1.8-2.3c-1.1,0-1.8,0.7-1.8,2.3c0,5,7.3,5.9,7.3,12.7
		c0,3.9-1.8,5.9-5.7,5.9c-3.6,0-5.7-2.3-5.7-5.9v-1.4h3.6v1.8c0,1.8,0.7,2.3,2,2.3c1.1,0,2-0.7,2-2.3c0-5-7.3-5.9-7.3-12.7
		C25.4,39.9,27.2,37.7,30.9,37.7z"/>
	<path d="M42.5,48.1h5.2v3.4h-5.2v7.1h6.4v3.2H38.6V37.9h10.2v3.4h-6.4L42.5,48.1L42.5,48.1z"/>
	<path d="M56.4,37.7c3.6,0,5.5,2.3,5.5,5.9v0.7h-3.6v-0.9c0-1.8-0.7-2.3-1.8-2.3s-1.8,0.7-1.8,2.3c0,5,7.3,5.9,7.3,12.7
		c0,3.9-1.8,5.9-5.7,5.9c-3.6,0-5.7-2.3-5.7-5.9v-1.4h3.6v1.8c0,1.8,0.7,2.3,2,2.3c1.1,0,2-0.7,2-2.3c0-5-7.3-5.9-7.3-12.7
		C50.8,39.9,52.8,37.7,56.4,37.7z"/>
	<path d="M69.2,37.7c3.6,0,5.5,2.3,5.5,5.9v0.7h-3.6v-0.9c0-1.8-0.7-2.3-1.8-2.3s-1.8,0.7-1.8,2.3c0,5,7.3,5.9,7.3,12.7
		c0,3.9-1.8,5.9-5.7,5.9c-3.9,0-5.7-2.3-5.7-5.9v-1.4h3.5v1.8c0,1.8,0.7,2.3,2,2.3c1.1,0,2-0.7,2-2.3c0-5-7.3-5.9-7.3-12.7
		C63.8,39.9,65.5,37.7,69.2,37.7z"/>
	<path d="M76.9,37.9h3.6v23.9h-3.6V37.9z"/>
	<path d="M83,43.8c0-3.9,2-5.9,5.7-5.9c3.6,0,5.7,2.3,5.7,5.9v12.5c0,3.9-2,5.9-5.7,5.9c-3.6,0-5.7-2.3-5.7-5.9V43.8z M86.7,56.3
		c0,1.8,0.7,2.3,2,2.3c1.1,0,2-0.7,2-2.3v-13c0-1.8-0.7-2.3-2-2.3c-1.1,0-2,0.7-2,2.3V56.3z"/>
	<path d="M100.2,44.5v17.3h-3.4V37.9h4.8l3.9,14.3V37.9h3.4v23.9H105L100.2,44.5z"/>
	<path d="M41.6,71.8c3.6,0,5.5,2.3,5.5,5.9v0.7h-3.6v-0.9c0-1.8-0.7-2.3-1.8-2.3s-1.9,0.7-1.9,2.3c0,5,7.3,5.9,7.3,12.7
		c0,3.9-1.8,5.9-5.7,5.9s-5.7-2.3-5.7-5.9v-1.4h3.6v1.9c0,1.8,0.7,2.3,2,2.3c1.1,0,2-0.7,2-2.3c0-5-7.3-5.9-7.3-12.7
		C36.1,74.1,37.9,71.8,41.6,71.8z"/>
	<path d="M48.3,72h11.6v3.4h-3.9v20.5H52V75.4h-3.9C48.3,75.4,48.3,72,48.3,72z"/>
	<path d="M61.3,77.9c0-3.9,2-5.9,5.7-5.9c3.6,0,5.7,2.3,5.7,5.9v12.5c0,3.9-2,5.9-5.7,5.9c-3.6,0-5.7-2.3-5.7-5.9
		C61.2,90.4,61.2,77.9,61.3,77.9z M65,90.5c0,1.8,0.7,2.3,2,2.3c1.1,0,2-0.7,2-2.3v-13c0-1.8-0.7-2.3-2-2.3c-1.1,0-2,0.7-2,2.3V90.5
		z"/>
	<path d="M78.8,72v18.4c0,1.8,0.7,2.3,2,2.3c1.1,0,2-0.7,2-2.3V72h3.6v18.2c0,3.9-1.8,5.9-5.7,5.9S75,93.8,75,90.2V72H78.8z"/>
	<path d="M87.7,72h11.6v3.4h-3.9v20.5h-3.6V75.4h-3.9V72C87.8,72,87.7,72,87.7,72z"/>
</g>
</svg>
