<?xml version="1.0" encoding="utf-8"?>
<!-- Generator: Adobe Illustrator 22.1.0, SVG Export Plug-In . SVG Version: 6.00 Build 0)  -->
<svg version="1.1" id="Layer_1" xmlns="http://www.w3.org/2000/svg" xmlns:xlink="http://www.w3.org/1999/xlink" x="0px" y="0px"
	 viewBox="0 0 134 134" style="enable-background:new 0 0 134 134;" xml:space="preserve">
<style type="text/css">
	.st0{fill:none;stroke:#010101;stroke-miterlimit:10;}
	.st1{fill:#010101;}
</style>
<circle class="st0" cx="67" cy="67" r="66"/>
<g>
	<path class="st1" d="M24.8,33c4.3,0,6.4,2.6,6.4,7.2v0.9h-4.3v-1.1c0-1.9-0.9-2.8-2.5-2.8s-2.5,0.9-2.5,2.8c0,5.8,8.7,7,8.7,14.9
		c0,4.5-2.5,7.2-6.4,7.2s-6.4-2.6-6.4-7.2v-1.7h4.3v1.9c0,1.9,0.9,2.8,2.5,2.8s2.5-0.9,2.5-2.8c0-5.8-8.7-7-8.7-14.9
		C18,35.7,20.4,33,24.8,33z"/>
	<path class="st1" d="M38.1,44.9h6V49h-6v8.5h7.7v4.1h-12V33.3h12.1v4.1h-7.7v7.5C38.2,44.9,38.1,44.9,38.1,44.9z"/>
	<path class="st1" d="M54.6,33c4.3,0,6.4,2.6,6.4,7.2v0.9h-4.3v-1.1c0-1.9-0.9-2.8-2.5-2.8c-1.5,0-2.5,0.9-2.5,2.8
		c0,5.8,8.7,7,8.7,14.9c0,4.5-2.5,7.2-6.4,7.2s-6.4-2.6-6.4-7.2v-1.7h4.3v1.9c0,1.9,0.9,2.8,2.5,2.8c1.5,0,2.5-0.9,2.5-2.8
		c0-5.8-8.7-7-8.7-14.9C48,35.7,50.2,33,54.6,33z"/>
	<path class="st1" d="M69.5,33c4.3,0,6.4,2.6,6.4,7.2v0.9h-4.1v-1.1c0-1.9-0.9-2.8-2.5-2.8c-1.5,0-2.5,0.9-2.5,2.8
		c0,5.8,8.7,7,8.7,14.9c0,4.5-2.5,7.2-6.4,7.2c-4.3,0-6.4-2.6-6.4-7.2v-1.7H67v1.9c0,1.9,0.9,2.8,2.5,2.8c1.5,0,2.5-0.9,2.5-2.8
		c0-5.8-8.7-7-8.7-14.9C63.2,35.7,65.1,33,69.5,33z"/>
	<path class="st1" d="M78.5,33.3h4.3v28.1h-4.3V33.3z"/>
	<path class="st1" d="M85.7,39.7c0-4.5,2.5-7.2,6.4-7.2c4.3,0,6.4,2.6,6.4,7.2v14.7c0,4.5-2.5,7.2-6.4,7.2c-4.3,0-6.4-2.6-6.4-7.2
		V39.7z M90.2,54.8c0,1.9,0.9,2.8,2.5,2.8c1.5,0,2.5-0.9,2.5-2.8v-15c0-1.9-0.9-2.8-2.5-2.8c-1.5,0-2.5,0.9-2.5,2.8V54.8z"/>
	<path class="st1" d="M106,40.9v20.4h-4.1V33.3h5.7l4.5,17v-17h4.1v28.1h-4.5L106,40.9z"/>
	<path class="st1" d="M49.7,73.3H54v28.1h-4.3V73.3z"/>
	<path class="st1" d="M70.4,80.2V84c0,4.5-2.5,7-6.4,7h-1.9v10.6h-4.5V73.2H64C68.1,73.3,70.4,75.7,70.4,80.2z M61.7,77.3v9.4h1.9
		c1.5,0,2.5-0.6,2.5-2.6v-4.4c0-1.9-0.9-2.6-2.5-2.6C63.6,77.3,61.7,77.3,61.7,77.3z"/>
	<path class="st1" d="M86.4,101.3h-4.5L81,95.9h-5.5l-0.9,5.3h-4.1L75,73.2h6.4L86.4,101.3z M76.4,92.4h4.3l-1.9-14.3L76.4,92.4z"/>
</g>
</svg>
