<?xml version="1.0" encoding="utf-8"?>
<!-- Generator: Adobe Illustrator 22.1.0, SVG Export Plug-In . SVG Version: 6.00 Build 0)  -->
<svg version="1.1" id="Layer_1" xmlns="http://www.w3.org/2000/svg" xmlns:xlink="http://www.w3.org/1999/xlink" x="0px" y="0px"
	 viewBox="0 0 134 134" style="enable-background:new 0 0 134 134;" xml:space="preserve">
<style type="text/css">
	.st0{fill:none;stroke:#000000;stroke-miterlimit:10;}
</style>
<circle class="st0" cx="67" cy="67" r="66"/>
<g>
	<path d="M41.3,54.8c3.7,0,5.5,2.1,5.5,6v0.8h-3.5v-1.1c0-1.7-0.6-2.3-1.8-2.3s-1.8,0.6-1.8,2.3c0,4.9,7.2,5.8,7.2,12.6
		c0,3.8-1.8,6-5.5,6s-5.5-2.1-5.5-6v-1.4h3.5v1.7c0,1.7,0.8,2.3,2,2.3s2-0.6,2-2.3c0-4.9-7.2-5.8-7.2-12.6
		C35.7,57,37.6,54.8,41.3,54.8z"/>
	<path d="M47.7,55.1h11.5v3.4h-3.8v20.3h-3.7V58.5h-3.8v-3.4C47.9,55.1,47.7,55.1,47.7,55.1z"/>
	<path d="M60.6,60.8c0-3.8,2-6,5.7-6s5.7,2.1,5.7,6v12.3c0,3.8-2,6-5.7,6s-5.7-2.1-5.7-6C60.6,73.2,60.6,60.8,60.6,60.8z M64.3,73.3
		c0,1.7,0.8,2.3,2,2.3s2-0.6,2-2.3V60.5c0-1.7-0.8-2.3-2-2.3s-2,0.6-2,2.3V73.3z"/>
	<path d="M77.8,55.1v18.3c0,1.7,0.8,2.3,2,2.3s2-0.6,2-2.3V55.1h3.5v18c0,3.8-1.8,6-5.5,6s-5.5-2.1-5.5-6v-18
		C74.3,55.1,77.8,55.1,77.8,55.1z"/>
	<path d="M86.6,55.1h11.5v3.4h-3.8v20.3h-3.7V58.5h-3.8v-3.4C86.8,55.1,86.6,55.1,86.6,55.1z"/>
</g>
</svg>
