<?xml version="1.0" encoding="utf-8"?>
<!-- Generator: Adobe Illustrator 22.1.0, SVG Export Plug-In . SVG Version: 6.00 Build 0)  -->
<svg version="1.1" id="Layer_1" xmlns="http://www.w3.org/2000/svg" xmlns:xlink="http://www.w3.org/1999/xlink" x="0px" y="0px"
	 viewBox="0 0 134 134" style="enable-background:new 0 0 134 134;" xml:space="preserve">
<style type="text/css">
	.st0{fill:none;stroke:#000000;stroke-miterlimit:10;}
</style>
<circle class="st0" cx="67" cy="67" r="66"/>
<g>
	<path d="M23.9,54.4H36V58h-4v21.5h-4V58h-4L23.9,54.4L23.9,54.4z"/>
	<path d="M46.1,79.5c-0.2-0.7-0.4-1.1-0.4-3.1v-4c0-2.2-0.9-3.1-2.7-3.1h-1.3v10.3h-3.8V54.4h6c4,0,5.8,1.8,5.8,5.8v2
		c0,2.7-0.9,4.3-2.7,5.1c2,0.9,2.7,2.7,2.7,5.4v3.6c0,1.1,0,2,0.4,3.1h-4V79.5z M41.6,58v7.6h1.6c1.6,0,2.5-0.7,2.5-2.7v-2.5
		c0-1.8-0.7-2.7-2-2.7h-2L41.6,58L41.6,58z"/>
	<path d="M52.1,54.4h4v25.1h-4V54.4z"/>
	<path d="M70.7,60.5v3.4c0,4-2,6.3-5.8,6.3h-1.8v9.4h-4V54.4h5.6C68.7,54.4,70.7,56.4,70.7,60.5z M62.9,58v8.5h1.8
		c1.3,0,2-0.7,2-2.5v-3.8c0-1.8-0.7-2.5-2-2.5h-1.8C62.9,57.7,62.9,58,62.9,58z"/>
	<path d="M84.4,60.5v3.4c0,4-2,6.3-5.8,6.3h-1.8v9.4h-4V54.4h5.8C82.3,54.4,84.4,56.4,84.4,60.5z M76.5,58v8.5h1.8
		c1.3,0,2-0.7,2-2.5v-3.8c0-1.8-0.7-2.5-2-2.5h-1.8V58z"/>
	<path d="M90.2,64.9h5.4v3.6h-5.4v7.4h6.7v3.6H86.1V54.4h10.7V58h-6.7v6.9H90.2z"/>
	<path d="M99.6,54.4h4v21.5h6.5v3.6H99.6V54.4z"/>
</g>
</svg>
