<?xml version="1.0" encoding="utf-8"?>
<!-- Generator: Adobe Illustrator 22.1.0, SVG Export Plug-In . SVG Version: 6.00 Build 0)  -->
<svg version="1.1" id="Layer_1" xmlns="http://www.w3.org/2000/svg" xmlns:xlink="http://www.w3.org/1999/xlink" x="0px" y="0px"
	 viewBox="0 0 134 134" style="enable-background:new 0 0 134 134;" xml:space="preserve">
<style type="text/css">
	.st0{fill:none;stroke:#000000;stroke-miterlimit:10;}
</style>
<circle class="st0" cx="67" cy="67" r="66"/>
<g>
	<path d="M43,57.5l3-19.6h3.4l-3.6,23.9h-5.7l-3.6-23.9h3.9L43,57.5z"/>
	<path d="M51.2,37.9h3.6v23.9h-3.6V37.9z"/>
	<path d="M61.5,48.2h5.2v3.4h-5.2v7.1h6.4v3.2H57.6v-24h10.2v3.4h-6.4v6.9H61.5z"/>
	<path d="M73.5,44.5v17.3h-3.4V37.9h4.8l3.9,14.3V37.9h3.4v23.9h-3.9L73.5,44.5z"/>
	<path d="M97,61.8h-3.9l-0.7-4.3h-4.6l-0.6,4.3h-3.4l3.9-23.9h5.5L97,61.8z M88.3,54.3h3.6l-1.8-12.1L88.3,54.3z"/>
	<path d="M35.5,72.1h3.7v20.5h6.1V96h-10V72.1H35.5z"/>
	<path d="M59.2,95.9h-3.9l-0.7-4.3H50l-0.5,4.3h-3.3L50.1,72h5.5L59.2,95.9z M50.8,88.4h3.6l-1.8-12.1L50.8,88.4z"/>
	<path d="M66.7,82.7h5.2v7.5c0,3.9-1.8,5.9-5.7,5.9s-5.7-2.3-5.7-5.9V77.7c0-3.9,1.8-5.9,5.7-5.9c3.9,0,5.7,2.3,5.7,5.9V80h-3.6
		v-2.5c0-1.8-0.7-2.3-2-2.3c-1.1,0-2,0.7-2,2.3v13c0,1.8,0.7,2.3,2,2.3c1.1,0,2-0.7,2-2.3v-4.3h-1.8v-3.4L66.7,82.7L66.7,82.7z"/>
	<path d="M78.1,82.3h5.2v3.4h-5.2v7.1h6.4V96H74.2V72.1h10.2v3.4H78v6.8H78.1z"/>
	<path d="M94.7,95.9c-0.2-0.7-0.2-0.9-0.2-3v-3.6c0-2.3-0.7-3-2.5-3h-1.4v9.6H87V72.1h5.7c3.9,0,5.5,1.8,5.5,5.5v1.8
		c0,2.5-0.7,4.1-2.5,4.8c1.8,0.7,2.5,2.5,2.5,5v3.6c0,1.1,0,2,0.5,3h-3.9v0.1H94.7z M90.6,75.5v7.3H92c1.4,0,2.3-0.7,2.3-2.5V78
		c0-1.8-0.7-2.5-1.8-2.5C92.4,75.5,90.6,75.5,90.6,75.5z"/>
</g>
</svg>
