<?xml version="1.0" encoding="utf-8"?>
<!-- Generator: Adobe Illustrator 22.1.0, SVG Export Plug-In . SVG Version: 6.00 Build 0)  -->
<svg version="1.1" id="Layer_1" xmlns="http://www.w3.org/2000/svg" xmlns:xlink="http://www.w3.org/1999/xlink" x="0px" y="0px"
	 viewBox="0 0 134 134" style="enable-background:new 0 0 134 134;" xml:space="preserve">
<style type="text/css">
	.st0{fill:none;stroke:#000000;stroke-miterlimit:10;}
</style>
<circle class="st0" cx="67" cy="67" r="66"/>
<g>
	<path d="M32.5,66l-1.4,13.7h-5.5l-3-25.5h3.9l2,20l1.8-20h3.9l2,20.3l2-20.3h3.6l-2.7,25.5h-5.3L32.5,66z"/>
	<path d="M44.1,54.2h4.1v25.5h-4.1V54.2z"/>
	<path d="M50,54.2h12.3v3.6h-4.1v21.8h-4.1V57.8H50C50,57.8,50,54.2,50,54.2z"/>
	<path d="M75.9,59.9v0.9c0,2.7-0.9,4.3-2.5,5.2c2,0.9,3,2.7,3,5.5v2c0,3.9-2,6.1-6.1,6.1h-6.4V54.2H70C74.4,54.2,75.9,56,75.9,59.9z
		 M68,57.8v6.8h1.6c1.6,0,2.5-0.7,2.5-2.7v-1.4c0-1.8-0.7-2.7-2-2.7C70,57.8,68,57.8,68,57.8z M68,68.1v7.7h2.3c1.4,0,2-0.7,2-2.5
		v-2.3c0-2.3-0.7-3.2-2.5-3.2H68V68.1z"/>
	<path d="M78.9,54.2H83v25.5h-4.1V54.2z"/>
	<path d="M89.8,64.9h5.5v3.6h-5.5V76h6.8v3.6H85.7V54.2h10.9v3.6h-6.8V64.9z"/>
	<path d="M107.6,79.7c-0.2-0.7-0.5-1.1-0.5-3.2v-4.1c0-2.3-0.9-3.2-2.7-3.2H103v10.5h-4.1V54.2h6.1c4.1,0,5.9,1.8,5.9,5.9v2
		c0,2.7-0.9,4.3-2.7,5.2c2,0.9,2.7,2.7,2.7,5.5v3.9c0,1.1,0,2,0.5,3.2h-3.9L107.6,79.7L107.6,79.7z M103.3,57.8v7.7h1.6
		c1.6,0,2.5-0.7,2.5-2.7v-2.5c0-1.8-0.7-2.7-2-2.7h-2L103.3,57.8L103.3,57.8z"/>
</g>
</svg>
